<svg width="420" height="600" viewBox="0 0 420 600" fill="none" xmlns="http://www.w3.org/2000/svg">
<path fill-rule="evenodd" clip-rule="evenodd" d="M40 0H380C402.091 0 420 17.9086 420 40V560C420 582.091 402.091 600 380 600H40C17.9086 600 0 582.091 0 560V40C0 17.9086 17.9086 0 40 0ZM372 24H48C34.7452 24 24 34.7452 24 48V430C24 443.255 34.7452 454 48 454H372C385.255 454 396 443.255 396 430V48C396 34.7452 385.255 24 372 24Z" fill="#4ECC32"/>
<path d="M129.054 139.81C136.394 140.961 145.668 142.802 155.566 145.612C153.334 151.966 151.427 158.646 149.995 165.496C142.882 165.431 135.854 165.925 129.093 166.803C128.449 156.63 128.618 147.283 129.054 139.81ZM119.338 168.338C118.778 160.234 118.739 152.656 118.948 145.995C118.603 146.334 118.219 146.62 117.874 146.964C109.739 155.095 103.056 164.11 97.5248 173.613C103.948 171.714 111.269 169.828 119.338 168.338ZM133.154 194.206C136.921 187.741 141.477 181.614 147.008 176.078C147.301 175.786 147.62 175.545 147.913 175.259C141.828 175.311 135.796 175.792 129.958 176.573C130.635 182.401 131.741 188.326 133.154 194.206ZM124.85 201.498C122.67 193.725 121.186 185.835 120.256 178.16C108.783 180.345 98.6767 183.344 91.2255 185.894C91.0954 186.186 90.9522 186.466 90.822 186.759C94.0888 194.07 98.8654 203.651 105.165 213.635C111.256 209.238 117.841 205.082 124.85 201.498ZM97.8242 219.209C93.1648 211.911 89.3839 204.9 86.3058 198.642C82.4468 210.526 80.3514 222.832 80 235.204C84.9327 230.273 90.9327 224.725 97.8242 219.209ZM81.0737 256.018C82.7136 268.519 86.1757 280.787 91.4403 292.469C93.8546 285.769 96.9587 278.126 100.876 270.191C93.3144 265.417 86.6312 260.48 81.0737 256.018ZM81.8416 246.45C87.744 251.426 95.5205 257.416 104.546 263.173C108.139 256.629 112.297 250.105 117.06 243.913C111.848 238.501 107.156 232.719 102.978 226.858C94.3556 233.825 87.0932 240.889 81.8416 246.45ZM110.267 221.271C113.559 225.935 117.249 230.488 121.199 234.846C121.557 227.002 122.924 219.209 125.345 211.664C120.06 214.611 114.985 217.837 110.267 221.271ZM159.353 135.777C162.457 128.29 165.782 121.506 168.932 115.639C158.064 119.23 147.555 124.179 137.767 130.697C144.249 131.9 151.57 133.52 159.353 135.777ZM169.394 138.944C175.375 141.032 181.427 143.53 187.368 146.431C192.977 139.94 197.787 134.469 201.014 130.82C196.329 126.937 188.897 120.966 181.082 115.307C177.418 121.721 173.234 129.819 169.394 138.944ZM126.405 314.428C117.047 313.576 108.444 312.106 101.241 310.571C105.998 317.778 111.542 324.607 117.88 330.943C121.219 334.279 124.707 337.362 128.299 340.257C127.31 332.822 126.509 323.963 126.405 314.428ZM301.94 146.958C272.903 117.942 233.448 105.603 195.496 109.798C205.784 117.642 213.977 124.719 214.576 125.246L219.567 129.585L215.149 134.502C215.045 134.619 209.318 141.013 201.027 150.542C203.982 150.249 206.943 150.087 209.91 150.087C232.687 150.087 255.469 158.757 272.812 176.085C307.497 210.754 307.497 267.16 272.812 301.829C242.76 331.86 196.387 335.821 161.976 313.81C155.377 314.766 148.739 315.202 142.251 315.202C139.342 315.202 136.485 315.098 133.655 314.955C133.83 327.118 135.171 338.156 136.492 346.286C158.546 361.37 184.212 369 209.917 369C243.248 369 276.573 356.316 301.946 330.962C352.686 280.214 352.686 197.686 301.94 146.958ZM153.268 307.475C151.121 305.699 149.026 303.832 147.015 301.829C142.648 297.464 138.835 292.748 135.568 287.779C134.468 294.459 133.876 301.159 133.707 307.683C140.071 308.027 146.67 307.969 153.268 307.475ZM165.561 148.74C163.726 153.898 162.158 159.284 160.869 164.767C166.791 160.851 173.103 157.814 179.611 155.466C179.839 155.199 180.093 154.893 180.32 154.627C175.44 152.376 170.481 150.431 165.561 148.74ZM121.863 250.652C117.919 256.011 114.373 261.612 111.295 267.264C116.924 270.516 122.937 273.489 129.178 276.039C125.455 267.915 123.008 259.361 121.863 250.652ZM128.833 284.371C121.375 281.528 114.275 278.048 107.67 274.269C102.627 284.585 98.9435 294.453 96.4641 302.082C104.286 303.975 114.835 306.037 126.483 307.149C126.705 299.708 127.42 292.033 128.833 284.371Z" fill="#4ECC32"/>
<path d="M96.0566 542.363C96.3535 543.254 96.5391 543.959 96.6133 544.479C96.6875 544.998 96.5885 545.394 96.3164 545.666C96.0443 545.913 95.5618 546.062 94.8691 546.111C94.1764 546.186 93.224 546.223 92.0117 546.223C90.75 546.223 89.7604 546.198 89.043 546.148C88.3503 546.124 87.8184 546.062 87.4473 545.963C87.0762 545.839 86.8164 545.678 86.668 545.48C86.5195 545.283 86.3958 545.023 86.2969 544.701L83.0684 535.053H65.0332L61.9902 544.441C61.8913 544.788 61.7552 545.085 61.582 545.332C61.4336 545.555 61.1738 545.74 60.8027 545.889C60.4564 546.012 59.9492 546.099 59.2812 546.148C58.638 546.198 57.7845 546.223 56.7207 546.223C55.5827 546.223 54.6921 546.186 54.0488 546.111C53.4056 546.037 52.9603 545.864 52.7129 545.592C52.4655 545.295 52.3789 544.887 52.4531 544.367C52.5273 543.848 52.7129 543.155 53.0098 542.289L67.8164 499.688C67.9648 499.267 68.138 498.933 68.3359 498.686C68.5339 498.413 68.8431 498.215 69.2637 498.092C69.709 497.943 70.3151 497.857 71.082 497.832C71.849 497.783 72.8633 497.758 74.125 497.758C75.5846 497.758 76.7474 497.783 77.6133 497.832C78.4792 497.857 79.1471 497.943 79.6172 498.092C80.112 498.215 80.4583 498.413 80.6562 498.686C80.8789 498.958 81.0645 499.329 81.2129 499.799L96.0566 542.363ZM74.0137 507.146H73.9766L67.1855 527.557H80.8047L74.0137 507.146ZM133.871 544.738C133.871 544.986 133.797 545.208 133.648 545.406C133.5 545.579 133.253 545.728 132.906 545.852C132.56 545.975 132.077 546.062 131.459 546.111C130.865 546.186 130.123 546.223 129.232 546.223C128.317 546.223 127.55 546.186 126.932 546.111C126.338 546.062 125.868 545.975 125.521 545.852C125.175 545.728 124.928 545.579 124.779 545.406C124.631 545.208 124.557 544.986 124.557 544.738V525.85C124.557 524.242 124.433 522.98 124.186 522.064C123.963 521.149 123.629 520.37 123.184 519.727C122.738 519.059 122.157 518.551 121.439 518.205C120.747 517.834 119.93 517.648 118.99 517.648C117.803 517.648 116.603 518.081 115.391 518.947C114.178 519.813 112.917 521.075 111.605 522.732V544.738C111.605 544.986 111.531 545.208 111.383 545.406C111.234 545.579 110.975 545.728 110.604 545.852C110.257 545.975 109.787 546.062 109.193 546.111C108.6 546.186 107.845 546.223 106.93 546.223C106.014 546.223 105.26 546.186 104.666 546.111C104.072 546.062 103.59 545.975 103.219 545.852C102.872 545.728 102.625 545.579 102.477 545.406C102.328 545.208 102.254 544.986 102.254 544.738V511.637C102.254 511.389 102.316 511.179 102.439 511.006C102.563 510.808 102.786 510.647 103.107 510.523C103.429 510.4 103.837 510.313 104.332 510.264C104.852 510.189 105.495 510.152 106.262 510.152C107.053 510.152 107.709 510.189 108.229 510.264C108.748 510.313 109.144 510.4 109.416 510.523C109.713 510.647 109.923 510.808 110.047 511.006C110.171 511.179 110.232 511.389 110.232 511.637V515.459C112.063 513.48 113.919 511.995 115.799 511.006C117.704 510.016 119.683 509.521 121.736 509.521C123.988 509.521 125.88 509.893 127.414 510.635C128.973 511.377 130.222 512.391 131.162 513.678C132.127 514.939 132.82 516.424 133.24 518.131C133.661 519.838 133.871 521.891 133.871 524.291V544.738ZM171.277 544.85C171.277 545.196 171.154 545.468 170.906 545.666C170.659 545.864 170.263 546 169.719 546.074C169.199 546.173 168.42 546.223 167.381 546.223C166.268 546.223 165.451 546.173 164.932 546.074C164.437 546 164.078 545.864 163.855 545.666C163.658 545.468 163.559 545.196 163.559 544.85V542.215C162.198 543.674 160.639 544.812 158.883 545.629C157.151 546.445 155.221 546.854 153.094 546.854C151.337 546.854 149.717 546.618 148.232 546.148C146.773 545.703 145.499 545.035 144.41 544.145C143.346 543.229 142.518 542.104 141.924 540.768C141.33 539.432 141.033 537.873 141.033 536.092C141.033 534.162 141.404 532.492 142.146 531.082C142.913 529.647 144.039 528.472 145.523 527.557C147.033 526.617 148.9 525.924 151.127 525.479C153.354 525.033 155.939 524.811 158.883 524.811H162.111V522.807C162.111 521.768 162 520.865 161.777 520.098C161.579 519.306 161.233 518.65 160.738 518.131C160.268 517.611 159.625 517.228 158.809 516.98C158.017 516.733 157.027 516.609 155.84 516.609C154.281 516.609 152.883 516.783 151.646 517.129C150.434 517.475 149.358 517.859 148.418 518.279C147.478 518.7 146.686 519.083 146.043 519.43C145.424 519.776 144.917 519.949 144.521 519.949C144.249 519.949 144.002 519.863 143.779 519.689C143.581 519.516 143.408 519.269 143.26 518.947C143.136 518.626 143.037 518.23 142.963 517.76C142.889 517.29 142.852 516.77 142.852 516.201C142.852 515.434 142.913 514.828 143.037 514.383C143.161 513.938 143.396 513.542 143.742 513.195C144.089 512.824 144.695 512.428 145.561 512.008C146.426 511.562 147.441 511.154 148.604 510.783C149.766 510.412 151.028 510.115 152.389 509.893C153.774 509.645 155.197 509.521 156.656 509.521C159.254 509.521 161.468 509.781 163.299 510.301C165.154 510.796 166.676 511.575 167.863 512.639C169.051 513.678 169.917 515.026 170.461 516.684C171.005 518.341 171.277 520.308 171.277 522.584V544.85ZM162.111 530.674H158.549C157.04 530.674 155.753 530.785 154.689 531.008C153.626 531.23 152.76 531.564 152.092 532.01C151.424 532.455 150.929 532.999 150.607 533.643C150.311 534.261 150.162 534.979 150.162 535.795C150.162 537.18 150.595 538.269 151.461 539.061C152.352 539.852 153.576 540.248 155.135 540.248C156.446 540.248 157.646 539.914 158.734 539.246C159.848 538.578 160.973 537.601 162.111 536.314V530.674ZM205.678 539.469C205.678 540.112 205.653 540.656 205.604 541.102C205.579 541.522 205.529 541.881 205.455 542.178C205.406 542.475 205.331 542.722 205.232 542.92C205.158 543.093 204.973 543.328 204.676 543.625C204.379 543.897 203.872 544.243 203.154 544.664C202.437 545.06 201.62 545.419 200.705 545.74C199.79 546.062 198.788 546.322 197.699 546.52C196.635 546.717 195.535 546.816 194.396 546.816C191.848 546.816 189.585 546.421 187.605 545.629C185.651 544.837 184.006 543.674 182.67 542.141C181.334 540.582 180.32 538.689 179.627 536.463C178.959 534.236 178.625 531.688 178.625 528.818C178.625 525.503 179.033 522.646 179.85 520.246C180.691 517.822 181.854 515.818 183.338 514.234C184.822 512.651 186.579 511.476 188.607 510.709C190.636 509.942 192.863 509.559 195.287 509.559C196.277 509.559 197.242 509.645 198.182 509.818C199.146 509.992 200.037 510.227 200.854 510.523C201.695 510.82 202.437 511.154 203.08 511.525C203.748 511.896 204.218 512.218 204.49 512.49C204.762 512.762 204.948 512.997 205.047 513.195C205.171 513.368 205.257 513.604 205.307 513.9C205.381 514.197 205.43 514.568 205.455 515.014C205.505 515.434 205.529 515.954 205.529 516.572C205.529 518.007 205.406 519.021 205.158 519.615C204.911 520.184 204.589 520.469 204.193 520.469C203.773 520.469 203.327 520.296 202.857 519.949C202.387 519.603 201.831 519.219 201.188 518.799C200.544 518.378 199.777 517.995 198.887 517.648C197.996 517.302 196.932 517.129 195.695 517.129C193.271 517.129 191.415 518.069 190.129 519.949C188.842 521.805 188.199 524.538 188.199 528.15C188.199 529.932 188.36 531.503 188.682 532.863C189.003 534.224 189.473 535.362 190.092 536.277C190.735 537.193 191.527 537.885 192.467 538.355C193.432 538.801 194.545 539.023 195.807 539.023C197.093 539.023 198.194 538.838 199.109 538.467C200.049 538.071 200.866 537.638 201.559 537.168C202.251 536.698 202.833 536.277 203.303 535.906C203.773 535.51 204.169 535.312 204.49 535.312C204.713 535.312 204.898 535.374 205.047 535.498C205.195 535.622 205.307 535.857 205.381 536.203C205.48 536.525 205.554 536.945 205.604 537.465C205.653 537.984 205.678 538.652 205.678 539.469ZM245.57 527.854C245.57 530.674 245.199 533.247 244.457 535.572C243.715 537.898 242.589 539.902 241.08 541.584C239.571 543.266 237.678 544.565 235.402 545.48C233.126 546.396 230.467 546.854 227.424 546.854C224.48 546.854 221.919 546.445 219.742 545.629C217.565 544.812 215.759 543.625 214.324 542.066C212.889 540.508 211.826 538.59 211.133 536.314C210.44 534.038 210.094 531.441 210.094 528.521C210.094 525.701 210.465 523.128 211.207 520.803C211.974 518.452 213.112 516.449 214.621 514.791C216.13 513.109 218.01 511.81 220.262 510.895C222.538 509.979 225.197 509.521 228.24 509.521C231.209 509.521 233.782 509.93 235.959 510.746C238.136 511.538 239.93 512.713 241.34 514.271C242.775 515.83 243.839 517.747 244.531 520.023C245.224 522.299 245.57 524.91 245.57 527.854ZM235.959 528.225C235.959 526.592 235.823 525.095 235.551 523.734C235.303 522.349 234.87 521.149 234.252 520.135C233.633 519.12 232.805 518.329 231.766 517.76C230.751 517.191 229.465 516.906 227.906 516.906C226.521 516.906 225.309 517.166 224.27 517.686C223.23 518.18 222.377 518.923 221.709 519.912C221.041 520.877 220.534 522.052 220.188 523.438C219.866 524.798 219.705 526.357 219.705 528.113C219.705 529.746 219.841 531.255 220.113 532.641C220.385 534.001 220.818 535.189 221.412 536.203C222.031 537.217 222.859 538.009 223.898 538.578C224.938 539.122 226.224 539.395 227.758 539.395C229.168 539.395 230.393 539.147 231.432 538.652C232.471 538.133 233.324 537.391 233.992 536.426C234.66 535.461 235.155 534.298 235.477 532.938C235.798 531.552 235.959 529.981 235.959 528.225ZM284.609 544.738C284.609 544.986 284.535 545.208 284.387 545.406C284.238 545.579 283.991 545.728 283.645 545.852C283.298 545.975 282.816 546.062 282.197 546.111C281.604 546.186 280.861 546.223 279.971 546.223C279.055 546.223 278.288 546.186 277.67 546.111C277.076 546.062 276.606 545.975 276.26 545.852C275.913 545.728 275.666 545.579 275.518 545.406C275.369 545.208 275.295 544.986 275.295 544.738V525.85C275.295 524.242 275.171 522.98 274.924 522.064C274.701 521.149 274.367 520.37 273.922 519.727C273.477 519.059 272.895 518.551 272.178 518.205C271.485 517.834 270.669 517.648 269.729 517.648C268.541 517.648 267.341 518.081 266.129 518.947C264.917 519.813 263.655 521.075 262.344 522.732V544.738C262.344 544.986 262.27 545.208 262.121 545.406C261.973 545.579 261.713 545.728 261.342 545.852C260.995 545.975 260.525 546.062 259.932 546.111C259.338 546.186 258.583 546.223 257.668 546.223C256.753 546.223 255.998 546.186 255.404 546.111C254.811 546.062 254.328 545.975 253.957 545.852C253.611 545.728 253.363 545.579 253.215 545.406C253.066 545.208 252.992 544.986 252.992 544.738V511.637C252.992 511.389 253.054 511.179 253.178 511.006C253.301 510.808 253.524 510.647 253.846 510.523C254.167 510.4 254.576 510.313 255.07 510.264C255.59 510.189 256.233 510.152 257 510.152C257.792 510.152 258.447 510.189 258.967 510.264C259.486 510.313 259.882 510.4 260.154 510.523C260.451 510.647 260.661 510.808 260.785 511.006C260.909 511.179 260.971 511.389 260.971 511.637V515.459C262.801 513.48 264.657 511.995 266.537 511.006C268.442 510.016 270.421 509.521 272.475 509.521C274.726 509.521 276.618 509.893 278.152 510.635C279.711 511.377 280.96 512.391 281.9 513.678C282.865 514.939 283.558 516.424 283.979 518.131C284.399 519.838 284.609 521.891 284.609 524.291V544.738ZM325.207 544.738C325.207 545.01 325.145 545.245 325.021 545.443C324.898 545.617 324.688 545.765 324.391 545.889C324.094 546.012 323.686 546.099 323.166 546.148C322.671 546.198 322.053 546.223 321.311 546.223C320.519 546.223 319.876 546.198 319.381 546.148C318.886 546.099 318.478 546.012 318.156 545.889C317.859 545.765 317.637 545.617 317.488 545.443C317.365 545.245 317.303 545.01 317.303 544.738V541.064C315.596 542.895 313.802 544.318 311.922 545.332C310.066 546.346 308.001 546.854 305.725 546.854C303.201 546.854 301.061 546.371 299.305 545.406C297.573 544.417 296.15 543.093 295.037 541.436C293.949 539.778 293.157 537.848 292.662 535.646C292.167 533.42 291.92 531.082 291.92 528.633C291.92 525.689 292.229 523.042 292.848 520.691C293.491 518.341 294.419 516.337 295.631 514.68C296.843 513.022 298.352 511.748 300.158 510.857C301.964 509.967 304.042 509.521 306.393 509.521C308.248 509.521 309.93 509.905 311.439 510.672C312.949 511.414 314.445 512.515 315.93 513.975V496.051C315.93 495.803 315.992 495.581 316.115 495.383C316.264 495.185 316.511 495.024 316.857 494.9C317.229 494.752 317.711 494.641 318.305 494.566C318.898 494.492 319.653 494.455 320.568 494.455C321.484 494.455 322.238 494.492 322.832 494.566C323.426 494.641 323.896 494.752 324.242 494.9C324.589 495.024 324.836 495.185 324.984 495.383C325.133 495.581 325.207 495.803 325.207 496.051V544.738ZM315.93 522.621C314.594 520.939 313.307 519.652 312.07 518.762C310.858 517.871 309.584 517.426 308.248 517.426C307.036 517.426 305.984 517.735 305.094 518.354C304.228 518.947 303.523 519.751 302.979 520.766C302.459 521.78 302.063 522.918 301.791 524.18C301.544 525.417 301.42 526.691 301.42 528.002C301.42 529.387 301.531 530.736 301.754 532.047C301.977 533.358 302.335 534.533 302.83 535.572C303.35 536.587 304.03 537.403 304.871 538.021C305.712 538.64 306.776 538.949 308.062 538.949C308.706 538.949 309.324 538.863 309.918 538.689C310.536 538.492 311.155 538.182 311.773 537.762C312.417 537.341 313.072 536.797 313.74 536.129C314.408 535.436 315.138 534.595 315.93 533.605V522.621ZM362.836 544.85C362.836 545.196 362.712 545.468 362.465 545.666C362.217 545.864 361.822 546 361.277 546.074C360.758 546.173 359.979 546.223 358.939 546.223C357.826 546.223 357.01 546.173 356.49 546.074C355.995 546 355.637 545.864 355.414 545.666C355.216 545.468 355.117 545.196 355.117 544.85V542.215C353.757 543.674 352.198 544.812 350.441 545.629C348.71 546.445 346.78 546.854 344.652 546.854C342.896 546.854 341.275 546.618 339.791 546.148C338.331 545.703 337.057 545.035 335.969 544.145C334.905 543.229 334.076 542.104 333.482 540.768C332.889 539.432 332.592 537.873 332.592 536.092C332.592 534.162 332.963 532.492 333.705 531.082C334.472 529.647 335.598 528.472 337.082 527.557C338.591 526.617 340.459 525.924 342.686 525.479C344.912 525.033 347.497 524.811 350.441 524.811H353.67V522.807C353.67 521.768 353.559 520.865 353.336 520.098C353.138 519.306 352.792 518.65 352.297 518.131C351.827 517.611 351.184 517.228 350.367 516.98C349.576 516.733 348.586 516.609 347.398 516.609C345.84 516.609 344.442 516.783 343.205 517.129C341.993 517.475 340.917 517.859 339.977 518.279C339.036 518.7 338.245 519.083 337.602 519.43C336.983 519.776 336.476 519.949 336.08 519.949C335.808 519.949 335.561 519.863 335.338 519.689C335.14 519.516 334.967 519.269 334.818 518.947C334.695 518.626 334.596 518.23 334.521 517.76C334.447 517.29 334.41 516.77 334.41 516.201C334.41 515.434 334.472 514.828 334.596 514.383C334.719 513.938 334.954 513.542 335.301 513.195C335.647 512.824 336.253 512.428 337.119 512.008C337.985 511.562 338.999 511.154 340.162 510.783C341.325 510.412 342.587 510.115 343.947 509.893C345.333 509.645 346.755 509.521 348.215 509.521C350.812 509.521 353.027 509.781 354.857 510.301C356.713 510.796 358.234 511.575 359.422 512.639C360.609 513.678 361.475 515.026 362.02 516.684C362.564 518.341 362.836 520.308 362.836 522.584V544.85ZM353.67 530.674H350.107C348.598 530.674 347.312 530.785 346.248 531.008C345.184 531.23 344.318 531.564 343.65 532.01C342.982 532.455 342.488 532.999 342.166 533.643C341.869 534.261 341.721 534.979 341.721 535.795C341.721 537.18 342.154 538.269 343.02 539.061C343.91 539.852 345.135 540.248 346.693 540.248C348.005 540.248 349.204 539.914 350.293 539.246C351.406 538.578 352.532 537.601 353.67 536.314V530.674Z" fill="#282C34"/>
</svg>
