<svg width="420" height="600" viewBox="0 0 420 600" fill="none" xmlns="http://www.w3.org/2000/svg">
<rect width="420" height="600" rx="40" fill="#4ECC32"/>
<rect x="24" y="24" width="372" height="430" rx="24" fill="#282C34"/>
<path d="M129.054 139.81C136.394 140.961 145.668 142.802 155.566 145.612C153.334 151.966 151.427 158.646 149.995 165.496C142.882 165.431 135.854 165.925 129.093 166.803C128.449 156.63 128.618 147.283 129.054 139.81ZM119.338 168.338C118.778 160.234 118.739 152.656 118.948 145.995C118.603 146.334 118.219 146.62 117.874 146.964C109.739 155.095 103.056 164.11 97.5248 173.613C103.948 171.714 111.269 169.828 119.338 168.338ZM133.154 194.206C136.921 187.741 141.477 181.614 147.008 176.078C147.301 175.786 147.62 175.545 147.913 175.259C141.828 175.311 135.796 175.792 129.958 176.573C130.635 182.401 131.741 188.326 133.154 194.206ZM124.85 201.498C122.67 193.725 121.186 185.835 120.256 178.16C108.783 180.345 98.6767 183.344 91.2255 185.894C91.0954 186.186 90.9522 186.466 90.822 186.759C94.0888 194.07 98.8654 203.651 105.165 213.635C111.256 209.238 117.841 205.082 124.85 201.498ZM97.8242 219.209C93.1648 211.911 89.3839 204.9 86.3058 198.642C82.4468 210.526 80.3514 222.832 80 235.204C84.9327 230.273 90.9327 224.725 97.8242 219.209ZM81.0737 256.018C82.7136 268.519 86.1757 280.787 91.4403 292.469C93.8546 285.769 96.9587 278.126 100.876 270.191C93.3144 265.417 86.6312 260.48 81.0737 256.018ZM81.8416 246.45C87.744 251.426 95.5205 257.416 104.546 263.173C108.139 256.629 112.297 250.105 117.06 243.913C111.848 238.501 107.156 232.719 102.978 226.858C94.3556 233.825 87.0932 240.889 81.8416 246.45ZM110.267 221.271C113.559 225.935 117.249 230.488 121.199 234.846C121.557 227.002 122.924 219.209 125.345 211.664C120.06 214.611 114.985 217.837 110.267 221.271ZM159.353 135.777C162.457 128.29 165.782 121.506 168.932 115.639C158.064 119.23 147.555 124.179 137.767 130.697C144.249 131.9 151.57 133.52 159.353 135.777ZM169.394 138.944C175.375 141.032 181.427 143.53 187.368 146.431C192.977 139.94 197.787 134.469 201.014 130.82C196.329 126.937 188.897 120.966 181.082 115.307C177.418 121.721 173.234 129.819 169.394 138.944ZM126.405 314.428C117.047 313.576 108.444 312.106 101.241 310.571C105.998 317.778 111.542 324.607 117.88 330.943C121.219 334.279 124.707 337.362 128.299 340.257C127.31 332.822 126.509 323.963 126.405 314.428ZM301.94 146.958C272.903 117.942 233.448 105.603 195.496 109.798C205.784 117.642 213.977 124.719 214.576 125.246L219.567 129.585L215.149 134.502C215.045 134.619 209.318 141.013 201.027 150.542C203.982 150.249 206.943 150.087 209.91 150.087C232.687 150.087 255.469 158.757 272.812 176.085C307.497 210.754 307.497 267.16 272.812 301.829C242.76 331.86 196.387 335.821 161.976 313.81C155.377 314.766 148.739 315.202 142.251 315.202C139.342 315.202 136.485 315.098 133.655 314.955C133.83 327.118 135.171 338.156 136.492 346.286C158.546 361.37 184.212 369 209.917 369C243.248 369 276.573 356.316 301.946 330.962C352.686 280.214 352.686 197.686 301.94 146.958ZM153.268 307.475C151.121 305.699 149.026 303.832 147.015 301.829C142.648 297.464 138.835 292.748 135.568 287.779C134.468 294.459 133.876 301.159 133.707 307.683C140.071 308.027 146.67 307.969 153.268 307.475ZM165.561 148.74C163.726 153.898 162.158 159.284 160.869 164.767C166.791 160.851 173.103 157.814 179.611 155.466C179.839 155.199 180.093 154.893 180.32 154.627C175.44 152.376 170.481 150.431 165.561 148.74ZM121.863 250.652C117.919 256.011 114.373 261.612 111.295 267.264C116.924 270.516 122.937 273.489 129.178 276.039C125.455 267.915 123.008 259.361 121.863 250.652ZM128.833 284.371C121.375 281.528 114.275 278.048 107.67 274.269C102.627 284.585 98.9435 294.453 96.4641 302.082C104.286 303.975 114.835 306.037 126.483 307.149C126.705 299.708 127.42 292.033 128.833 284.371Z" fill="#4ECC32"/>
<path d="M96.5566 542.363C96.8535 543.254 97.0391 543.959 97.1133 544.479C97.1875 544.998 97.0885 545.394 96.8164 545.666C96.5443 545.913 96.0618 546.062 95.3691 546.111C94.6764 546.186 93.724 546.223 92.5117 546.223C91.25 546.223 90.2604 546.198 89.543 546.148C88.8503 546.124 88.3184 546.062 87.9473 545.963C87.5762 545.839 87.3164 545.678 87.168 545.48C87.0195 545.283 86.8958 545.023 86.7969 544.701L83.5684 535.053H65.5332L62.4902 544.441C62.3913 544.788 62.2552 545.085 62.082 545.332C61.9336 545.555 61.6738 545.74 61.3027 545.889C60.9564 546.012 60.4492 546.099 59.7812 546.148C59.138 546.198 58.2845 546.223 57.2207 546.223C56.0827 546.223 55.1921 546.186 54.5488 546.111C53.9056 546.037 53.4603 545.864 53.2129 545.592C52.9655 545.295 52.8789 544.887 52.9531 544.367C53.0273 543.848 53.2129 543.155 53.5098 542.289L68.3164 499.688C68.4648 499.267 68.638 498.933 68.8359 498.686C69.0339 498.413 69.3431 498.215 69.7637 498.092C70.209 497.943 70.8151 497.857 71.582 497.832C72.349 497.783 73.3633 497.758 74.625 497.758C76.0846 497.758 77.2474 497.783 78.1133 497.832C78.9792 497.857 79.6471 497.943 80.1172 498.092C80.612 498.215 80.9583 498.413 81.1562 498.686C81.3789 498.958 81.5645 499.329 81.7129 499.799L96.5566 542.363ZM74.5137 507.146H74.4766L67.6855 527.557H81.3047L74.5137 507.146ZM134.371 544.738C134.371 544.986 134.297 545.208 134.148 545.406C134 545.579 133.753 545.728 133.406 545.852C133.06 545.975 132.577 546.062 131.959 546.111C131.365 546.186 130.623 546.223 129.732 546.223C128.817 546.223 128.05 546.186 127.432 546.111C126.838 546.062 126.368 545.975 126.021 545.852C125.675 545.728 125.428 545.579 125.279 545.406C125.131 545.208 125.057 544.986 125.057 544.738V525.85C125.057 524.242 124.933 522.98 124.686 522.064C124.463 521.149 124.129 520.37 123.684 519.727C123.238 519.059 122.657 518.551 121.939 518.205C121.247 517.834 120.43 517.648 119.49 517.648C118.303 517.648 117.103 518.081 115.891 518.947C114.678 519.813 113.417 521.075 112.105 522.732V544.738C112.105 544.986 112.031 545.208 111.883 545.406C111.734 545.579 111.475 545.728 111.104 545.852C110.757 545.975 110.287 546.062 109.693 546.111C109.1 546.186 108.345 546.223 107.43 546.223C106.514 546.223 105.76 546.186 105.166 546.111C104.572 546.062 104.09 545.975 103.719 545.852C103.372 545.728 103.125 545.579 102.977 545.406C102.828 545.208 102.754 544.986 102.754 544.738V511.637C102.754 511.389 102.816 511.179 102.939 511.006C103.063 510.808 103.286 510.647 103.607 510.523C103.929 510.4 104.337 510.313 104.832 510.264C105.352 510.189 105.995 510.152 106.762 510.152C107.553 510.152 108.209 510.189 108.729 510.264C109.248 510.313 109.644 510.4 109.916 510.523C110.213 510.647 110.423 510.808 110.547 511.006C110.671 511.179 110.732 511.389 110.732 511.637V515.459C112.563 513.48 114.419 511.995 116.299 511.006C118.204 510.016 120.183 509.521 122.236 509.521C124.488 509.521 126.38 509.893 127.914 510.635C129.473 511.377 130.722 512.391 131.662 513.678C132.627 514.939 133.32 516.424 133.74 518.131C134.161 519.838 134.371 521.891 134.371 524.291V544.738ZM171.777 544.85C171.777 545.196 171.654 545.468 171.406 545.666C171.159 545.864 170.763 546 170.219 546.074C169.699 546.173 168.92 546.223 167.881 546.223C166.768 546.223 165.951 546.173 165.432 546.074C164.937 546 164.578 545.864 164.355 545.666C164.158 545.468 164.059 545.196 164.059 544.85V542.215C162.698 543.674 161.139 544.812 159.383 545.629C157.651 546.445 155.721 546.854 153.594 546.854C151.837 546.854 150.217 546.618 148.732 546.148C147.273 545.703 145.999 545.035 144.91 544.145C143.846 543.229 143.018 542.104 142.424 540.768C141.83 539.432 141.533 537.873 141.533 536.092C141.533 534.162 141.904 532.492 142.646 531.082C143.413 529.647 144.539 528.472 146.023 527.557C147.533 526.617 149.4 525.924 151.627 525.479C153.854 525.033 156.439 524.811 159.383 524.811H162.611V522.807C162.611 521.768 162.5 520.865 162.277 520.098C162.079 519.306 161.733 518.65 161.238 518.131C160.768 517.611 160.125 517.228 159.309 516.98C158.517 516.733 157.527 516.609 156.34 516.609C154.781 516.609 153.383 516.783 152.146 517.129C150.934 517.475 149.858 517.859 148.918 518.279C147.978 518.7 147.186 519.083 146.543 519.43C145.924 519.776 145.417 519.949 145.021 519.949C144.749 519.949 144.502 519.863 144.279 519.689C144.081 519.516 143.908 519.269 143.76 518.947C143.636 518.626 143.537 518.23 143.463 517.76C143.389 517.29 143.352 516.77 143.352 516.201C143.352 515.434 143.413 514.828 143.537 514.383C143.661 513.938 143.896 513.542 144.242 513.195C144.589 512.824 145.195 512.428 146.061 512.008C146.926 511.562 147.941 511.154 149.104 510.783C150.266 510.412 151.528 510.115 152.889 509.893C154.274 509.645 155.697 509.521 157.156 509.521C159.754 509.521 161.968 509.781 163.799 510.301C165.654 510.796 167.176 511.575 168.363 512.639C169.551 513.678 170.417 515.026 170.961 516.684C171.505 518.341 171.777 520.308 171.777 522.584V544.85ZM162.611 530.674H159.049C157.54 530.674 156.253 530.785 155.189 531.008C154.126 531.23 153.26 531.564 152.592 532.01C151.924 532.455 151.429 532.999 151.107 533.643C150.811 534.261 150.662 534.979 150.662 535.795C150.662 537.18 151.095 538.269 151.961 539.061C152.852 539.852 154.076 540.248 155.635 540.248C156.946 540.248 158.146 539.914 159.234 539.246C160.348 538.578 161.473 537.601 162.611 536.314V530.674ZM206.178 539.469C206.178 540.112 206.153 540.656 206.104 541.102C206.079 541.522 206.029 541.881 205.955 542.178C205.906 542.475 205.831 542.722 205.732 542.92C205.658 543.093 205.473 543.328 205.176 543.625C204.879 543.897 204.372 544.243 203.654 544.664C202.937 545.06 202.12 545.419 201.205 545.74C200.29 546.062 199.288 546.322 198.199 546.52C197.135 546.717 196.035 546.816 194.896 546.816C192.348 546.816 190.085 546.421 188.105 545.629C186.151 544.837 184.506 543.674 183.17 542.141C181.834 540.582 180.82 538.689 180.127 536.463C179.459 534.236 179.125 531.688 179.125 528.818C179.125 525.503 179.533 522.646 180.35 520.246C181.191 517.822 182.354 515.818 183.838 514.234C185.322 512.651 187.079 511.476 189.107 510.709C191.136 509.942 193.363 509.559 195.787 509.559C196.777 509.559 197.742 509.645 198.682 509.818C199.646 509.992 200.537 510.227 201.354 510.523C202.195 510.82 202.937 511.154 203.58 511.525C204.248 511.896 204.718 512.218 204.99 512.49C205.262 512.762 205.448 512.997 205.547 513.195C205.671 513.368 205.757 513.604 205.807 513.9C205.881 514.197 205.93 514.568 205.955 515.014C206.005 515.434 206.029 515.954 206.029 516.572C206.029 518.007 205.906 519.021 205.658 519.615C205.411 520.184 205.089 520.469 204.693 520.469C204.273 520.469 203.827 520.296 203.357 519.949C202.887 519.603 202.331 519.219 201.688 518.799C201.044 518.378 200.277 517.995 199.387 517.648C198.496 517.302 197.432 517.129 196.195 517.129C193.771 517.129 191.915 518.069 190.629 519.949C189.342 521.805 188.699 524.538 188.699 528.15C188.699 529.932 188.86 531.503 189.182 532.863C189.503 534.224 189.973 535.362 190.592 536.277C191.235 537.193 192.027 537.885 192.967 538.355C193.932 538.801 195.045 539.023 196.307 539.023C197.593 539.023 198.694 538.838 199.609 538.467C200.549 538.071 201.366 537.638 202.059 537.168C202.751 536.698 203.333 536.277 203.803 535.906C204.273 535.51 204.669 535.312 204.99 535.312C205.213 535.312 205.398 535.374 205.547 535.498C205.695 535.622 205.807 535.857 205.881 536.203C205.98 536.525 206.054 536.945 206.104 537.465C206.153 537.984 206.178 538.652 206.178 539.469ZM246.07 527.854C246.07 530.674 245.699 533.247 244.957 535.572C244.215 537.898 243.089 539.902 241.58 541.584C240.071 543.266 238.178 544.565 235.902 545.48C233.626 546.396 230.967 546.854 227.924 546.854C224.98 546.854 222.419 546.445 220.242 545.629C218.065 544.812 216.259 543.625 214.824 542.066C213.389 540.508 212.326 538.59 211.633 536.314C210.94 534.038 210.594 531.441 210.594 528.521C210.594 525.701 210.965 523.128 211.707 520.803C212.474 518.452 213.612 516.449 215.121 514.791C216.63 513.109 218.51 511.81 220.762 510.895C223.038 509.979 225.697 509.521 228.74 509.521C231.709 509.521 234.282 509.93 236.459 510.746C238.636 511.538 240.43 512.713 241.84 514.271C243.275 515.83 244.339 517.747 245.031 520.023C245.724 522.299 246.07 524.91 246.07 527.854ZM236.459 528.225C236.459 526.592 236.323 525.095 236.051 523.734C235.803 522.349 235.37 521.149 234.752 520.135C234.133 519.12 233.305 518.329 232.266 517.76C231.251 517.191 229.965 516.906 228.406 516.906C227.021 516.906 225.809 517.166 224.77 517.686C223.73 518.18 222.877 518.923 222.209 519.912C221.541 520.877 221.034 522.052 220.688 523.438C220.366 524.798 220.205 526.357 220.205 528.113C220.205 529.746 220.341 531.255 220.613 532.641C220.885 534.001 221.318 535.189 221.912 536.203C222.531 537.217 223.359 538.009 224.398 538.578C225.438 539.122 226.724 539.395 228.258 539.395C229.668 539.395 230.893 539.147 231.932 538.652C232.971 538.133 233.824 537.391 234.492 536.426C235.16 535.461 235.655 534.298 235.977 532.938C236.298 531.552 236.459 529.981 236.459 528.225ZM285.109 544.738C285.109 544.986 285.035 545.208 284.887 545.406C284.738 545.579 284.491 545.728 284.145 545.852C283.798 545.975 283.316 546.062 282.697 546.111C282.104 546.186 281.361 546.223 280.471 546.223C279.555 546.223 278.788 546.186 278.17 546.111C277.576 546.062 277.106 545.975 276.76 545.852C276.413 545.728 276.166 545.579 276.018 545.406C275.869 545.208 275.795 544.986 275.795 544.738V525.85C275.795 524.242 275.671 522.98 275.424 522.064C275.201 521.149 274.867 520.37 274.422 519.727C273.977 519.059 273.395 518.551 272.678 518.205C271.985 517.834 271.169 517.648 270.229 517.648C269.041 517.648 267.841 518.081 266.629 518.947C265.417 519.813 264.155 521.075 262.844 522.732V544.738C262.844 544.986 262.77 545.208 262.621 545.406C262.473 545.579 262.213 545.728 261.842 545.852C261.495 545.975 261.025 546.062 260.432 546.111C259.838 546.186 259.083 546.223 258.168 546.223C257.253 546.223 256.498 546.186 255.904 546.111C255.311 546.062 254.828 545.975 254.457 545.852C254.111 545.728 253.863 545.579 253.715 545.406C253.566 545.208 253.492 544.986 253.492 544.738V511.637C253.492 511.389 253.554 511.179 253.678 511.006C253.801 510.808 254.024 510.647 254.346 510.523C254.667 510.4 255.076 510.313 255.57 510.264C256.09 510.189 256.733 510.152 257.5 510.152C258.292 510.152 258.947 510.189 259.467 510.264C259.986 510.313 260.382 510.4 260.654 510.523C260.951 510.647 261.161 510.808 261.285 511.006C261.409 511.179 261.471 511.389 261.471 511.637V515.459C263.301 513.48 265.157 511.995 267.037 511.006C268.942 510.016 270.921 509.521 272.975 509.521C275.226 509.521 277.118 509.893 278.652 510.635C280.211 511.377 281.46 512.391 282.4 513.678C283.365 514.939 284.058 516.424 284.479 518.131C284.899 519.838 285.109 521.891 285.109 524.291V544.738ZM325.707 544.738C325.707 545.01 325.645 545.245 325.521 545.443C325.398 545.617 325.188 545.765 324.891 545.889C324.594 546.012 324.186 546.099 323.666 546.148C323.171 546.198 322.553 546.223 321.811 546.223C321.019 546.223 320.376 546.198 319.881 546.148C319.386 546.099 318.978 546.012 318.656 545.889C318.359 545.765 318.137 545.617 317.988 545.443C317.865 545.245 317.803 545.01 317.803 544.738V541.064C316.096 542.895 314.302 544.318 312.422 545.332C310.566 546.346 308.501 546.854 306.225 546.854C303.701 546.854 301.561 546.371 299.805 545.406C298.073 544.417 296.65 543.093 295.537 541.436C294.449 539.778 293.657 537.848 293.162 535.646C292.667 533.42 292.42 531.082 292.42 528.633C292.42 525.689 292.729 523.042 293.348 520.691C293.991 518.341 294.919 516.337 296.131 514.68C297.343 513.022 298.852 511.748 300.658 510.857C302.464 509.967 304.542 509.521 306.893 509.521C308.748 509.521 310.43 509.905 311.939 510.672C313.449 511.414 314.945 512.515 316.43 513.975V496.051C316.43 495.803 316.492 495.581 316.615 495.383C316.764 495.185 317.011 495.024 317.357 494.9C317.729 494.752 318.211 494.641 318.805 494.566C319.398 494.492 320.153 494.455 321.068 494.455C321.984 494.455 322.738 494.492 323.332 494.566C323.926 494.641 324.396 494.752 324.742 494.9C325.089 495.024 325.336 495.185 325.484 495.383C325.633 495.581 325.707 495.803 325.707 496.051V544.738ZM316.43 522.621C315.094 520.939 313.807 519.652 312.57 518.762C311.358 517.871 310.084 517.426 308.748 517.426C307.536 517.426 306.484 517.735 305.594 518.354C304.728 518.947 304.023 519.751 303.479 520.766C302.959 521.78 302.563 522.918 302.291 524.18C302.044 525.417 301.92 526.691 301.92 528.002C301.92 529.387 302.031 530.736 302.254 532.047C302.477 533.358 302.835 534.533 303.33 535.572C303.85 536.587 304.53 537.403 305.371 538.021C306.212 538.64 307.276 538.949 308.562 538.949C309.206 538.949 309.824 538.863 310.418 538.689C311.036 538.492 311.655 538.182 312.273 537.762C312.917 537.341 313.572 536.797 314.24 536.129C314.908 535.436 315.638 534.595 316.43 533.605V522.621ZM363.336 544.85C363.336 545.196 363.212 545.468 362.965 545.666C362.717 545.864 362.322 546 361.777 546.074C361.258 546.173 360.479 546.223 359.439 546.223C358.326 546.223 357.51 546.173 356.99 546.074C356.495 546 356.137 545.864 355.914 545.666C355.716 545.468 355.617 545.196 355.617 544.85V542.215C354.257 543.674 352.698 544.812 350.941 545.629C349.21 546.445 347.28 546.854 345.152 546.854C343.396 546.854 341.775 546.618 340.291 546.148C338.831 545.703 337.557 545.035 336.469 544.145C335.405 543.229 334.576 542.104 333.982 540.768C333.389 539.432 333.092 537.873 333.092 536.092C333.092 534.162 333.463 532.492 334.205 531.082C334.972 529.647 336.098 528.472 337.582 527.557C339.091 526.617 340.959 525.924 343.186 525.479C345.412 525.033 347.997 524.811 350.941 524.811H354.17V522.807C354.17 521.768 354.059 520.865 353.836 520.098C353.638 519.306 353.292 518.65 352.797 518.131C352.327 517.611 351.684 517.228 350.867 516.98C350.076 516.733 349.086 516.609 347.898 516.609C346.34 516.609 344.942 516.783 343.705 517.129C342.493 517.475 341.417 517.859 340.477 518.279C339.536 518.7 338.745 519.083 338.102 519.43C337.483 519.776 336.976 519.949 336.58 519.949C336.308 519.949 336.061 519.863 335.838 519.689C335.64 519.516 335.467 519.269 335.318 518.947C335.195 518.626 335.096 518.23 335.021 517.76C334.947 517.29 334.91 516.77 334.91 516.201C334.91 515.434 334.972 514.828 335.096 514.383C335.219 513.938 335.454 513.542 335.801 513.195C336.147 512.824 336.753 512.428 337.619 512.008C338.485 511.562 339.499 511.154 340.662 510.783C341.825 510.412 343.087 510.115 344.447 509.893C345.833 509.645 347.255 509.521 348.715 509.521C351.312 509.521 353.527 509.781 355.357 510.301C357.213 510.796 358.734 511.575 359.922 512.639C361.109 513.678 361.975 515.026 362.52 516.684C363.064 518.341 363.336 520.308 363.336 522.584V544.85ZM354.17 530.674H350.607C349.098 530.674 347.812 530.785 346.748 531.008C345.684 531.23 344.818 531.564 344.15 532.01C343.482 532.455 342.988 532.999 342.666 533.643C342.369 534.261 342.221 534.979 342.221 535.795C342.221 537.18 342.654 538.269 343.52 539.061C344.41 539.852 345.635 540.248 347.193 540.248C348.505 540.248 349.704 539.914 350.793 539.246C351.906 538.578 353.032 537.601 354.17 536.314V530.674Z" fill="#282C34"/>
</svg>
