<svg width="420" height="600" viewBox="0 0 420 600" fill="none" xmlns="http://www.w3.org/2000/svg">
<path fill-rule="evenodd" clip-rule="evenodd" d="M40 0H380C402.091 0 420 17.9086 420 40V560C420 582.091 402.091 600 380 600H40C17.9086 600 0 582.091 0 560V40C0 17.9086 17.9086 0 40 0ZM372 24H48C34.7452 24 24 34.7452 24 48V430C24 443.255 34.7452 454 48 454H372C385.255 454 396 443.255 396 430V48C396 34.7452 385.255 24 372 24Z" fill="#F9AB00"/>
<path d="M128.046 211.167L102.235 185.3C87.9967 199.54 80 218.835 80 238.952C80 259.07 87.9967 278.365 102.235 292.605L128.156 266.738C120.77 259.376 116.611 249.392 116.591 238.975C116.57 228.558 120.689 218.558 128.046 211.167Z" fill="#E8710A"/>
<path d="M102.235 185.3L128.046 211.167C131.708 207.508 136.056 204.606 140.843 202.625C145.63 200.645 150.761 199.626 155.943 199.626C161.125 199.626 166.256 200.645 171.043 202.625C175.829 204.606 180.178 207.508 183.84 211.167L202.621 179.052L201.523 178.175C186.873 167.268 168.78 161.986 150.55 163.294C132.32 164.602 115.17 172.413 102.235 185.3Z" fill="#F9AB00"/>
<path d="M202.731 298.853L183.84 266.848C180.178 270.506 175.829 273.409 171.043 275.389C166.256 277.37 161.125 278.389 155.943 278.389C150.761 278.389 145.63 277.37 140.843 275.389C136.056 273.409 131.708 270.506 128.046 266.848L102.235 292.715C115.145 305.486 132.208 313.225 150.338 314.532C168.469 315.839 186.469 310.627 201.083 299.839L202.292 298.853" fill="#F9AB00"/>
<path d="M209.98 185.3C195.741 199.54 187.744 218.835 187.744 238.952C187.744 259.07 195.741 278.365 209.98 292.605L235.9 266.738C228.501 259.354 224.345 249.34 224.345 238.898C224.345 228.456 228.501 218.441 235.9 211.057C243.299 203.674 253.334 199.526 263.797 199.526C274.261 199.526 284.295 203.674 291.694 211.057L317.724 185.3C310.655 178.231 302.257 172.623 293.013 168.796C283.769 164.97 273.86 163 263.852 163C253.844 163 243.935 164.97 234.691 168.796C225.447 172.623 217.049 178.231 209.98 185.3Z" fill="#F9AB00"/>
<path d="M317.724 185.3L291.914 211.167C299.313 218.551 303.469 228.565 303.469 239.007C303.469 249.449 299.313 259.464 291.914 266.848C284.515 274.231 274.48 278.379 264.017 278.379C253.553 278.379 243.518 274.231 236.12 266.848L209.98 292.715C224.253 306.974 243.617 314.99 263.813 315C273.813 315.005 283.716 313.045 292.957 309.23C302.197 305.416 310.595 299.823 317.669 292.77C324.744 285.717 330.357 277.342 334.189 268.124C338.02 258.906 339.995 249.026 340 239.046C340.005 229.066 338.04 219.184 334.218 209.962C330.396 200.74 324.792 192.36 317.724 185.3Z" fill="#E8710A"/>
<path d="M158.846 538.727C158.846 539.345 158.821 539.877 158.771 540.322C158.747 540.743 158.697 541.114 158.623 541.436C158.549 541.732 158.45 541.992 158.326 542.215C158.202 542.438 158.005 542.697 157.732 542.994C157.46 543.266 156.928 543.625 156.137 544.07C155.37 544.516 154.417 544.949 153.279 545.369C152.166 545.765 150.88 546.099 149.42 546.371C147.985 546.643 146.426 546.779 144.744 546.779C141.454 546.779 138.485 546.272 135.838 545.258C133.191 544.243 130.939 542.734 129.084 540.73C127.229 538.702 125.806 536.178 124.816 533.16C123.827 530.142 123.332 526.629 123.332 522.621C123.332 518.539 123.876 514.915 124.965 511.748C126.053 508.581 127.575 505.922 129.529 503.77C131.484 501.617 133.822 499.984 136.543 498.871C139.289 497.758 142.307 497.201 145.598 497.201C146.934 497.201 148.22 497.312 149.457 497.535C150.694 497.758 151.832 498.055 152.871 498.426C153.935 498.772 154.887 499.18 155.729 499.65C156.57 500.12 157.151 500.529 157.473 500.875C157.819 501.197 158.054 501.469 158.178 501.691C158.301 501.914 158.4 502.199 158.475 502.545C158.549 502.891 158.598 503.299 158.623 503.77C158.673 504.24 158.697 504.821 158.697 505.514C158.697 506.256 158.673 506.887 158.623 507.406C158.574 507.926 158.487 508.346 158.363 508.668C158.24 508.99 158.091 509.225 157.918 509.373C157.745 509.521 157.547 509.596 157.324 509.596C156.953 509.596 156.483 509.385 155.914 508.965C155.345 508.52 154.603 508.037 153.688 507.518C152.797 506.973 151.721 506.491 150.459 506.07C149.222 505.625 147.738 505.402 146.006 505.402C144.101 505.402 142.394 505.798 140.885 506.59C139.4 507.357 138.126 508.47 137.062 509.93C136.023 511.365 135.232 513.109 134.688 515.162C134.143 517.215 133.871 519.529 133.871 522.102C133.871 524.922 134.156 527.371 134.725 529.449C135.318 531.503 136.147 533.197 137.211 534.533C138.299 535.869 139.598 536.871 141.107 537.539C142.641 538.182 144.361 538.504 146.266 538.504C147.997 538.504 149.494 538.306 150.756 537.91C152.018 537.49 153.094 537.032 153.984 536.537C154.9 536.042 155.642 535.597 156.211 535.201C156.805 534.805 157.262 534.607 157.584 534.607C157.831 534.607 158.029 534.657 158.178 534.756C158.326 534.855 158.45 535.053 158.549 535.35C158.648 535.646 158.722 536.067 158.771 536.611C158.821 537.131 158.846 537.836 158.846 538.727ZM198.775 527.854C198.775 530.674 198.404 533.247 197.662 535.572C196.92 537.898 195.794 539.902 194.285 541.584C192.776 543.266 190.883 544.565 188.607 545.48C186.331 546.396 183.672 546.854 180.629 546.854C177.685 546.854 175.124 546.445 172.947 545.629C170.77 544.812 168.964 543.625 167.529 542.066C166.094 540.508 165.031 538.59 164.338 536.314C163.645 534.038 163.299 531.441 163.299 528.521C163.299 525.701 163.67 523.128 164.412 520.803C165.179 518.452 166.317 516.449 167.826 514.791C169.335 513.109 171.215 511.81 173.467 510.895C175.743 509.979 178.402 509.521 181.445 509.521C184.414 509.521 186.987 509.93 189.164 510.746C191.341 511.538 193.135 512.713 194.545 514.271C195.98 515.83 197.044 517.747 197.736 520.023C198.429 522.299 198.775 524.91 198.775 527.854ZM189.164 528.225C189.164 526.592 189.028 525.095 188.756 523.734C188.508 522.349 188.076 521.149 187.457 520.135C186.839 519.12 186.01 518.329 184.971 517.76C183.956 517.191 182.67 516.906 181.111 516.906C179.726 516.906 178.514 517.166 177.475 517.686C176.436 518.18 175.582 518.923 174.914 519.912C174.246 520.877 173.739 522.052 173.393 523.438C173.071 524.798 172.91 526.357 172.91 528.113C172.91 529.746 173.046 531.255 173.318 532.641C173.59 534.001 174.023 535.189 174.617 536.203C175.236 537.217 176.064 538.009 177.104 538.578C178.143 539.122 179.429 539.395 180.963 539.395C182.373 539.395 183.598 539.147 184.637 538.652C185.676 538.133 186.529 537.391 187.197 536.426C187.865 535.461 188.36 534.298 188.682 532.938C189.003 531.552 189.164 529.981 189.164 528.225ZM215.549 544.738C215.549 544.986 215.475 545.208 215.326 545.406C215.178 545.579 214.918 545.728 214.547 545.852C214.201 545.975 213.73 546.062 213.137 546.111C212.543 546.186 211.788 546.223 210.873 546.223C209.958 546.223 209.203 546.186 208.609 546.111C208.016 546.062 207.533 545.975 207.162 545.852C206.816 545.728 206.568 545.579 206.42 545.406C206.271 545.208 206.197 544.986 206.197 544.738V495.939C206.197 495.692 206.271 495.469 206.42 495.271C206.568 495.074 206.816 494.913 207.162 494.789C207.533 494.641 208.016 494.529 208.609 494.455C209.203 494.381 209.958 494.344 210.873 494.344C211.788 494.344 212.543 494.381 213.137 494.455C213.73 494.529 214.201 494.641 214.547 494.789C214.918 494.913 215.178 495.074 215.326 495.271C215.475 495.469 215.549 495.692 215.549 495.939V544.738ZM253.104 544.85C253.104 545.196 252.98 545.468 252.732 545.666C252.485 545.864 252.089 546 251.545 546.074C251.025 546.173 250.246 546.223 249.207 546.223C248.094 546.223 247.277 546.173 246.758 546.074C246.263 546 245.904 545.864 245.682 545.666C245.484 545.468 245.385 545.196 245.385 544.85V542.215C244.024 543.674 242.465 544.812 240.709 545.629C238.977 546.445 237.048 546.854 234.92 546.854C233.163 546.854 231.543 546.618 230.059 546.148C228.599 545.703 227.325 545.035 226.236 544.145C225.173 543.229 224.344 542.104 223.75 540.768C223.156 539.432 222.859 537.873 222.859 536.092C222.859 534.162 223.23 532.492 223.973 531.082C224.74 529.647 225.865 528.472 227.35 527.557C228.859 526.617 230.727 525.924 232.953 525.479C235.18 525.033 237.765 524.811 240.709 524.811H243.938V522.807C243.938 521.768 243.826 520.865 243.604 520.098C243.406 519.306 243.059 518.65 242.564 518.131C242.094 517.611 241.451 517.228 240.635 516.98C239.843 516.733 238.854 516.609 237.666 516.609C236.107 516.609 234.71 516.783 233.473 517.129C232.26 517.475 231.184 517.859 230.244 518.279C229.304 518.7 228.512 519.083 227.869 519.43C227.251 519.776 226.743 519.949 226.348 519.949C226.076 519.949 225.828 519.863 225.605 519.689C225.408 519.516 225.234 519.269 225.086 518.947C224.962 518.626 224.863 518.23 224.789 517.76C224.715 517.29 224.678 516.77 224.678 516.201C224.678 515.434 224.74 514.828 224.863 514.383C224.987 513.938 225.222 513.542 225.568 513.195C225.915 512.824 226.521 512.428 227.387 512.008C228.253 511.562 229.267 511.154 230.43 510.783C231.592 510.412 232.854 510.115 234.215 509.893C235.6 509.645 237.023 509.521 238.482 509.521C241.08 509.521 243.294 509.781 245.125 510.301C246.98 510.796 248.502 511.575 249.689 512.639C250.877 513.678 251.743 515.026 252.287 516.684C252.831 518.341 253.104 520.308 253.104 522.584V544.85ZM243.938 530.674H240.375C238.866 530.674 237.579 530.785 236.516 531.008C235.452 531.23 234.586 531.564 233.918 532.01C233.25 532.455 232.755 532.999 232.434 533.643C232.137 534.261 231.988 534.979 231.988 535.795C231.988 537.18 232.421 538.269 233.287 539.061C234.178 539.852 235.402 540.248 236.961 540.248C238.272 540.248 239.472 539.914 240.561 539.246C241.674 538.578 242.799 537.601 243.938 536.314V530.674ZM295.779 527.742C295.779 530.686 295.458 533.333 294.814 535.684C294.171 538.034 293.243 540.038 292.031 541.695C290.819 543.353 289.322 544.627 287.541 545.518C285.785 546.408 283.781 546.854 281.529 546.854C280.416 546.854 279.377 546.742 278.412 546.52C277.447 546.322 276.52 545.988 275.629 545.518C274.763 545.048 273.897 544.454 273.031 543.736C272.19 543.019 271.324 542.153 270.434 541.139V544.738C270.434 545.01 270.359 545.245 270.211 545.443C270.087 545.617 269.865 545.765 269.543 545.889C269.246 546.012 268.838 546.099 268.318 546.148C267.799 546.198 267.168 546.223 266.426 546.223C265.659 546.223 265.016 546.198 264.496 546.148C264.001 546.099 263.593 546.012 263.271 545.889C262.975 545.765 262.764 545.617 262.641 545.443C262.517 545.245 262.455 545.01 262.455 544.738V495.939C262.455 495.692 262.529 495.469 262.678 495.271C262.826 495.074 263.074 494.913 263.42 494.789C263.791 494.641 264.273 494.529 264.867 494.455C265.461 494.381 266.215 494.344 267.131 494.344C268.046 494.344 268.801 494.381 269.395 494.455C269.988 494.529 270.458 494.641 270.805 494.789C271.176 494.913 271.436 495.074 271.584 495.271C271.732 495.469 271.807 495.692 271.807 495.939V514.234C272.648 513.393 273.489 512.676 274.33 512.082C275.171 511.488 276.012 511.006 276.854 510.635C277.695 510.239 278.561 509.954 279.451 509.781C280.342 509.608 281.282 509.521 282.271 509.521C284.721 509.521 286.799 510.016 288.506 511.006C290.213 511.971 291.598 513.282 292.662 514.939C293.751 516.597 294.542 518.539 295.037 520.766C295.532 522.967 295.779 525.293 295.779 527.742ZM286.094 528.41C286.094 527 285.982 525.639 285.76 524.328C285.562 523.017 285.203 521.854 284.684 520.84C284.164 519.826 283.484 519.021 282.643 518.428C281.826 517.809 280.787 517.5 279.525 517.5C278.907 517.5 278.301 517.587 277.707 517.76C277.113 517.933 276.495 518.23 275.852 518.65C275.233 519.071 274.59 519.615 273.922 520.283C273.254 520.951 272.549 521.78 271.807 522.77V533.754C273.118 535.436 274.367 536.723 275.555 537.613C276.767 538.479 278.029 538.912 279.34 538.912C280.552 538.912 281.579 538.603 282.42 537.984C283.261 537.366 283.954 536.562 284.498 535.572C285.067 534.583 285.475 533.457 285.723 532.195C285.97 530.934 286.094 529.672 286.094 528.41Z" fill="#282C34"/>
</svg>
