<svg width="420" height="600" viewBox="0 0 420 600" fill="none" xmlns="http://www.w3.org/2000/svg">
<rect width="420" height="600" rx="40" fill="#F9AB00"/>
<rect x="24" y="24" width="372" height="430" rx="24" fill="#282C34"/>
<path d="M128.046 211.167L102.235 185.3C87.9967 199.54 80 218.835 80 238.952C80 259.07 87.9967 278.365 102.235 292.605L128.156 266.738C120.77 259.376 116.611 249.392 116.591 238.975C116.57 228.558 120.689 218.558 128.046 211.167Z" fill="#E8710A"/>
<path d="M102.235 185.3L128.046 211.167C131.708 207.508 136.056 204.606 140.843 202.625C145.63 200.645 150.761 199.626 155.943 199.626C161.125 199.626 166.256 200.645 171.043 202.625C175.829 204.606 180.178 207.508 183.84 211.167L202.621 179.052L201.523 178.175C186.873 167.268 168.78 161.986 150.55 163.294C132.32 164.602 115.17 172.413 102.235 185.3Z" fill="#F9AB00"/>
<path d="M202.731 298.853L183.84 266.848C180.178 270.506 175.829 273.409 171.043 275.389C166.256 277.37 161.125 278.389 155.943 278.389C150.761 278.389 145.63 277.37 140.843 275.389C136.056 273.409 131.708 270.506 128.046 266.848L102.235 292.715C115.145 305.486 132.208 313.225 150.338 314.532C168.469 315.839 186.469 310.627 201.083 299.839L202.292 298.853" fill="#F9AB00"/>
<path d="M209.98 185.3C195.741 199.54 187.744 218.835 187.744 238.952C187.744 259.07 195.741 278.365 209.98 292.605L235.9 266.738C228.501 259.354 224.345 249.34 224.345 238.898C224.345 228.456 228.501 218.441 235.9 211.057C243.299 203.674 253.334 199.526 263.797 199.526C274.261 199.526 284.295 203.674 291.694 211.057L317.724 185.3C310.655 178.231 302.257 172.623 293.013 168.796C283.769 164.97 273.86 163 263.852 163C253.844 163 243.935 164.97 234.691 168.796C225.447 172.623 217.049 178.231 209.98 185.3Z" fill="#F9AB00"/>
<path d="M317.724 185.3L291.914 211.167C299.313 218.551 303.469 228.565 303.469 239.007C303.469 249.449 299.313 259.464 291.914 266.848C284.515 274.231 274.48 278.379 264.017 278.379C253.553 278.379 243.518 274.231 236.12 266.848L209.98 292.715C224.253 306.974 243.617 314.99 263.813 315C273.813 315.005 283.716 313.045 292.957 309.23C302.197 305.416 310.595 299.823 317.669 292.77C324.744 285.717 330.357 277.342 334.189 268.124C338.02 258.906 339.995 249.026 340 239.046C340.005 229.066 338.04 219.184 334.218 209.962C330.396 200.74 324.792 192.36 317.724 185.3Z" fill="#E8710A"/>
<path d="M159.346 538.727C159.346 539.345 159.321 539.877 159.271 540.322C159.247 540.743 159.197 541.114 159.123 541.436C159.049 541.732 158.95 541.992 158.826 542.215C158.702 542.438 158.505 542.697 158.232 542.994C157.96 543.266 157.428 543.625 156.637 544.07C155.87 544.516 154.917 544.949 153.779 545.369C152.666 545.765 151.38 546.099 149.92 546.371C148.485 546.643 146.926 546.779 145.244 546.779C141.954 546.779 138.985 546.272 136.338 545.258C133.691 544.243 131.439 542.734 129.584 540.73C127.729 538.702 126.306 536.178 125.316 533.16C124.327 530.142 123.832 526.629 123.832 522.621C123.832 518.539 124.376 514.915 125.465 511.748C126.553 508.581 128.075 505.922 130.029 503.77C131.984 501.617 134.322 499.984 137.043 498.871C139.789 497.758 142.807 497.201 146.098 497.201C147.434 497.201 148.72 497.312 149.957 497.535C151.194 497.758 152.332 498.055 153.371 498.426C154.435 498.772 155.387 499.18 156.229 499.65C157.07 500.12 157.651 500.529 157.973 500.875C158.319 501.197 158.554 501.469 158.678 501.691C158.801 501.914 158.9 502.199 158.975 502.545C159.049 502.891 159.098 503.299 159.123 503.77C159.173 504.24 159.197 504.821 159.197 505.514C159.197 506.256 159.173 506.887 159.123 507.406C159.074 507.926 158.987 508.346 158.863 508.668C158.74 508.99 158.591 509.225 158.418 509.373C158.245 509.521 158.047 509.596 157.824 509.596C157.453 509.596 156.983 509.385 156.414 508.965C155.845 508.52 155.103 508.037 154.188 507.518C153.297 506.973 152.221 506.491 150.959 506.07C149.722 505.625 148.238 505.402 146.506 505.402C144.601 505.402 142.894 505.798 141.385 506.59C139.9 507.357 138.626 508.47 137.562 509.93C136.523 511.365 135.732 513.109 135.188 515.162C134.643 517.215 134.371 519.529 134.371 522.102C134.371 524.922 134.656 527.371 135.225 529.449C135.818 531.503 136.647 533.197 137.711 534.533C138.799 535.869 140.098 536.871 141.607 537.539C143.141 538.182 144.861 538.504 146.766 538.504C148.497 538.504 149.994 538.306 151.256 537.91C152.518 537.49 153.594 537.032 154.484 536.537C155.4 536.042 156.142 535.597 156.711 535.201C157.305 534.805 157.762 534.607 158.084 534.607C158.331 534.607 158.529 534.657 158.678 534.756C158.826 534.855 158.95 535.053 159.049 535.35C159.148 535.646 159.222 536.067 159.271 536.611C159.321 537.131 159.346 537.836 159.346 538.727ZM199.275 527.854C199.275 530.674 198.904 533.247 198.162 535.572C197.42 537.898 196.294 539.902 194.785 541.584C193.276 543.266 191.383 544.565 189.107 545.48C186.831 546.396 184.172 546.854 181.129 546.854C178.185 546.854 175.624 546.445 173.447 545.629C171.27 544.812 169.464 543.625 168.029 542.066C166.594 540.508 165.531 538.59 164.838 536.314C164.145 534.038 163.799 531.441 163.799 528.521C163.799 525.701 164.17 523.128 164.912 520.803C165.679 518.452 166.817 516.449 168.326 514.791C169.835 513.109 171.715 511.81 173.967 510.895C176.243 509.979 178.902 509.521 181.945 509.521C184.914 509.521 187.487 509.93 189.664 510.746C191.841 511.538 193.635 512.713 195.045 514.271C196.48 515.83 197.544 517.747 198.236 520.023C198.929 522.299 199.275 524.91 199.275 527.854ZM189.664 528.225C189.664 526.592 189.528 525.095 189.256 523.734C189.008 522.349 188.576 521.149 187.957 520.135C187.339 519.12 186.51 518.329 185.471 517.76C184.456 517.191 183.17 516.906 181.611 516.906C180.226 516.906 179.014 517.166 177.975 517.686C176.936 518.18 176.082 518.923 175.414 519.912C174.746 520.877 174.239 522.052 173.893 523.438C173.571 524.798 173.41 526.357 173.41 528.113C173.41 529.746 173.546 531.255 173.818 532.641C174.09 534.001 174.523 535.189 175.117 536.203C175.736 537.217 176.564 538.009 177.604 538.578C178.643 539.122 179.929 539.395 181.463 539.395C182.873 539.395 184.098 539.147 185.137 538.652C186.176 538.133 187.029 537.391 187.697 536.426C188.365 535.461 188.86 534.298 189.182 532.938C189.503 531.552 189.664 529.981 189.664 528.225ZM216.049 544.738C216.049 544.986 215.975 545.208 215.826 545.406C215.678 545.579 215.418 545.728 215.047 545.852C214.701 545.975 214.23 546.062 213.637 546.111C213.043 546.186 212.288 546.223 211.373 546.223C210.458 546.223 209.703 546.186 209.109 546.111C208.516 546.062 208.033 545.975 207.662 545.852C207.316 545.728 207.068 545.579 206.92 545.406C206.771 545.208 206.697 544.986 206.697 544.738V495.939C206.697 495.692 206.771 495.469 206.92 495.271C207.068 495.074 207.316 494.913 207.662 494.789C208.033 494.641 208.516 494.529 209.109 494.455C209.703 494.381 210.458 494.344 211.373 494.344C212.288 494.344 213.043 494.381 213.637 494.455C214.23 494.529 214.701 494.641 215.047 494.789C215.418 494.913 215.678 495.074 215.826 495.271C215.975 495.469 216.049 495.692 216.049 495.939V544.738ZM253.604 544.85C253.604 545.196 253.48 545.468 253.232 545.666C252.985 545.864 252.589 546 252.045 546.074C251.525 546.173 250.746 546.223 249.707 546.223C248.594 546.223 247.777 546.173 247.258 546.074C246.763 546 246.404 545.864 246.182 545.666C245.984 545.468 245.885 545.196 245.885 544.85V542.215C244.524 543.674 242.965 544.812 241.209 545.629C239.477 546.445 237.548 546.854 235.42 546.854C233.663 546.854 232.043 546.618 230.559 546.148C229.099 545.703 227.825 545.035 226.736 544.145C225.673 543.229 224.844 542.104 224.25 540.768C223.656 539.432 223.359 537.873 223.359 536.092C223.359 534.162 223.73 532.492 224.473 531.082C225.24 529.647 226.365 528.472 227.85 527.557C229.359 526.617 231.227 525.924 233.453 525.479C235.68 525.033 238.265 524.811 241.209 524.811H244.438V522.807C244.438 521.768 244.326 520.865 244.104 520.098C243.906 519.306 243.559 518.65 243.064 518.131C242.594 517.611 241.951 517.228 241.135 516.98C240.343 516.733 239.354 516.609 238.166 516.609C236.607 516.609 235.21 516.783 233.973 517.129C232.76 517.475 231.684 517.859 230.744 518.279C229.804 518.7 229.012 519.083 228.369 519.43C227.751 519.776 227.243 519.949 226.848 519.949C226.576 519.949 226.328 519.863 226.105 519.689C225.908 519.516 225.734 519.269 225.586 518.947C225.462 518.626 225.363 518.23 225.289 517.76C225.215 517.29 225.178 516.77 225.178 516.201C225.178 515.434 225.24 514.828 225.363 514.383C225.487 513.938 225.722 513.542 226.068 513.195C226.415 512.824 227.021 512.428 227.887 512.008C228.753 511.562 229.767 511.154 230.93 510.783C232.092 510.412 233.354 510.115 234.715 509.893C236.1 509.645 237.523 509.521 238.982 509.521C241.58 509.521 243.794 509.781 245.625 510.301C247.48 510.796 249.002 511.575 250.189 512.639C251.377 513.678 252.243 515.026 252.787 516.684C253.331 518.341 253.604 520.308 253.604 522.584V544.85ZM244.438 530.674H240.875C239.366 530.674 238.079 530.785 237.016 531.008C235.952 531.23 235.086 531.564 234.418 532.01C233.75 532.455 233.255 532.999 232.934 533.643C232.637 534.261 232.488 534.979 232.488 535.795C232.488 537.18 232.921 538.269 233.787 539.061C234.678 539.852 235.902 540.248 237.461 540.248C238.772 540.248 239.972 539.914 241.061 539.246C242.174 538.578 243.299 537.601 244.438 536.314V530.674ZM296.279 527.742C296.279 530.686 295.958 533.333 295.314 535.684C294.671 538.034 293.743 540.038 292.531 541.695C291.319 543.353 289.822 544.627 288.041 545.518C286.285 546.408 284.281 546.854 282.029 546.854C280.916 546.854 279.877 546.742 278.912 546.52C277.947 546.322 277.02 545.988 276.129 545.518C275.263 545.048 274.397 544.454 273.531 543.736C272.69 543.019 271.824 542.153 270.934 541.139V544.738C270.934 545.01 270.859 545.245 270.711 545.443C270.587 545.617 270.365 545.765 270.043 545.889C269.746 546.012 269.338 546.099 268.818 546.148C268.299 546.198 267.668 546.223 266.926 546.223C266.159 546.223 265.516 546.198 264.996 546.148C264.501 546.099 264.093 546.012 263.771 545.889C263.475 545.765 263.264 545.617 263.141 545.443C263.017 545.245 262.955 545.01 262.955 544.738V495.939C262.955 495.692 263.029 495.469 263.178 495.271C263.326 495.074 263.574 494.913 263.92 494.789C264.291 494.641 264.773 494.529 265.367 494.455C265.961 494.381 266.715 494.344 267.631 494.344C268.546 494.344 269.301 494.381 269.895 494.455C270.488 494.529 270.958 494.641 271.305 494.789C271.676 494.913 271.936 495.074 272.084 495.271C272.232 495.469 272.307 495.692 272.307 495.939V514.234C273.148 513.393 273.989 512.676 274.83 512.082C275.671 511.488 276.512 511.006 277.354 510.635C278.195 510.239 279.061 509.954 279.951 509.781C280.842 509.608 281.782 509.521 282.771 509.521C285.221 509.521 287.299 510.016 289.006 511.006C290.713 511.971 292.098 513.282 293.162 514.939C294.251 516.597 295.042 518.539 295.537 520.766C296.032 522.967 296.279 525.293 296.279 527.742ZM286.594 528.41C286.594 527 286.482 525.639 286.26 524.328C286.062 523.017 285.703 521.854 285.184 520.84C284.664 519.826 283.984 519.021 283.143 518.428C282.326 517.809 281.287 517.5 280.025 517.5C279.407 517.5 278.801 517.587 278.207 517.76C277.613 517.933 276.995 518.23 276.352 518.65C275.733 519.071 275.09 519.615 274.422 520.283C273.754 520.951 273.049 521.78 272.307 522.77V533.754C273.618 535.436 274.867 536.723 276.055 537.613C277.267 538.479 278.529 538.912 279.84 538.912C281.052 538.912 282.079 538.603 282.92 537.984C283.761 537.366 284.454 536.562 284.998 535.572C285.567 534.583 285.975 533.457 286.223 532.195C286.47 530.934 286.594 529.672 286.594 528.41Z" fill="#282C34"/>
</svg>
