<svg width="420" height="600" viewBox="0 0 420 600" fill="none" xmlns="http://www.w3.org/2000/svg">
<rect width="420" height="600" rx="40" fill="#ED8A01"/>
<rect x="24" y="24" width="372" height="430" rx="24" fill="#282C34"/>
<path d="M126.078 201.477C140.04 164.344 175.665 137.888 217.539 137.888C259.414 137.888 295.038 164.344 309 201.477C290.359 181.798 256.427 168.585 217.539 168.585C178.652 168.585 144.719 181.798 126.078 201.477ZM217.539 303.637C178.652 303.637 144.719 290.424 126.078 270.745C140.04 307.872 175.665 334.328 217.539 334.328C259.414 334.328 295.038 307.872 309 270.74C290.359 290.418 256.427 303.637 217.539 303.637Z" fill="url(#paint0_linear_2_39)"/>
<path d="M306.813 124.854C306.813 133.607 299.746 140.708 291.021 140.708C282.296 140.708 275.229 133.613 275.229 124.854C275.229 116.095 282.302 109 291.021 109C299.74 109 306.813 116.095 306.813 124.854ZM142.584 330.948C132.121 330.948 123.633 339.465 123.633 349.974C123.633 360.478 132.116 369 142.584 369C153.053 369 161.536 360.484 161.536 349.974C161.53 339.465 153.047 330.948 142.584 330.948ZM123.633 134.364C116.657 134.364 111 140.043 111 147.046C111 154.048 116.657 159.728 123.633 159.728C130.608 159.728 136.265 154.048 136.265 147.046C136.265 140.043 130.608 134.364 123.633 134.364Z" fill="url(#paint1_linear_2_39)"/>
<path d="M108.203 532.938C108.203 535.229 107.982 537.299 107.539 539.148C107.122 540.971 106.393 542.534 105.352 543.836C104.336 545.112 102.995 546.089 101.328 546.766C99.6615 547.443 97.6042 547.781 95.1562 547.781C94.375 547.781 93.5938 547.716 92.8125 547.586C92.0573 547.482 91.3542 547.339 90.7031 547.156C90.0781 546.974 89.5312 546.779 89.0625 546.57C88.5938 546.362 88.2812 546.18 88.125 546.023C87.9688 545.841 87.8385 545.659 87.7344 545.477C87.6302 545.294 87.5391 545.06 87.4609 544.773C87.3828 544.461 87.3307 544.083 87.3047 543.641C87.2786 543.198 87.2656 542.638 87.2656 541.961C87.2656 541.076 87.2786 540.333 87.3047 539.734C87.3568 539.109 87.4219 538.628 87.5 538.289C87.6042 537.924 87.7344 537.677 87.8906 537.547C88.0729 537.391 88.2943 537.312 88.5547 537.312C88.7891 537.312 89.0625 537.404 89.375 537.586C89.6875 537.742 90.0391 537.911 90.4297 538.094C90.8203 538.276 91.276 538.458 91.7969 538.641C92.3177 538.797 92.9297 538.875 93.6328 538.875C94.3359 538.875 94.9479 538.784 95.4688 538.602C96.0156 538.393 96.4583 538.055 96.7969 537.586C97.1615 537.091 97.4349 536.44 97.6172 535.633C97.7995 534.826 97.8906 533.784 97.8906 532.508V497.781C97.8906 497.521 97.9688 497.299 98.125 497.117C98.3073 496.909 98.5807 496.74 98.9453 496.609C99.3359 496.479 99.8698 496.388 100.547 496.336C101.224 496.258 102.057 496.219 103.047 496.219C104.036 496.219 104.857 496.258 105.508 496.336C106.159 496.388 106.68 496.479 107.07 496.609C107.487 496.74 107.773 496.909 107.93 497.117C108.112 497.299 108.203 497.521 108.203 497.781V532.938ZM151.602 545.672C151.602 545.932 151.536 546.167 151.406 546.375C151.276 546.557 151.042 546.714 150.703 546.844C150.391 546.974 149.961 547.065 149.414 547.117C148.893 547.195 148.229 547.234 147.422 547.234C146.562 547.234 145.859 547.195 145.312 547.117C144.792 547.065 144.375 546.974 144.062 546.844C143.75 546.714 143.529 546.557 143.398 546.375C143.268 546.167 143.203 545.932 143.203 545.672V541.648C141.276 543.732 139.31 545.294 137.305 546.336C135.326 547.378 133.268 547.898 131.133 547.898C128.737 547.898 126.719 547.508 125.078 546.727C123.464 545.945 122.148 544.878 121.133 543.523C120.143 542.169 119.427 540.607 118.984 538.836C118.568 537.039 118.359 534.812 118.359 532.156V510.828C118.359 510.568 118.424 510.346 118.555 510.164C118.711 509.956 118.971 509.786 119.336 509.656C119.727 509.526 120.234 509.435 120.859 509.383C121.51 509.305 122.305 509.266 123.242 509.266C124.206 509.266 125 509.305 125.625 509.383C126.25 509.435 126.745 509.526 127.109 509.656C127.5 509.786 127.773 509.956 127.93 510.164C128.086 510.346 128.164 510.568 128.164 510.828V530.516C128.164 532.339 128.281 533.732 128.516 534.695C128.75 535.659 129.102 536.492 129.57 537.195C130.065 537.872 130.677 538.406 131.406 538.797C132.161 539.161 133.034 539.344 134.023 539.344C135.273 539.344 136.523 538.888 137.773 537.977C139.049 537.065 140.404 535.737 141.836 533.992V510.828C141.836 510.568 141.901 510.346 142.031 510.164C142.188 509.956 142.448 509.786 142.812 509.656C143.203 509.526 143.711 509.435 144.336 509.383C144.961 509.305 145.755 509.266 146.719 509.266C147.682 509.266 148.477 509.305 149.102 509.383C149.727 509.435 150.221 509.526 150.586 509.656C150.951 509.786 151.211 509.956 151.367 510.164C151.523 510.346 151.602 510.568 151.602 510.828V545.672ZM196.602 527.742C196.602 530.841 196.263 533.641 195.586 536.141C194.935 538.615 193.971 540.724 192.695 542.469C191.419 544.214 189.831 545.555 187.93 546.492C186.029 547.43 183.854 547.898 181.406 547.898C180.391 547.898 179.453 547.794 178.594 547.586C177.76 547.404 176.94 547.117 176.133 546.727C175.352 546.31 174.57 545.802 173.789 545.203C173.008 544.604 172.201 543.901 171.367 543.094V559.5C171.367 559.76 171.289 559.995 171.133 560.203C170.977 560.411 170.703 560.581 170.312 560.711C169.948 560.867 169.453 560.984 168.828 561.062C168.203 561.141 167.409 561.18 166.445 561.18C165.482 561.18 164.688 561.141 164.062 561.062C163.438 560.984 162.93 560.867 162.539 560.711C162.174 560.581 161.914 560.411 161.758 560.203C161.602 559.995 161.523 559.76 161.523 559.5V510.828C161.523 510.568 161.589 510.346 161.719 510.164C161.849 509.956 162.07 509.786 162.383 509.656C162.721 509.526 163.151 509.435 163.672 509.383C164.219 509.305 164.896 509.266 165.703 509.266C166.484 509.266 167.135 509.305 167.656 509.383C168.203 509.435 168.633 509.526 168.945 509.656C169.284 509.786 169.518 509.956 169.648 510.164C169.779 510.346 169.844 510.568 169.844 510.828V514.93C170.859 513.888 171.849 512.977 172.812 512.195C173.802 511.388 174.805 510.724 175.82 510.203C176.836 509.656 177.878 509.253 178.945 508.992C180.039 508.732 181.198 508.602 182.422 508.602C184.974 508.602 187.148 509.109 188.945 510.125C190.742 511.115 192.201 512.482 193.32 514.227C194.466 515.971 195.299 518.003 195.82 520.32C196.341 522.638 196.602 525.112 196.602 527.742ZM186.367 528.445C186.367 526.961 186.25 525.542 186.016 524.188C185.807 522.807 185.43 521.583 184.883 520.516C184.362 519.448 183.659 518.602 182.773 517.977C181.914 517.326 180.833 517 179.531 517C178.88 517 178.229 517.104 177.578 517.312C176.953 517.495 176.302 517.807 175.625 518.25C174.974 518.693 174.297 519.266 173.594 519.969C172.891 520.672 172.148 521.544 171.367 522.586V534.07C172.747 535.815 174.062 537.169 175.312 538.133C176.562 539.07 177.865 539.539 179.219 539.539C180.495 539.539 181.576 539.214 182.461 538.562C183.372 537.911 184.115 537.065 184.688 536.023C185.26 534.956 185.677 533.758 185.938 532.43C186.224 531.102 186.367 529.773 186.367 528.445ZM224.219 547L220 559.344C219.766 559.995 219.128 560.464 218.086 560.75C217.044 561.036 215.521 561.18 213.516 561.18C212.474 561.18 211.641 561.128 211.016 561.023C210.391 560.945 209.922 560.802 209.609 560.594C209.297 560.385 209.128 560.125 209.102 559.812C209.076 559.5 209.154 559.122 209.336 558.68L213.984 547C213.646 546.844 213.333 546.609 213.047 546.297C212.786 545.958 212.591 545.607 212.461 545.242L200.469 513.211C200.13 512.299 199.961 511.609 199.961 511.141C199.961 510.646 200.117 510.268 200.43 510.008C200.742 509.721 201.263 509.526 201.992 509.422C202.747 509.318 203.737 509.266 204.961 509.266C206.081 509.266 206.966 509.292 207.617 509.344C208.268 509.37 208.776 509.461 209.141 509.617C209.505 509.773 209.779 510.021 209.961 510.359C210.143 510.672 210.326 511.128 210.508 511.727L218.711 535.047H218.828L226.328 511.258C226.484 510.581 226.68 510.138 226.914 509.93C227.174 509.695 227.591 509.526 228.164 509.422C228.737 509.318 229.74 509.266 231.172 509.266C232.292 509.266 233.216 509.318 233.945 509.422C234.701 509.526 235.247 509.721 235.586 510.008C235.951 510.294 236.133 510.685 236.133 511.18C236.133 511.648 236.029 512.208 235.82 512.859L224.219 547ZM262.93 542.234C262.93 543.38 262.852 544.266 262.695 544.891C262.565 545.49 262.383 545.919 262.148 546.18C261.914 546.414 261.562 546.635 261.094 546.844C260.651 547.026 260.117 547.182 259.492 547.312C258.893 547.469 258.229 547.586 257.5 547.664C256.797 547.742 256.081 547.781 255.352 547.781C253.398 547.781 251.706 547.534 250.273 547.039C248.841 546.544 247.656 545.789 246.719 544.773C245.781 543.732 245.091 542.43 244.648 540.867C244.206 539.305 243.984 537.456 243.984 535.32V517.469H239.805C239.31 517.469 238.932 517.169 238.672 516.57C238.411 515.945 238.281 514.917 238.281 513.484C238.281 512.729 238.307 512.091 238.359 511.57C238.438 511.049 238.542 510.646 238.672 510.359C238.802 510.047 238.958 509.826 239.141 509.695C239.349 509.565 239.583 509.5 239.844 509.5H243.984V501.727C243.984 501.466 244.049 501.232 244.18 501.023C244.336 500.815 244.596 500.646 244.961 500.516C245.352 500.359 245.859 500.255 246.484 500.203C247.135 500.125 247.93 500.086 248.867 500.086C249.831 500.086 250.625 500.125 251.25 500.203C251.901 500.255 252.409 500.359 252.773 500.516C253.138 500.646 253.398 500.815 253.555 501.023C253.711 501.232 253.789 501.466 253.789 501.727V509.5H261.367C261.628 509.5 261.849 509.565 262.031 509.695C262.24 509.826 262.409 510.047 262.539 510.359C262.669 510.646 262.76 511.049 262.812 511.57C262.891 512.091 262.93 512.729 262.93 513.484C262.93 514.917 262.799 515.945 262.539 516.57C262.279 517.169 261.901 517.469 261.406 517.469H253.789V533.836C253.789 535.737 254.089 537.169 254.688 538.133C255.286 539.07 256.354 539.539 257.891 539.539C258.411 539.539 258.88 539.5 259.297 539.422C259.714 539.318 260.078 539.214 260.391 539.109C260.729 538.979 261.003 538.875 261.211 538.797C261.445 538.693 261.654 538.641 261.836 538.641C261.992 538.641 262.135 538.693 262.266 538.797C262.422 538.875 262.539 539.057 262.617 539.344C262.695 539.604 262.76 539.969 262.812 540.438C262.891 540.906 262.93 541.505 262.93 542.234ZM301.211 527.234C301.211 528.432 300.938 529.318 300.391 529.891C299.87 530.464 299.141 530.75 298.203 530.75H276.992C276.992 532.234 277.161 533.589 277.5 534.812C277.865 536.01 278.424 537.039 279.18 537.898C279.961 538.732 280.951 539.37 282.148 539.812C283.372 540.255 284.831 540.477 286.523 540.477C288.242 540.477 289.753 540.359 291.055 540.125C292.357 539.865 293.477 539.591 294.414 539.305C295.378 538.992 296.172 538.719 296.797 538.484C297.422 538.224 297.93 538.094 298.32 538.094C298.555 538.094 298.75 538.146 298.906 538.25C299.062 538.328 299.193 538.484 299.297 538.719C299.401 538.953 299.466 539.292 299.492 539.734C299.544 540.151 299.57 540.685 299.57 541.336C299.57 541.909 299.557 542.404 299.531 542.82C299.505 543.211 299.466 543.549 299.414 543.836C299.362 544.122 299.284 544.37 299.18 544.578C299.076 544.76 298.932 544.943 298.75 545.125C298.594 545.307 298.138 545.555 297.383 545.867C296.628 546.18 295.664 546.492 294.492 546.805C293.32 547.091 291.979 547.339 290.469 547.547C288.958 547.781 287.344 547.898 285.625 547.898C282.526 547.898 279.805 547.508 277.461 546.727C275.143 545.945 273.203 544.76 271.641 543.172C270.078 541.583 268.906 539.578 268.125 537.156C267.37 534.734 266.992 531.896 266.992 528.641C266.992 525.542 267.396 522.755 268.203 520.281C269.01 517.781 270.182 515.672 271.719 513.953C273.255 512.208 275.117 510.88 277.305 509.969C279.518 509.057 282.005 508.602 284.766 508.602C287.682 508.602 290.169 509.031 292.227 509.891C294.31 510.75 296.016 511.948 297.344 513.484C298.672 514.995 299.648 516.792 300.273 518.875C300.898 520.958 301.211 523.224 301.211 525.672V527.234ZM291.68 524.422C291.758 521.661 291.198 519.5 290 517.938C288.828 516.349 287.005 515.555 284.531 515.555C283.281 515.555 282.188 515.789 281.25 516.258C280.339 516.727 279.57 517.365 278.945 518.172C278.346 518.953 277.878 519.891 277.539 520.984C277.227 522.052 277.044 523.198 276.992 524.422H291.68ZM331.719 514.07C331.719 515.008 331.693 515.776 331.641 516.375C331.589 516.974 331.51 517.443 331.406 517.781C331.302 518.12 331.159 518.354 330.977 518.484C330.82 518.615 330.612 518.68 330.352 518.68C330.143 518.68 329.909 518.641 329.648 518.562C329.388 518.458 329.089 518.354 328.75 518.25C328.438 518.146 328.086 518.055 327.695 517.977C327.305 517.872 326.875 517.82 326.406 517.82C325.859 517.82 325.312 517.938 324.766 518.172C324.219 518.38 323.646 518.719 323.047 519.188C322.474 519.656 321.862 520.281 321.211 521.062C320.586 521.844 319.909 522.807 319.18 523.953V545.672C319.18 545.932 319.102 546.167 318.945 546.375C318.789 546.557 318.516 546.714 318.125 546.844C317.76 546.974 317.266 547.065 316.641 547.117C316.016 547.195 315.221 547.234 314.258 547.234C313.294 547.234 312.5 547.195 311.875 547.117C311.25 547.065 310.742 546.974 310.352 546.844C309.987 546.714 309.727 546.557 309.57 546.375C309.414 546.167 309.336 545.932 309.336 545.672V510.828C309.336 510.568 309.401 510.346 309.531 510.164C309.661 509.956 309.896 509.786 310.234 509.656C310.573 509.526 311.003 509.435 311.523 509.383C312.07 509.305 312.747 509.266 313.555 509.266C314.388 509.266 315.078 509.305 315.625 509.383C316.172 509.435 316.589 509.526 316.875 509.656C317.188 509.786 317.409 509.956 317.539 510.164C317.669 510.346 317.734 510.568 317.734 510.828V515.164C318.646 513.862 319.505 512.794 320.312 511.961C321.12 511.102 321.888 510.424 322.617 509.93C323.346 509.435 324.076 509.096 324.805 508.914C325.534 508.706 326.263 508.602 326.992 508.602C327.331 508.602 327.695 508.628 328.086 508.68C328.477 508.706 328.88 508.771 329.297 508.875C329.714 508.953 330.078 509.057 330.391 509.188C330.703 509.292 330.924 509.409 331.055 509.539C331.211 509.669 331.315 509.812 331.367 509.969C331.445 510.125 331.51 510.346 331.562 510.633C331.615 510.893 331.654 511.297 331.68 511.844C331.706 512.391 331.719 513.133 331.719 514.07Z" fill="#282C34"/>
<defs>
<linearGradient id="paint0_linear_2_39" x1="167.334" y1="120.455" x2="278.693" y2="325.781" gradientUnits="userSpaceOnUse">
<stop stop-color="#F09701"/>
<stop offset="1" stop-color="#E36001"/>
</linearGradient>
<linearGradient id="paint1_linear_2_39" x1="87.0068" y1="355.423" x2="227.992" y2="104.032" gradientUnits="userSpaceOnUse">
<stop stop-color="#A1AAB3"/>
<stop offset="1" stop-color="#8F979E"/>
</linearGradient>
</defs>
</svg>
