<svg width="420" height="600" viewBox="0 0 420 600" fill="none" xmlns="http://www.w3.org/2000/svg">
<path fill-rule="evenodd" clip-rule="evenodd" d="M40 0H380C402.091 0 420 17.9086 420 40V560C420 582.091 402.091 600 380 600H40C17.9086 600 0 582.091 0 560V40C0 17.9086 17.9086 0 40 0ZM372 24H48C34.7452 24 24 34.7452 24 48V430C24 443.255 34.7452 454 48 454H372C385.255 454 396 443.255 396 430V48C396 34.7452 385.255 24 372 24Z" fill="#ED8A01"/>
<path d="M126.078 201.477C140.04 164.344 175.665 137.888 217.539 137.888C259.414 137.888 295.038 164.344 309 201.477C290.359 181.798 256.427 168.585 217.539 168.585C178.652 168.585 144.719 181.798 126.078 201.477ZM217.539 303.637C178.652 303.637 144.719 290.424 126.078 270.745C140.04 307.872 175.665 334.328 217.539 334.328C259.414 334.328 295.038 307.872 309 270.74C290.359 290.418 256.427 303.637 217.539 303.637Z" fill="url(#paint0_linear_7_27)"/>
<path d="M306.813 124.854C306.813 133.607 299.746 140.708 291.021 140.708C282.296 140.708 275.229 133.613 275.229 124.854C275.229 116.095 282.302 109 291.021 109C299.74 109 306.813 116.095 306.813 124.854ZM142.584 330.948C132.121 330.948 123.633 339.465 123.633 349.974C123.633 360.478 132.116 369 142.584 369C153.053 369 161.536 360.484 161.536 349.974C161.53 339.465 153.047 330.948 142.584 330.948ZM123.633 134.364C116.657 134.364 111 140.043 111 147.046C111 154.048 116.657 159.728 123.633 159.728C130.608 159.728 136.265 154.048 136.265 147.046C136.265 140.043 130.608 134.364 123.633 134.364Z" fill="url(#paint1_linear_7_27)"/>
<path d="M112.793 532.641C112.793 534.818 112.583 536.785 112.162 538.541C111.766 540.273 111.074 541.757 110.084 542.994C109.119 544.206 107.845 545.134 106.262 545.777C104.678 546.421 102.724 546.742 100.398 546.742C99.6562 546.742 98.9141 546.68 98.1719 546.557C97.4544 546.458 96.7865 546.322 96.168 546.148C95.5742 545.975 95.0547 545.79 94.6094 545.592C94.1641 545.394 93.8672 545.221 93.7188 545.072C93.5703 544.899 93.4466 544.726 93.3477 544.553C93.2487 544.38 93.1621 544.157 93.0879 543.885C93.0137 543.588 92.9642 543.229 92.9395 542.809C92.9147 542.388 92.9023 541.856 92.9023 541.213C92.9023 540.372 92.9147 539.667 92.9395 539.098C92.9889 538.504 93.0508 538.046 93.125 537.725C93.224 537.378 93.3477 537.143 93.4961 537.02C93.6693 536.871 93.8796 536.797 94.127 536.797C94.3496 536.797 94.6094 536.883 94.9062 537.057C95.2031 537.205 95.5371 537.366 95.9082 537.539C96.2793 537.712 96.7122 537.885 97.207 538.059C97.7018 538.207 98.2832 538.281 98.9512 538.281C99.6191 538.281 100.201 538.195 100.695 538.021C101.215 537.824 101.635 537.502 101.957 537.057C102.303 536.587 102.563 535.968 102.736 535.201C102.91 534.434 102.996 533.445 102.996 532.232V499.242C102.996 498.995 103.07 498.785 103.219 498.611C103.392 498.413 103.652 498.253 103.998 498.129C104.369 498.005 104.876 497.919 105.52 497.869C106.163 497.795 106.954 497.758 107.895 497.758C108.835 497.758 109.614 497.795 110.232 497.869C110.851 497.919 111.346 498.005 111.717 498.129C112.113 498.253 112.385 498.413 112.533 498.611C112.706 498.785 112.793 498.995 112.793 499.242V532.641ZM154.021 544.738C154.021 544.986 153.96 545.208 153.836 545.406C153.712 545.579 153.49 545.728 153.168 545.852C152.871 545.975 152.463 546.062 151.943 546.111C151.449 546.186 150.818 546.223 150.051 546.223C149.234 546.223 148.566 546.186 148.047 546.111C147.552 546.062 147.156 545.975 146.859 545.852C146.562 545.728 146.352 545.579 146.229 545.406C146.105 545.208 146.043 544.986 146.043 544.738V540.916C144.212 542.895 142.344 544.38 140.439 545.369C138.559 546.359 136.605 546.854 134.576 546.854C132.3 546.854 130.383 546.482 128.824 545.74C127.29 544.998 126.041 543.984 125.076 542.697C124.136 541.411 123.456 539.926 123.035 538.244C122.639 536.537 122.441 534.422 122.441 531.898V511.637C122.441 511.389 122.503 511.179 122.627 511.006C122.775 510.808 123.023 510.647 123.369 510.523C123.74 510.4 124.223 510.313 124.816 510.264C125.435 510.189 126.189 510.152 127.08 510.152C127.995 510.152 128.75 510.189 129.344 510.264C129.938 510.313 130.408 510.4 130.754 510.523C131.125 510.647 131.385 510.808 131.533 511.006C131.682 511.179 131.756 511.389 131.756 511.637V530.34C131.756 532.072 131.867 533.395 132.09 534.311C132.312 535.226 132.646 536.018 133.092 536.686C133.562 537.329 134.143 537.836 134.836 538.207C135.553 538.553 136.382 538.727 137.322 538.727C138.51 538.727 139.697 538.294 140.885 537.428C142.097 536.562 143.383 535.3 144.744 533.643V511.637C144.744 511.389 144.806 511.179 144.93 511.006C145.078 510.808 145.326 510.647 145.672 510.523C146.043 510.4 146.525 510.313 147.119 510.264C147.713 510.189 148.467 510.152 149.383 510.152C150.298 510.152 151.053 510.189 151.646 510.264C152.24 510.313 152.71 510.4 153.057 510.523C153.403 510.647 153.65 510.808 153.799 511.006C153.947 511.179 154.021 511.389 154.021 511.637V544.738ZM196.771 527.705C196.771 530.649 196.45 533.309 195.807 535.684C195.188 538.034 194.273 540.038 193.061 541.695C191.848 543.353 190.339 544.627 188.533 545.518C186.727 546.408 184.661 546.854 182.336 546.854C181.371 546.854 180.48 546.755 179.664 546.557C178.872 546.383 178.093 546.111 177.326 545.74C176.584 545.344 175.842 544.862 175.1 544.293C174.357 543.724 173.59 543.056 172.799 542.289V557.875C172.799 558.122 172.725 558.345 172.576 558.543C172.428 558.741 172.168 558.902 171.797 559.025C171.451 559.174 170.98 559.285 170.387 559.359C169.793 559.434 169.038 559.471 168.123 559.471C167.208 559.471 166.453 559.434 165.859 559.359C165.266 559.285 164.783 559.174 164.412 559.025C164.066 558.902 163.818 558.741 163.67 558.543C163.521 558.345 163.447 558.122 163.447 557.875V511.637C163.447 511.389 163.509 511.179 163.633 511.006C163.757 510.808 163.967 510.647 164.264 510.523C164.585 510.4 164.993 510.313 165.488 510.264C166.008 510.189 166.651 510.152 167.418 510.152C168.16 510.152 168.779 510.189 169.273 510.264C169.793 510.313 170.201 510.4 170.498 510.523C170.82 510.647 171.042 510.808 171.166 511.006C171.29 511.179 171.352 511.389 171.352 511.637V515.533C172.316 514.544 173.257 513.678 174.172 512.936C175.112 512.169 176.064 511.538 177.029 511.043C177.994 510.523 178.984 510.14 179.998 509.893C181.037 509.645 182.138 509.521 183.301 509.521C185.725 509.521 187.791 510.004 189.498 510.969C191.205 511.909 192.59 513.208 193.654 514.865C194.743 516.523 195.535 518.452 196.029 520.654C196.524 522.856 196.771 525.206 196.771 527.705ZM187.049 528.373C187.049 526.963 186.938 525.615 186.715 524.328C186.517 523.017 186.158 521.854 185.639 520.84C185.144 519.826 184.476 519.021 183.635 518.428C182.818 517.809 181.792 517.5 180.555 517.5C179.936 517.5 179.318 517.599 178.699 517.797C178.105 517.97 177.487 518.267 176.844 518.688C176.225 519.108 175.582 519.652 174.914 520.32C174.246 520.988 173.541 521.817 172.799 522.807V533.717C174.11 535.374 175.359 536.661 176.547 537.576C177.734 538.467 178.971 538.912 180.258 538.912C181.47 538.912 182.497 538.603 183.338 537.984C184.204 537.366 184.909 536.562 185.453 535.572C185.997 534.558 186.393 533.42 186.641 532.158C186.913 530.896 187.049 529.635 187.049 528.373ZM223.008 546L219 557.727C218.777 558.345 218.171 558.79 217.182 559.062C216.192 559.335 214.745 559.471 212.84 559.471C211.85 559.471 211.059 559.421 210.465 559.322C209.871 559.248 209.426 559.112 209.129 558.914C208.832 558.716 208.671 558.469 208.646 558.172C208.622 557.875 208.696 557.516 208.869 557.096L213.285 546C212.964 545.852 212.667 545.629 212.395 545.332C212.147 545.01 211.962 544.676 211.838 544.33L200.445 513.9C200.124 513.035 199.963 512.379 199.963 511.934C199.963 511.464 200.111 511.105 200.408 510.857C200.705 510.585 201.2 510.4 201.893 510.301C202.61 510.202 203.55 510.152 204.713 510.152C205.777 510.152 206.618 510.177 207.236 510.227C207.855 510.251 208.337 510.338 208.684 510.486C209.03 510.635 209.29 510.87 209.463 511.191C209.636 511.488 209.809 511.921 209.982 512.49L217.775 534.645H217.887L225.012 512.045C225.16 511.402 225.346 510.981 225.568 510.783C225.816 510.561 226.212 510.4 226.756 510.301C227.3 510.202 228.253 510.152 229.613 510.152C230.677 510.152 231.555 510.202 232.248 510.301C232.965 510.4 233.485 510.585 233.807 510.857C234.153 511.13 234.326 511.501 234.326 511.971C234.326 512.416 234.227 512.948 234.029 513.566L223.008 546ZM259.783 541.473C259.783 542.561 259.709 543.402 259.561 543.996C259.437 544.565 259.264 544.973 259.041 545.221C258.818 545.443 258.484 545.654 258.039 545.852C257.618 546.025 257.111 546.173 256.518 546.297C255.949 546.445 255.318 546.557 254.625 546.631C253.957 546.705 253.277 546.742 252.584 546.742C250.729 546.742 249.12 546.507 247.76 546.037C246.399 545.567 245.273 544.85 244.383 543.885C243.492 542.895 242.837 541.658 242.416 540.174C241.995 538.689 241.785 536.933 241.785 534.904V517.945H237.814C237.344 517.945 236.986 517.661 236.738 517.092C236.491 516.498 236.367 515.521 236.367 514.16C236.367 513.443 236.392 512.837 236.441 512.342C236.516 511.847 236.615 511.464 236.738 511.191C236.862 510.895 237.01 510.684 237.184 510.561C237.382 510.437 237.604 510.375 237.852 510.375H241.785V502.99C241.785 502.743 241.847 502.52 241.971 502.322C242.119 502.124 242.367 501.964 242.713 501.84C243.084 501.691 243.566 501.592 244.16 501.543C244.779 501.469 245.533 501.432 246.424 501.432C247.339 501.432 248.094 501.469 248.688 501.543C249.306 501.592 249.788 501.691 250.135 501.84C250.481 501.964 250.729 502.124 250.877 502.322C251.025 502.52 251.1 502.743 251.1 502.99V510.375H258.299C258.546 510.375 258.757 510.437 258.93 510.561C259.128 510.684 259.288 510.895 259.412 511.191C259.536 511.464 259.622 511.847 259.672 512.342C259.746 512.837 259.783 513.443 259.783 514.16C259.783 515.521 259.66 516.498 259.412 517.092C259.165 517.661 258.806 517.945 258.336 517.945H251.1V533.494C251.1 535.3 251.384 536.661 251.953 537.576C252.522 538.467 253.536 538.912 254.996 538.912C255.491 538.912 255.936 538.875 256.332 538.801C256.728 538.702 257.074 538.603 257.371 538.504C257.693 538.38 257.952 538.281 258.15 538.207C258.373 538.108 258.571 538.059 258.744 538.059C258.893 538.059 259.029 538.108 259.152 538.207C259.301 538.281 259.412 538.454 259.486 538.727C259.561 538.974 259.622 539.32 259.672 539.766C259.746 540.211 259.783 540.78 259.783 541.473ZM296.15 527.223C296.15 528.361 295.891 529.202 295.371 529.746C294.876 530.29 294.184 530.562 293.293 530.562H273.143C273.143 531.973 273.303 533.259 273.625 534.422C273.971 535.56 274.503 536.537 275.221 537.354C275.963 538.145 276.903 538.751 278.041 539.172C279.204 539.592 280.589 539.803 282.197 539.803C283.83 539.803 285.265 539.691 286.502 539.469C287.739 539.221 288.803 538.962 289.693 538.689C290.609 538.393 291.363 538.133 291.957 537.91C292.551 537.663 293.033 537.539 293.404 537.539C293.627 537.539 293.812 537.589 293.961 537.688C294.109 537.762 294.233 537.91 294.332 538.133C294.431 538.355 294.493 538.677 294.518 539.098C294.567 539.493 294.592 540.001 294.592 540.619C294.592 541.163 294.579 541.633 294.555 542.029C294.53 542.4 294.493 542.722 294.443 542.994C294.394 543.266 294.32 543.501 294.221 543.699C294.122 543.872 293.986 544.046 293.812 544.219C293.664 544.392 293.231 544.627 292.514 544.924C291.796 545.221 290.881 545.518 289.768 545.814C288.654 546.087 287.38 546.322 285.945 546.52C284.51 546.742 282.977 546.854 281.344 546.854C278.4 546.854 275.814 546.482 273.588 545.74C271.386 544.998 269.543 543.872 268.059 542.363C266.574 540.854 265.461 538.949 264.719 536.648C264.001 534.348 263.643 531.651 263.643 528.559C263.643 525.615 264.026 522.967 264.793 520.617C265.56 518.242 266.673 516.238 268.133 514.605C269.592 512.948 271.361 511.686 273.439 510.82C275.542 509.954 277.905 509.521 280.527 509.521C283.298 509.521 285.661 509.93 287.615 510.746C289.594 511.562 291.215 512.701 292.477 514.16C293.738 515.595 294.666 517.302 295.26 519.281C295.854 521.26 296.15 523.413 296.15 525.738V527.223ZM287.096 524.551C287.17 521.928 286.638 519.875 285.5 518.391C284.387 516.882 282.655 516.127 280.305 516.127C279.117 516.127 278.078 516.35 277.188 516.795C276.322 517.24 275.592 517.846 274.998 518.613C274.429 519.355 273.984 520.246 273.662 521.285C273.365 522.299 273.192 523.388 273.143 524.551H287.096ZM325.133 514.717C325.133 515.607 325.108 516.337 325.059 516.906C325.009 517.475 324.935 517.921 324.836 518.242C324.737 518.564 324.601 518.786 324.428 518.91C324.279 519.034 324.081 519.096 323.834 519.096C323.636 519.096 323.413 519.059 323.166 518.984C322.919 518.885 322.634 518.786 322.312 518.688C322.016 518.589 321.682 518.502 321.311 518.428C320.939 518.329 320.531 518.279 320.086 518.279C319.566 518.279 319.047 518.391 318.527 518.613C318.008 518.811 317.464 519.133 316.895 519.578C316.35 520.023 315.769 520.617 315.15 521.359C314.557 522.102 313.913 523.017 313.221 524.105V544.738C313.221 544.986 313.146 545.208 312.998 545.406C312.85 545.579 312.59 545.728 312.219 545.852C311.872 545.975 311.402 546.062 310.809 546.111C310.215 546.186 309.46 546.223 308.545 546.223C307.63 546.223 306.875 546.186 306.281 546.111C305.688 546.062 305.205 545.975 304.834 545.852C304.488 545.728 304.24 545.579 304.092 545.406C303.943 545.208 303.869 544.986 303.869 544.738V511.637C303.869 511.389 303.931 511.179 304.055 511.006C304.178 510.808 304.401 510.647 304.723 510.523C305.044 510.4 305.452 510.313 305.947 510.264C306.467 510.189 307.11 510.152 307.877 510.152C308.669 510.152 309.324 510.189 309.844 510.264C310.363 510.313 310.759 510.4 311.031 510.523C311.328 510.647 311.538 510.808 311.662 511.006C311.786 511.179 311.848 511.389 311.848 511.637V515.756C312.714 514.519 313.53 513.505 314.297 512.713C315.064 511.896 315.794 511.253 316.486 510.783C317.179 510.313 317.872 509.992 318.564 509.818C319.257 509.62 319.95 509.521 320.643 509.521C320.964 509.521 321.311 509.546 321.682 509.596C322.053 509.62 322.436 509.682 322.832 509.781C323.228 509.855 323.574 509.954 323.871 510.078C324.168 510.177 324.378 510.288 324.502 510.412C324.65 510.536 324.749 510.672 324.799 510.82C324.873 510.969 324.935 511.179 324.984 511.451C325.034 511.699 325.071 512.082 325.096 512.602C325.12 513.121 325.133 513.826 325.133 514.717Z" fill="#282C34"/>
<defs>
<linearGradient id="paint0_linear_7_27" x1="167.334" y1="120.455" x2="278.693" y2="325.781" gradientUnits="userSpaceOnUse">
<stop stop-color="#F09701"/>
<stop offset="1" stop-color="#E36001"/>
</linearGradient>
<linearGradient id="paint1_linear_7_27" x1="87.0068" y1="355.423" x2="227.992" y2="104.032" gradientUnits="userSpaceOnUse">
<stop stop-color="#A1AAB3"/>
<stop offset="1" stop-color="#8F979E"/>
</linearGradient>
</defs>
</svg>
