<svg width="420" height="600" viewBox="0 0 420 600" fill="none" xmlns="http://www.w3.org/2000/svg">
<rect width="420" height="600" rx="40" fill="#F82929"/>
<rect x="24" y="24" width="372" height="430" rx="24" fill="#282C34"/>
<path d="M107.596 360.018C107.596 360.351 107.789 360.814 108.02 361.045L115.527 368.566C115.762 368.802 116.225 368.992 116.552 368.992H142.24C142.572 368.992 143.034 368.798 143.265 368.566L150.772 361.045C151.008 360.81 151.197 360.347 151.197 360.018V278.355C151.197 278.022 151.394 277.563 151.633 277.336L184.27 246.107C184.509 245.879 184.858 245.913 185.043 246.191L267.501 368.499C267.686 368.773 268.11 369 268.438 369H304.83C305.162 369 305.557 368.76 305.708 368.465L312.312 355.645C312.463 355.351 312.433 354.888 312.244 354.614L215.793 214.545C215.604 214.271 215.642 213.859 215.877 213.623L304.59 125.158C304.826 124.922 305.015 124.463 305.015 124.131V122.498C305.015 122.165 304.906 121.648 304.775 121.34L299.659 109.551C299.528 109.248 299.146 109 298.819 109H262.847C262.515 109 262.053 109.194 261.822 109.425L151.629 220.243C151.394 220.479 151.205 220.399 151.205 220.067V118.403C151.205 118.07 151.02 117.603 150.793 117.359L143.429 109.446C143.202 109.202 142.749 109.004 142.417 109.004H116.552C116.22 109.004 115.767 109.202 115.54 109.446L107.999 117.603C107.772 117.847 107.592 118.314 107.592 118.647V360.018H107.596Z" fill="#F82929"/>
<path d="M162.07 545.477C162.07 545.763 161.992 546.023 161.836 546.258C161.706 546.466 161.432 546.648 161.016 546.805C160.625 546.935 160.078 547.039 159.375 547.117C158.672 547.195 157.786 547.234 156.719 547.234C155.026 547.234 153.802 547.169 153.047 547.039C152.318 546.909 151.784 546.714 151.445 546.453C151.133 546.193 150.885 545.88 150.703 545.516L135.43 521.531V545.516C135.43 545.802 135.352 546.049 135.195 546.258C135.039 546.466 134.766 546.648 134.375 546.805C133.984 546.935 133.464 547.039 132.812 547.117C132.161 547.195 131.328 547.234 130.312 547.234C129.323 547.234 128.49 547.195 127.812 547.117C127.161 547.039 126.641 546.935 126.25 546.805C125.859 546.648 125.573 546.466 125.391 546.258C125.234 546.049 125.156 545.802 125.156 545.516V497.898C125.156 497.612 125.234 497.365 125.391 497.156C125.573 496.948 125.859 496.779 126.25 496.648C126.641 496.518 127.161 496.414 127.812 496.336C128.49 496.258 129.323 496.219 130.312 496.219C131.328 496.219 132.161 496.258 132.812 496.336C133.464 496.414 133.984 496.518 134.375 496.648C134.766 496.779 135.039 496.948 135.195 497.156C135.352 497.365 135.43 497.612 135.43 497.898V519.422L150.234 497.938C150.417 497.599 150.638 497.326 150.898 497.117C151.159 496.883 151.497 496.701 151.914 496.57C152.331 496.44 152.865 496.349 153.516 496.297C154.167 496.245 155 496.219 156.016 496.219C157.057 496.219 157.917 496.258 158.594 496.336C159.271 496.414 159.805 496.531 160.195 496.688C160.612 496.818 160.898 496.987 161.055 497.195C161.211 497.404 161.289 497.638 161.289 497.898C161.289 498.341 161.172 498.797 160.938 499.266C160.703 499.734 160.26 500.477 159.609 501.492L145.742 519.656L160.859 542.508C161.432 543.576 161.771 544.292 161.875 544.656C162.005 544.995 162.07 545.268 162.07 545.477ZM199.023 527.234C199.023 528.432 198.75 529.318 198.203 529.891C197.682 530.464 196.953 530.75 196.016 530.75H174.805C174.805 532.234 174.974 533.589 175.312 534.812C175.677 536.01 176.237 537.039 176.992 537.898C177.773 538.732 178.763 539.37 179.961 539.812C181.185 540.255 182.643 540.477 184.336 540.477C186.055 540.477 187.565 540.359 188.867 540.125C190.169 539.865 191.289 539.591 192.227 539.305C193.19 538.992 193.984 538.719 194.609 538.484C195.234 538.224 195.742 538.094 196.133 538.094C196.367 538.094 196.562 538.146 196.719 538.25C196.875 538.328 197.005 538.484 197.109 538.719C197.214 538.953 197.279 539.292 197.305 539.734C197.357 540.151 197.383 540.685 197.383 541.336C197.383 541.909 197.37 542.404 197.344 542.82C197.318 543.211 197.279 543.549 197.227 543.836C197.174 544.122 197.096 544.37 196.992 544.578C196.888 544.76 196.745 544.943 196.562 545.125C196.406 545.307 195.951 545.555 195.195 545.867C194.44 546.18 193.477 546.492 192.305 546.805C191.133 547.091 189.792 547.339 188.281 547.547C186.771 547.781 185.156 547.898 183.438 547.898C180.339 547.898 177.617 547.508 175.273 546.727C172.956 545.945 171.016 544.76 169.453 543.172C167.891 541.583 166.719 539.578 165.938 537.156C165.182 534.734 164.805 531.896 164.805 528.641C164.805 525.542 165.208 522.755 166.016 520.281C166.823 517.781 167.995 515.672 169.531 513.953C171.068 512.208 172.93 510.88 175.117 509.969C177.331 509.057 179.818 508.602 182.578 508.602C185.495 508.602 187.982 509.031 190.039 509.891C192.122 510.75 193.828 511.948 195.156 513.484C196.484 514.995 197.461 516.792 198.086 518.875C198.711 520.958 199.023 523.224 199.023 525.672V527.234ZM189.492 524.422C189.57 521.661 189.01 519.5 187.812 517.938C186.641 516.349 184.818 515.555 182.344 515.555C181.094 515.555 180 515.789 179.062 516.258C178.151 516.727 177.383 517.365 176.758 518.172C176.159 518.953 175.69 519.891 175.352 520.984C175.039 522.052 174.857 523.198 174.805 524.422H189.492ZM229.531 514.07C229.531 515.008 229.505 515.776 229.453 516.375C229.401 516.974 229.323 517.443 229.219 517.781C229.115 518.12 228.971 518.354 228.789 518.484C228.633 518.615 228.424 518.68 228.164 518.68C227.956 518.68 227.721 518.641 227.461 518.562C227.201 518.458 226.901 518.354 226.562 518.25C226.25 518.146 225.898 518.055 225.508 517.977C225.117 517.872 224.688 517.82 224.219 517.82C223.672 517.82 223.125 517.938 222.578 518.172C222.031 518.38 221.458 518.719 220.859 519.188C220.286 519.656 219.674 520.281 219.023 521.062C218.398 521.844 217.721 522.807 216.992 523.953V545.672C216.992 545.932 216.914 546.167 216.758 546.375C216.602 546.557 216.328 546.714 215.938 546.844C215.573 546.974 215.078 547.065 214.453 547.117C213.828 547.195 213.034 547.234 212.07 547.234C211.107 547.234 210.312 547.195 209.688 547.117C209.062 547.065 208.555 546.974 208.164 546.844C207.799 546.714 207.539 546.557 207.383 546.375C207.227 546.167 207.148 545.932 207.148 545.672V510.828C207.148 510.568 207.214 510.346 207.344 510.164C207.474 509.956 207.708 509.786 208.047 509.656C208.385 509.526 208.815 509.435 209.336 509.383C209.883 509.305 210.56 509.266 211.367 509.266C212.201 509.266 212.891 509.305 213.438 509.383C213.984 509.435 214.401 509.526 214.688 509.656C215 509.786 215.221 509.956 215.352 510.164C215.482 510.346 215.547 510.568 215.547 510.828V515.164C216.458 513.862 217.318 512.794 218.125 511.961C218.932 511.102 219.701 510.424 220.43 509.93C221.159 509.435 221.888 509.096 222.617 508.914C223.346 508.706 224.076 508.602 224.805 508.602C225.143 508.602 225.508 508.628 225.898 508.68C226.289 508.706 226.693 508.771 227.109 508.875C227.526 508.953 227.891 509.057 228.203 509.188C228.516 509.292 228.737 509.409 228.867 509.539C229.023 509.669 229.128 509.812 229.18 509.969C229.258 510.125 229.323 510.346 229.375 510.633C229.427 510.893 229.466 511.297 229.492 511.844C229.518 512.391 229.531 513.133 229.531 514.07ZM263.477 545.789C263.477 546.154 263.346 546.44 263.086 546.648C262.826 546.857 262.409 547 261.836 547.078C261.289 547.182 260.469 547.234 259.375 547.234C258.203 547.234 257.344 547.182 256.797 547.078C256.276 547 255.898 546.857 255.664 546.648C255.456 546.44 255.352 546.154 255.352 545.789V543.016C253.919 544.552 252.279 545.75 250.43 546.609C248.607 547.469 246.576 547.898 244.336 547.898C242.487 547.898 240.781 547.651 239.219 547.156C237.682 546.688 236.341 545.984 235.195 545.047C234.076 544.083 233.203 542.898 232.578 541.492C231.953 540.086 231.641 538.445 231.641 536.57C231.641 534.539 232.031 532.781 232.812 531.297C233.62 529.786 234.805 528.549 236.367 527.586C237.956 526.596 239.922 525.867 242.266 525.398C244.609 524.93 247.331 524.695 250.43 524.695H253.828V522.586C253.828 521.492 253.711 520.542 253.477 519.734C253.268 518.901 252.904 518.211 252.383 517.664C251.888 517.117 251.211 516.714 250.352 516.453C249.518 516.193 248.477 516.062 247.227 516.062C245.586 516.062 244.115 516.245 242.812 516.609C241.536 516.974 240.404 517.378 239.414 517.82C238.424 518.263 237.591 518.667 236.914 519.031C236.263 519.396 235.729 519.578 235.312 519.578C235.026 519.578 234.766 519.487 234.531 519.305C234.323 519.122 234.141 518.862 233.984 518.523C233.854 518.185 233.75 517.768 233.672 517.273C233.594 516.779 233.555 516.232 233.555 515.633C233.555 514.826 233.62 514.188 233.75 513.719C233.88 513.25 234.128 512.833 234.492 512.469C234.857 512.078 235.495 511.661 236.406 511.219C237.318 510.75 238.385 510.32 239.609 509.93C240.833 509.539 242.161 509.227 243.594 508.992C245.052 508.732 246.549 508.602 248.086 508.602C250.82 508.602 253.151 508.875 255.078 509.422C257.031 509.943 258.633 510.763 259.883 511.883C261.133 512.977 262.044 514.396 262.617 516.141C263.19 517.885 263.477 519.956 263.477 522.352V545.789ZM253.828 530.867H250.078C248.49 530.867 247.135 530.984 246.016 531.219C244.896 531.453 243.984 531.805 243.281 532.273C242.578 532.742 242.057 533.315 241.719 533.992C241.406 534.643 241.25 535.398 241.25 536.258C241.25 537.716 241.706 538.862 242.617 539.695C243.555 540.529 244.844 540.945 246.484 540.945C247.865 540.945 249.128 540.594 250.273 539.891C251.445 539.188 252.63 538.159 253.828 536.805V530.867ZM297.852 535.828C297.852 537.807 297.474 539.552 296.719 541.062C295.99 542.573 294.948 543.836 293.594 544.852C292.24 545.867 290.638 546.622 288.789 547.117C286.94 547.638 284.935 547.898 282.773 547.898C281.471 547.898 280.221 547.794 279.023 547.586C277.852 547.404 276.797 547.169 275.859 546.883C274.922 546.57 274.141 546.258 273.516 545.945C272.891 545.633 272.435 545.346 272.148 545.086C271.862 544.799 271.641 544.37 271.484 543.797C271.328 543.198 271.25 542.326 271.25 541.18C271.25 540.424 271.276 539.826 271.328 539.383C271.38 538.914 271.458 538.549 271.562 538.289C271.667 538.003 271.797 537.82 271.953 537.742C272.109 537.638 272.305 537.586 272.539 537.586C272.826 537.586 273.242 537.755 273.789 538.094C274.362 538.406 275.065 538.758 275.898 539.148C276.732 539.539 277.695 539.904 278.789 540.242C279.909 540.581 281.172 540.75 282.578 540.75C283.464 540.75 284.245 540.659 284.922 540.477C285.625 540.294 286.224 540.034 286.719 539.695C287.24 539.357 287.63 538.927 287.891 538.406C288.151 537.885 288.281 537.286 288.281 536.609C288.281 535.828 288.034 535.164 287.539 534.617C287.07 534.044 286.432 533.549 285.625 533.133C284.844 532.716 283.945 532.326 282.93 531.961C281.94 531.596 280.911 531.193 279.844 530.75C278.802 530.307 277.773 529.799 276.758 529.227C275.768 528.654 274.87 527.951 274.062 527.117C273.281 526.284 272.643 525.281 272.148 524.109C271.68 522.938 271.445 521.531 271.445 519.891C271.445 518.224 271.771 516.701 272.422 515.32C273.073 513.914 274.01 512.716 275.234 511.727C276.458 510.737 277.943 509.969 279.688 509.422C281.458 508.875 283.438 508.602 285.625 508.602C286.719 508.602 287.773 508.68 288.789 508.836C289.831 508.992 290.768 509.188 291.602 509.422C292.435 509.656 293.138 509.917 293.711 510.203C294.284 510.464 294.688 510.698 294.922 510.906C295.182 511.089 295.365 511.284 295.469 511.492C295.573 511.674 295.651 511.909 295.703 512.195C295.755 512.456 295.794 512.794 295.82 513.211C295.872 513.602 295.898 514.096 295.898 514.695C295.898 515.398 295.872 515.971 295.82 516.414C295.794 516.857 295.729 517.208 295.625 517.469C295.547 517.729 295.43 517.911 295.273 518.016C295.117 518.094 294.935 518.133 294.727 518.133C294.492 518.133 294.128 518.003 293.633 517.742C293.138 517.456 292.513 517.156 291.758 516.844C291.029 516.531 290.169 516.245 289.18 515.984C288.216 515.698 287.109 515.555 285.859 515.555C284.974 515.555 284.206 515.646 283.555 515.828C282.904 516.01 282.37 516.271 281.953 516.609C281.536 516.948 281.224 517.352 281.016 517.82C280.807 518.263 280.703 518.745 280.703 519.266C280.703 520.073 280.951 520.75 281.445 521.297C281.94 521.844 282.591 522.326 283.398 522.742C284.206 523.159 285.117 523.549 286.133 523.914C287.174 524.279 288.216 524.682 289.258 525.125C290.326 525.542 291.367 526.036 292.383 526.609C293.424 527.182 294.349 527.885 295.156 528.719C295.964 529.552 296.615 530.555 297.109 531.727C297.604 532.872 297.852 534.24 297.852 535.828Z" fill="white"/>
</svg>
