<svg width="420" height="600" viewBox="0 0 420 600" fill="none" xmlns="http://www.w3.org/2000/svg">
<path fill-rule="evenodd" clip-rule="evenodd" d="M40 0H380C402.091 0 420 17.9086 420 40V560C420 582.091 402.091 600 380 600H40C17.9086 600 0 582.091 0 560V40C0 17.9086 17.9086 0 40 0ZM372 24H48C34.7452 24 24 34.7452 24 48V430C24 443.255 34.7452 454 48 454H372C385.255 454 396 443.255 396 430V48C396 34.7452 385.255 24 372 24Z" fill="#F82929"/>
<path d="M107.596 360.018C107.596 360.351 107.789 360.814 108.02 361.045L115.527 368.566C115.762 368.802 116.225 368.992 116.552 368.992H142.24C142.572 368.992 143.034 368.798 143.265 368.566L150.772 361.045C151.008 360.81 151.197 360.347 151.197 360.018V278.355C151.197 278.022 151.394 277.563 151.633 277.336L184.27 246.107C184.509 245.879 184.858 245.913 185.043 246.191L267.501 368.499C267.686 368.773 268.11 369 268.438 369H304.83C305.162 369 305.557 368.76 305.708 368.465L312.312 355.645C312.463 355.351 312.433 354.888 312.244 354.614L215.793 214.545C215.604 214.271 215.642 213.859 215.877 213.623L304.59 125.158C304.826 124.922 305.015 124.463 305.015 124.131V122.498C305.015 122.165 304.906 121.648 304.775 121.34L299.659 109.551C299.528 109.248 299.146 109 298.819 109H262.847C262.515 109 262.053 109.194 261.822 109.425L151.629 220.243C151.394 220.479 151.205 220.399 151.205 220.067V118.403C151.205 118.07 151.02 117.603 150.793 117.359L143.429 109.446C143.202 109.202 142.749 109.004 142.417 109.004H116.552C116.22 109.004 115.767 109.202 115.54 109.446L107.999 117.603C107.772 117.847 107.592 118.314 107.592 118.647V360.018H107.596Z" fill="#F82929"/>
<path d="M163.967 544.553C163.967 544.825 163.893 545.072 163.744 545.295C163.62 545.493 163.361 545.666 162.965 545.814C162.594 545.938 162.074 546.037 161.406 546.111C160.738 546.186 159.897 546.223 158.883 546.223C157.275 546.223 156.112 546.161 155.395 546.037C154.702 545.913 154.195 545.728 153.873 545.48C153.576 545.233 153.341 544.936 153.168 544.59L138.658 521.805V544.59C138.658 544.862 138.584 545.097 138.436 545.295C138.287 545.493 138.027 545.666 137.656 545.814C137.285 545.938 136.79 546.037 136.172 546.111C135.553 546.186 134.762 546.223 133.797 546.223C132.857 546.223 132.065 546.186 131.422 546.111C130.803 546.037 130.309 545.938 129.938 545.814C129.566 545.666 129.294 545.493 129.121 545.295C128.973 545.097 128.898 544.862 128.898 544.59V499.354C128.898 499.081 128.973 498.846 129.121 498.648C129.294 498.451 129.566 498.29 129.938 498.166C130.309 498.042 130.803 497.943 131.422 497.869C132.065 497.795 132.857 497.758 133.797 497.758C134.762 497.758 135.553 497.795 136.172 497.869C136.79 497.943 137.285 498.042 137.656 498.166C138.027 498.29 138.287 498.451 138.436 498.648C138.584 498.846 138.658 499.081 138.658 499.354V519.801L152.723 499.391C152.896 499.069 153.106 498.809 153.354 498.611C153.601 498.389 153.923 498.215 154.318 498.092C154.714 497.968 155.221 497.882 155.84 497.832C156.458 497.783 157.25 497.758 158.215 497.758C159.204 497.758 160.021 497.795 160.664 497.869C161.307 497.943 161.814 498.055 162.186 498.203C162.581 498.327 162.854 498.488 163.002 498.686C163.15 498.883 163.225 499.106 163.225 499.354C163.225 499.774 163.113 500.207 162.891 500.652C162.668 501.098 162.247 501.803 161.629 502.768L148.455 520.023L162.816 541.732C163.361 542.747 163.682 543.427 163.781 543.773C163.905 544.095 163.967 544.355 163.967 544.553ZM199.072 527.223C199.072 528.361 198.812 529.202 198.293 529.746C197.798 530.29 197.105 530.562 196.215 530.562H176.064C176.064 531.973 176.225 533.259 176.547 534.422C176.893 535.56 177.425 536.537 178.143 537.354C178.885 538.145 179.825 538.751 180.963 539.172C182.126 539.592 183.511 539.803 185.119 539.803C186.752 539.803 188.187 539.691 189.424 539.469C190.661 539.221 191.725 538.962 192.615 538.689C193.531 538.393 194.285 538.133 194.879 537.91C195.473 537.663 195.955 537.539 196.326 537.539C196.549 537.539 196.734 537.589 196.883 537.688C197.031 537.762 197.155 537.91 197.254 538.133C197.353 538.355 197.415 538.677 197.439 539.098C197.489 539.493 197.514 540.001 197.514 540.619C197.514 541.163 197.501 541.633 197.477 542.029C197.452 542.4 197.415 542.722 197.365 542.994C197.316 543.266 197.242 543.501 197.143 543.699C197.044 543.872 196.908 544.046 196.734 544.219C196.586 544.392 196.153 544.627 195.436 544.924C194.718 545.221 193.803 545.518 192.689 545.814C191.576 546.087 190.302 546.322 188.867 546.52C187.432 546.742 185.898 546.854 184.266 546.854C181.322 546.854 178.736 546.482 176.51 545.74C174.308 544.998 172.465 543.872 170.98 542.363C169.496 540.854 168.383 538.949 167.641 536.648C166.923 534.348 166.564 531.651 166.564 528.559C166.564 525.615 166.948 522.967 167.715 520.617C168.482 518.242 169.595 516.238 171.055 514.605C172.514 512.948 174.283 511.686 176.361 510.82C178.464 509.954 180.827 509.521 183.449 509.521C186.22 509.521 188.583 509.93 190.537 510.746C192.516 511.562 194.137 512.701 195.398 514.16C196.66 515.595 197.588 517.302 198.182 519.281C198.775 521.26 199.072 523.413 199.072 525.738V527.223ZM190.018 524.551C190.092 521.928 189.56 519.875 188.422 518.391C187.309 516.882 185.577 516.127 183.227 516.127C182.039 516.127 181 516.35 180.109 516.795C179.243 517.24 178.514 517.846 177.92 518.613C177.351 519.355 176.906 520.246 176.584 521.285C176.287 522.299 176.114 523.388 176.064 524.551H190.018ZM228.055 514.717C228.055 515.607 228.03 516.337 227.98 516.906C227.931 517.475 227.857 517.921 227.758 518.242C227.659 518.564 227.523 518.786 227.35 518.91C227.201 519.034 227.003 519.096 226.756 519.096C226.558 519.096 226.335 519.059 226.088 518.984C225.84 518.885 225.556 518.786 225.234 518.688C224.938 518.589 224.604 518.502 224.232 518.428C223.861 518.329 223.453 518.279 223.008 518.279C222.488 518.279 221.969 518.391 221.449 518.613C220.93 518.811 220.385 519.133 219.816 519.578C219.272 520.023 218.691 520.617 218.072 521.359C217.479 522.102 216.835 523.017 216.143 524.105V544.738C216.143 544.986 216.068 545.208 215.92 545.406C215.771 545.579 215.512 545.728 215.141 545.852C214.794 545.975 214.324 546.062 213.73 546.111C213.137 546.186 212.382 546.223 211.467 546.223C210.551 546.223 209.797 546.186 209.203 546.111C208.609 546.062 208.127 545.975 207.756 545.852C207.41 545.728 207.162 545.579 207.014 545.406C206.865 545.208 206.791 544.986 206.791 544.738V511.637C206.791 511.389 206.853 511.179 206.977 511.006C207.1 510.808 207.323 510.647 207.645 510.523C207.966 510.4 208.374 510.313 208.869 510.264C209.389 510.189 210.032 510.152 210.799 510.152C211.59 510.152 212.246 510.189 212.766 510.264C213.285 510.313 213.681 510.4 213.953 510.523C214.25 510.647 214.46 510.808 214.584 511.006C214.708 511.179 214.77 511.389 214.77 511.637V515.756C215.635 514.519 216.452 513.505 217.219 512.713C217.986 511.896 218.715 511.253 219.408 510.783C220.101 510.313 220.794 509.992 221.486 509.818C222.179 509.62 222.872 509.521 223.564 509.521C223.886 509.521 224.232 509.546 224.604 509.596C224.975 509.62 225.358 509.682 225.754 509.781C226.15 509.855 226.496 509.954 226.793 510.078C227.09 510.177 227.3 510.288 227.424 510.412C227.572 510.536 227.671 510.672 227.721 510.82C227.795 510.969 227.857 511.179 227.906 511.451C227.956 511.699 227.993 512.082 228.018 512.602C228.042 513.121 228.055 513.826 228.055 514.717ZM260.303 544.85C260.303 545.196 260.179 545.468 259.932 545.666C259.684 545.864 259.288 546 258.744 546.074C258.225 546.173 257.445 546.223 256.406 546.223C255.293 546.223 254.477 546.173 253.957 546.074C253.462 546 253.104 545.864 252.881 545.666C252.683 545.468 252.584 545.196 252.584 544.85V542.215C251.223 543.674 249.665 544.812 247.908 545.629C246.176 546.445 244.247 546.854 242.119 546.854C240.363 546.854 238.742 546.618 237.258 546.148C235.798 545.703 234.524 545.035 233.436 544.145C232.372 543.229 231.543 542.104 230.949 540.768C230.355 539.432 230.059 537.873 230.059 536.092C230.059 534.162 230.43 532.492 231.172 531.082C231.939 529.647 233.064 528.472 234.549 527.557C236.058 526.617 237.926 525.924 240.152 525.479C242.379 525.033 244.964 524.811 247.908 524.811H251.137V522.807C251.137 521.768 251.025 520.865 250.803 520.098C250.605 519.306 250.258 518.65 249.764 518.131C249.294 517.611 248.65 517.228 247.834 516.98C247.042 516.733 246.053 516.609 244.865 516.609C243.307 516.609 241.909 516.783 240.672 517.129C239.46 517.475 238.383 517.859 237.443 518.279C236.503 518.7 235.712 519.083 235.068 519.43C234.45 519.776 233.943 519.949 233.547 519.949C233.275 519.949 233.027 519.863 232.805 519.689C232.607 519.516 232.434 519.269 232.285 518.947C232.161 518.626 232.062 518.23 231.988 517.76C231.914 517.29 231.877 516.77 231.877 516.201C231.877 515.434 231.939 514.828 232.062 514.383C232.186 513.938 232.421 513.542 232.768 513.195C233.114 512.824 233.72 512.428 234.586 512.008C235.452 511.562 236.466 511.154 237.629 510.783C238.792 510.412 240.053 510.115 241.414 509.893C242.799 509.645 244.222 509.521 245.682 509.521C248.279 509.521 250.493 509.781 252.324 510.301C254.18 510.796 255.701 511.575 256.889 512.639C258.076 513.678 258.942 515.026 259.486 516.684C260.031 518.341 260.303 520.308 260.303 522.584V544.85ZM251.137 530.674H247.574C246.065 530.674 244.779 530.785 243.715 531.008C242.651 531.23 241.785 531.564 241.117 532.01C240.449 532.455 239.954 532.999 239.633 533.643C239.336 534.261 239.188 534.979 239.188 535.795C239.188 537.18 239.62 538.269 240.486 539.061C241.377 539.852 242.602 540.248 244.16 540.248C245.471 540.248 246.671 539.914 247.76 539.246C248.873 538.578 249.999 537.601 251.137 536.314V530.674ZM292.959 535.387C292.959 537.267 292.6 538.924 291.883 540.359C291.19 541.794 290.201 542.994 288.914 543.959C287.628 544.924 286.106 545.641 284.35 546.111C282.593 546.606 280.688 546.854 278.635 546.854C277.398 546.854 276.21 546.755 275.072 546.557C273.959 546.383 272.957 546.161 272.066 545.889C271.176 545.592 270.434 545.295 269.84 544.998C269.246 544.701 268.813 544.429 268.541 544.182C268.269 543.91 268.059 543.501 267.91 542.957C267.762 542.388 267.688 541.559 267.688 540.471C267.688 539.753 267.712 539.184 267.762 538.764C267.811 538.318 267.885 537.972 267.984 537.725C268.083 537.452 268.207 537.279 268.355 537.205C268.504 537.106 268.689 537.057 268.912 537.057C269.184 537.057 269.58 537.217 270.1 537.539C270.644 537.836 271.312 538.17 272.104 538.541C272.895 538.912 273.811 539.258 274.85 539.58C275.913 539.902 277.113 540.062 278.449 540.062C279.29 540.062 280.033 539.976 280.676 539.803C281.344 539.63 281.913 539.382 282.383 539.061C282.878 538.739 283.249 538.331 283.496 537.836C283.743 537.341 283.867 536.772 283.867 536.129C283.867 535.387 283.632 534.756 283.162 534.236C282.717 533.692 282.111 533.222 281.344 532.826C280.602 532.43 279.748 532.059 278.783 531.713C277.843 531.367 276.866 530.983 275.852 530.562C274.862 530.142 273.885 529.66 272.92 529.115C271.98 528.571 271.126 527.903 270.359 527.111C269.617 526.32 269.011 525.367 268.541 524.254C268.096 523.141 267.873 521.805 267.873 520.246C267.873 518.663 268.182 517.215 268.801 515.904C269.419 514.568 270.31 513.43 271.473 512.49C272.635 511.55 274.046 510.82 275.703 510.301C277.385 509.781 279.266 509.521 281.344 509.521C282.383 509.521 283.385 509.596 284.35 509.744C285.339 509.893 286.23 510.078 287.021 510.301C287.813 510.523 288.481 510.771 289.025 511.043C289.57 511.29 289.953 511.513 290.176 511.711C290.423 511.884 290.596 512.07 290.695 512.268C290.794 512.441 290.868 512.663 290.918 512.936C290.967 513.183 291.005 513.505 291.029 513.9C291.079 514.271 291.104 514.742 291.104 515.311C291.104 515.979 291.079 516.523 291.029 516.943C291.005 517.364 290.943 517.698 290.844 517.945C290.77 518.193 290.658 518.366 290.51 518.465C290.361 518.539 290.188 518.576 289.99 518.576C289.768 518.576 289.421 518.452 288.951 518.205C288.481 517.933 287.887 517.648 287.17 517.352C286.477 517.055 285.661 516.783 284.721 516.535C283.805 516.263 282.754 516.127 281.566 516.127C280.725 516.127 279.995 516.214 279.377 516.387C278.758 516.56 278.251 516.807 277.855 517.129C277.46 517.451 277.163 517.834 276.965 518.279C276.767 518.7 276.668 519.158 276.668 519.652C276.668 520.419 276.903 521.062 277.373 521.582C277.843 522.102 278.462 522.559 279.229 522.955C279.995 523.351 280.861 523.722 281.826 524.068C282.816 524.415 283.805 524.798 284.795 525.219C285.809 525.615 286.799 526.085 287.764 526.629C288.753 527.173 289.632 527.841 290.398 528.633C291.165 529.424 291.784 530.377 292.254 531.49C292.724 532.579 292.959 533.878 292.959 535.387Z" fill="#282C34"/>
</svg>
