<svg width="420" height="600" viewBox="0 0 420 600" fill="none" xmlns="http://www.w3.org/2000/svg">
<rect width="420" height="600" rx="40" fill="#0177BD"/>
<rect x="24" y="24" width="372" height="430" rx="24" fill="#282C34"/>
<path d="M208.476 109.002C197.92 109.051 187.839 109.956 178.969 111.532C152.839 116.17 148.095 125.876 148.095 143.775V167.415H209.843V175.295H124.921C106.976 175.295 91.262 186.131 86.3469 206.743C80.6774 230.37 80.426 245.113 86.3469 269.783C90.7362 288.146 101.218 301.231 119.164 301.231H140.394V272.892C140.394 252.418 158.029 234.359 178.969 234.359H240.645C257.814 234.359 271.519 220.159 271.519 202.839V143.775C271.519 126.965 257.402 114.338 240.645 111.532C230.038 109.759 219.032 108.953 208.476 109.002ZM175.083 128.015C181.461 128.015 186.67 133.333 186.67 139.871C186.67 146.387 181.461 151.655 175.083 151.655C168.682 151.655 163.496 146.387 163.496 139.871C163.496 133.333 168.682 128.015 175.083 128.015Z" fill="#0177BD"/>
<path d="M279.22 175.295V202.839C279.22 224.193 261.197 242.167 240.645 242.167H178.969C162.075 242.167 148.095 256.691 148.095 273.687V332.751C148.095 349.561 162.646 359.448 178.969 364.271C198.515 370.044 217.259 371.087 240.645 364.271C256.19 359.749 271.519 350.65 271.519 332.751V309.111H209.843V301.231H302.393C320.339 301.231 327.026 288.656 333.267 269.783C339.714 250.353 339.44 231.668 333.267 206.743C328.832 188.797 320.362 175.295 302.393 175.295H279.22ZM244.531 324.871C250.932 324.871 256.118 330.139 256.118 336.654C256.118 343.193 250.932 348.511 244.531 348.511C238.153 348.511 232.945 343.193 232.945 336.654C232.945 330.139 238.153 324.871 244.531 324.871Z" fill="#FEC208"/>
<path d="M131.016 511.805C131.016 514.643 130.573 517.156 129.688 519.344C128.802 521.531 127.513 523.38 125.82 524.891C124.128 526.375 122.044 527.508 119.57 528.289C117.122 529.07 114.232 529.461 110.898 529.461H106.68V545.594C106.68 545.854 106.589 546.089 106.406 546.297C106.25 546.505 105.977 546.674 105.586 546.805C105.195 546.935 104.674 547.039 104.023 547.117C103.372 547.195 102.539 547.234 101.523 547.234C100.534 547.234 99.7005 547.195 99.0234 547.117C98.3724 547.039 97.8516 546.935 97.4609 546.805C97.0703 546.674 96.7969 546.505 96.6406 546.297C96.4844 546.089 96.4062 545.854 96.4062 545.594V500.125C96.4062 498.901 96.7188 497.99 97.3438 497.391C97.9948 496.766 98.8411 496.453 99.8828 496.453H111.797C112.995 496.453 114.128 496.505 115.195 496.609C116.289 496.688 117.591 496.883 119.102 497.195C120.612 497.482 122.135 498.029 123.672 498.836C125.234 499.643 126.562 500.672 127.656 501.922C128.75 503.146 129.583 504.591 130.156 506.258C130.729 507.898 131.016 509.747 131.016 511.805ZM120.273 512.547C120.273 510.776 119.961 509.318 119.336 508.172C118.711 507.026 117.943 506.18 117.031 505.633C116.12 505.086 115.156 504.747 114.141 504.617C113.151 504.461 112.122 504.383 111.055 504.383H106.68V521.531H111.289C112.93 521.531 114.297 521.31 115.391 520.867C116.51 520.424 117.422 519.812 118.125 519.031C118.828 518.224 119.362 517.273 119.727 516.18C120.091 515.06 120.273 513.849 120.273 512.547ZM159.219 547L155 559.344C154.766 559.995 154.128 560.464 153.086 560.75C152.044 561.036 150.521 561.18 148.516 561.18C147.474 561.18 146.641 561.128 146.016 561.023C145.391 560.945 144.922 560.802 144.609 560.594C144.297 560.385 144.128 560.125 144.102 559.812C144.076 559.5 144.154 559.122 144.336 558.68L148.984 547C148.646 546.844 148.333 546.609 148.047 546.297C147.786 545.958 147.591 545.607 147.461 545.242L135.469 513.211C135.13 512.299 134.961 511.609 134.961 511.141C134.961 510.646 135.117 510.268 135.43 510.008C135.742 509.721 136.263 509.526 136.992 509.422C137.747 509.318 138.737 509.266 139.961 509.266C141.081 509.266 141.966 509.292 142.617 509.344C143.268 509.37 143.776 509.461 144.141 509.617C144.505 509.773 144.779 510.021 144.961 510.359C145.143 510.672 145.326 511.128 145.508 511.727L153.711 535.047H153.828L161.328 511.258C161.484 510.581 161.68 510.138 161.914 509.93C162.174 509.695 162.591 509.526 163.164 509.422C163.737 509.318 164.74 509.266 166.172 509.266C167.292 509.266 168.216 509.318 168.945 509.422C169.701 509.526 170.247 509.721 170.586 510.008C170.951 510.294 171.133 510.685 171.133 511.18C171.133 511.648 171.029 512.208 170.82 512.859L159.219 547ZM197.93 542.234C197.93 543.38 197.852 544.266 197.695 544.891C197.565 545.49 197.383 545.919 197.148 546.18C196.914 546.414 196.562 546.635 196.094 546.844C195.651 547.026 195.117 547.182 194.492 547.312C193.893 547.469 193.229 547.586 192.5 547.664C191.797 547.742 191.081 547.781 190.352 547.781C188.398 547.781 186.706 547.534 185.273 547.039C183.841 546.544 182.656 545.789 181.719 544.773C180.781 543.732 180.091 542.43 179.648 540.867C179.206 539.305 178.984 537.456 178.984 535.32V517.469H174.805C174.31 517.469 173.932 517.169 173.672 516.57C173.411 515.945 173.281 514.917 173.281 513.484C173.281 512.729 173.307 512.091 173.359 511.57C173.438 511.049 173.542 510.646 173.672 510.359C173.802 510.047 173.958 509.826 174.141 509.695C174.349 509.565 174.583 509.5 174.844 509.5H178.984V501.727C178.984 501.466 179.049 501.232 179.18 501.023C179.336 500.815 179.596 500.646 179.961 500.516C180.352 500.359 180.859 500.255 181.484 500.203C182.135 500.125 182.93 500.086 183.867 500.086C184.831 500.086 185.625 500.125 186.25 500.203C186.901 500.255 187.409 500.359 187.773 500.516C188.138 500.646 188.398 500.815 188.555 501.023C188.711 501.232 188.789 501.466 188.789 501.727V509.5H196.367C196.628 509.5 196.849 509.565 197.031 509.695C197.24 509.826 197.409 510.047 197.539 510.359C197.669 510.646 197.76 511.049 197.812 511.57C197.891 512.091 197.93 512.729 197.93 513.484C197.93 514.917 197.799 515.945 197.539 516.57C197.279 517.169 196.901 517.469 196.406 517.469H188.789V533.836C188.789 535.737 189.089 537.169 189.688 538.133C190.286 539.07 191.354 539.539 192.891 539.539C193.411 539.539 193.88 539.5 194.297 539.422C194.714 539.318 195.078 539.214 195.391 539.109C195.729 538.979 196.003 538.875 196.211 538.797C196.445 538.693 196.654 538.641 196.836 538.641C196.992 538.641 197.135 538.693 197.266 538.797C197.422 538.875 197.539 539.057 197.617 539.344C197.695 539.604 197.76 539.969 197.812 540.438C197.891 540.906 197.93 541.505 197.93 542.234ZM238.32 545.672C238.32 545.932 238.242 546.167 238.086 546.375C237.93 546.557 237.669 546.714 237.305 546.844C236.94 546.974 236.432 547.065 235.781 547.117C235.156 547.195 234.375 547.234 233.438 547.234C232.474 547.234 231.667 547.195 231.016 547.117C230.391 547.065 229.896 546.974 229.531 546.844C229.167 546.714 228.906 546.557 228.75 546.375C228.594 546.167 228.516 545.932 228.516 545.672V525.789C228.516 524.096 228.385 522.768 228.125 521.805C227.891 520.841 227.539 520.021 227.07 519.344C226.602 518.641 225.99 518.107 225.234 517.742C224.505 517.352 223.646 517.156 222.656 517.156C221.406 517.156 220.143 517.612 218.867 518.523C217.591 519.435 216.263 520.763 214.883 522.508V545.672C214.883 545.932 214.805 546.167 214.648 546.375C214.492 546.557 214.219 546.714 213.828 546.844C213.464 546.974 212.969 547.065 212.344 547.117C211.719 547.195 210.924 547.234 209.961 547.234C208.997 547.234 208.203 547.195 207.578 547.117C206.953 547.065 206.445 546.974 206.055 546.844C205.69 546.714 205.43 546.557 205.273 546.375C205.117 546.167 205.039 545.932 205.039 545.672V494.305C205.039 494.044 205.117 493.81 205.273 493.602C205.43 493.393 205.69 493.224 206.055 493.094C206.445 492.938 206.953 492.82 207.578 492.742C208.203 492.664 208.997 492.625 209.961 492.625C210.924 492.625 211.719 492.664 212.344 492.742C212.969 492.82 213.464 492.938 213.828 493.094C214.219 493.224 214.492 493.393 214.648 493.602C214.805 493.81 214.883 494.044 214.883 494.305V513.562C216.576 511.896 218.294 510.659 220.039 509.852C221.81 509.018 223.646 508.602 225.547 508.602C227.917 508.602 229.909 508.992 231.523 509.773C233.164 510.555 234.479 511.622 235.469 512.977C236.484 514.331 237.214 515.919 237.656 517.742C238.099 519.539 238.32 521.727 238.32 524.305V545.672ZM283.242 527.898C283.242 530.867 282.852 533.576 282.07 536.023C281.289 538.471 280.104 540.581 278.516 542.352C276.927 544.122 274.935 545.49 272.539 546.453C270.143 547.417 267.344 547.898 264.141 547.898C261.042 547.898 258.346 547.469 256.055 546.609C253.763 545.75 251.862 544.5 250.352 542.859C248.841 541.219 247.721 539.201 246.992 536.805C246.263 534.409 245.898 531.674 245.898 528.602C245.898 525.633 246.289 522.924 247.07 520.477C247.878 518.003 249.076 515.893 250.664 514.148C252.253 512.378 254.232 511.01 256.602 510.047C258.997 509.083 261.797 508.602 265 508.602C268.125 508.602 270.833 509.031 273.125 509.891C275.417 510.724 277.305 511.961 278.789 513.602C280.299 515.242 281.419 517.26 282.148 519.656C282.878 522.052 283.242 524.799 283.242 527.898ZM273.125 528.289C273.125 526.57 272.982 524.995 272.695 523.562C272.435 522.104 271.979 520.841 271.328 519.773C270.677 518.706 269.805 517.872 268.711 517.273C267.643 516.674 266.289 516.375 264.648 516.375C263.19 516.375 261.914 516.648 260.82 517.195C259.727 517.716 258.828 518.497 258.125 519.539C257.422 520.555 256.888 521.792 256.523 523.25C256.185 524.682 256.016 526.323 256.016 528.172C256.016 529.891 256.159 531.479 256.445 532.938C256.732 534.37 257.188 535.62 257.812 536.688C258.464 537.755 259.336 538.589 260.43 539.188C261.523 539.76 262.878 540.047 264.492 540.047C265.977 540.047 267.266 539.786 268.359 539.266C269.453 538.719 270.352 537.938 271.055 536.922C271.758 535.906 272.279 534.682 272.617 533.25C272.956 531.792 273.125 530.138 273.125 528.289ZM324.336 545.672C324.336 545.932 324.258 546.167 324.102 546.375C323.945 546.557 323.685 546.714 323.32 546.844C322.956 546.974 322.448 547.065 321.797 547.117C321.172 547.195 320.391 547.234 319.453 547.234C318.49 547.234 317.682 547.195 317.031 547.117C316.406 547.065 315.911 546.974 315.547 546.844C315.182 546.714 314.922 546.557 314.766 546.375C314.609 546.167 314.531 545.932 314.531 545.672V525.789C314.531 524.096 314.401 522.768 314.141 521.805C313.906 520.841 313.555 520.021 313.086 519.344C312.617 518.641 312.005 518.107 311.25 517.742C310.521 517.352 309.661 517.156 308.672 517.156C307.422 517.156 306.159 517.612 304.883 518.523C303.607 519.435 302.279 520.763 300.898 522.508V545.672C300.898 545.932 300.82 546.167 300.664 546.375C300.508 546.557 300.234 546.714 299.844 546.844C299.479 546.974 298.984 547.065 298.359 547.117C297.734 547.195 296.94 547.234 295.977 547.234C295.013 547.234 294.219 547.195 293.594 547.117C292.969 547.065 292.461 546.974 292.07 546.844C291.706 546.714 291.445 546.557 291.289 546.375C291.133 546.167 291.055 545.932 291.055 545.672V510.828C291.055 510.568 291.12 510.346 291.25 510.164C291.38 509.956 291.615 509.786 291.953 509.656C292.292 509.526 292.721 509.435 293.242 509.383C293.789 509.305 294.466 509.266 295.273 509.266C296.107 509.266 296.797 509.305 297.344 509.383C297.891 509.435 298.307 509.526 298.594 509.656C298.906 509.786 299.128 509.956 299.258 510.164C299.388 510.346 299.453 510.568 299.453 510.828V514.852C301.38 512.768 303.333 511.206 305.312 510.164C307.318 509.122 309.401 508.602 311.562 508.602C313.932 508.602 315.924 508.992 317.539 509.773C319.18 510.555 320.495 511.622 321.484 512.977C322.5 514.305 323.229 515.867 323.672 517.664C324.115 519.461 324.336 521.622 324.336 524.148V545.672Z" fill="#282C34"/>
</svg>
