<svg width="420" height="600" viewBox="0 0 420 600" fill="none" xmlns="http://www.w3.org/2000/svg">
<path fill-rule="evenodd" clip-rule="evenodd" d="M40 0H380C402.091 0 420 17.9086 420 40V560C420 582.091 402.091 600 380 600H40C17.9086 600 0 582.091 0 560V40C0 17.9086 17.9086 0 40 0ZM372 24H48C34.7452 24 24 34.7452 24 48V430C24 443.255 34.7452 454 48 454H372C385.255 454 396 443.255 396 430V48C396 34.7452 385.255 24 372 24Z" fill="#0177BD"/>
<path d="M208.476 109.002C197.92 109.051 187.839 109.956 178.969 111.532C152.839 116.17 148.095 125.876 148.095 143.775V167.415H209.843V175.295H124.921C106.976 175.295 91.262 186.131 86.3469 206.743C80.6774 230.37 80.426 245.113 86.3469 269.783C90.7362 288.146 101.218 301.231 119.164 301.231H140.394V272.892C140.394 252.418 158.029 234.359 178.969 234.359H240.645C257.814 234.359 271.519 220.159 271.519 202.839V143.775C271.519 126.965 257.402 114.338 240.645 111.532C230.038 109.759 219.032 108.953 208.476 109.002ZM175.083 128.015C181.461 128.015 186.67 133.333 186.67 139.871C186.67 146.387 181.461 151.655 175.083 151.655C168.682 151.655 163.496 146.387 163.496 139.871C163.496 133.333 168.682 128.015 175.083 128.015Z" fill="#0177BD"/>
<path d="M279.22 175.295V202.839C279.22 224.193 261.197 242.167 240.645 242.167H178.969C162.075 242.167 148.095 256.691 148.095 273.687V332.751C148.095 349.561 162.646 359.448 178.969 364.271C198.515 370.044 217.259 371.087 240.645 364.271C256.19 359.749 271.519 350.65 271.519 332.751V309.111H209.843V301.231H302.393C320.339 301.231 327.026 288.656 333.267 269.783C339.714 250.353 339.44 231.668 333.267 206.743C328.832 188.797 320.362 175.295 302.393 175.295H279.22ZM244.531 324.871C250.932 324.871 256.118 330.139 256.118 336.654C256.118 343.193 250.932 348.511 244.531 348.511C238.153 348.511 232.945 343.193 232.945 336.654C232.945 330.139 238.153 324.871 244.531 324.871Z" fill="#FEC208"/>
<path d="M134.465 512.564C134.465 515.261 134.044 517.648 133.203 519.727C132.362 521.805 131.137 523.561 129.529 524.996C127.921 526.406 125.942 527.482 123.592 528.225C121.266 528.967 118.52 529.338 115.354 529.338H111.346V544.664C111.346 544.911 111.259 545.134 111.086 545.332C110.938 545.53 110.678 545.691 110.307 545.814C109.936 545.938 109.441 546.037 108.822 546.111C108.204 546.186 107.412 546.223 106.447 546.223C105.507 546.223 104.715 546.186 104.072 546.111C103.454 546.037 102.959 545.938 102.588 545.814C102.217 545.691 101.957 545.53 101.809 545.332C101.66 545.134 101.586 544.911 101.586 544.664V501.469C101.586 500.306 101.883 499.44 102.477 498.871C103.095 498.277 103.899 497.98 104.889 497.98H116.207C117.345 497.98 118.421 498.03 119.436 498.129C120.475 498.203 121.712 498.389 123.146 498.686C124.581 498.958 126.029 499.477 127.488 500.244C128.973 501.011 130.234 501.988 131.273 503.176C132.312 504.339 133.104 505.712 133.648 507.295C134.193 508.854 134.465 510.61 134.465 512.564ZM124.26 513.27C124.26 511.587 123.963 510.202 123.369 509.113C122.775 508.025 122.046 507.221 121.18 506.701C120.314 506.182 119.398 505.86 118.434 505.736C117.493 505.588 116.516 505.514 115.502 505.514H111.346V521.805H115.725C117.283 521.805 118.582 521.594 119.621 521.174C120.685 520.753 121.551 520.172 122.219 519.43C122.887 518.663 123.394 517.76 123.74 516.721C124.087 515.657 124.26 514.507 124.26 513.27ZM161.258 546L157.25 557.727C157.027 558.345 156.421 558.79 155.432 559.062C154.442 559.335 152.995 559.471 151.09 559.471C150.1 559.471 149.309 559.421 148.715 559.322C148.121 559.248 147.676 559.112 147.379 558.914C147.082 558.716 146.921 558.469 146.896 558.172C146.872 557.875 146.946 557.516 147.119 557.096L151.535 546C151.214 545.852 150.917 545.629 150.645 545.332C150.397 545.01 150.212 544.676 150.088 544.33L138.695 513.9C138.374 513.035 138.213 512.379 138.213 511.934C138.213 511.464 138.361 511.105 138.658 510.857C138.955 510.585 139.45 510.4 140.143 510.301C140.86 510.202 141.8 510.152 142.963 510.152C144.027 510.152 144.868 510.177 145.486 510.227C146.105 510.251 146.587 510.338 146.934 510.486C147.28 510.635 147.54 510.87 147.713 511.191C147.886 511.488 148.059 511.921 148.232 512.49L156.025 534.645H156.137L163.262 512.045C163.41 511.402 163.596 510.981 163.818 510.783C164.066 510.561 164.462 510.4 165.006 510.301C165.55 510.202 166.503 510.152 167.863 510.152C168.927 510.152 169.805 510.202 170.498 510.301C171.215 510.4 171.735 510.585 172.057 510.857C172.403 511.13 172.576 511.501 172.576 511.971C172.576 512.416 172.477 512.948 172.279 513.566L161.258 546ZM198.033 541.473C198.033 542.561 197.959 543.402 197.811 543.996C197.687 544.565 197.514 544.973 197.291 545.221C197.068 545.443 196.734 545.654 196.289 545.852C195.868 546.025 195.361 546.173 194.768 546.297C194.199 546.445 193.568 546.557 192.875 546.631C192.207 546.705 191.527 546.742 190.834 546.742C188.979 546.742 187.37 546.507 186.01 546.037C184.649 545.567 183.523 544.85 182.633 543.885C181.742 542.895 181.087 541.658 180.666 540.174C180.245 538.689 180.035 536.933 180.035 534.904V517.945H176.064C175.594 517.945 175.236 517.661 174.988 517.092C174.741 516.498 174.617 515.521 174.617 514.16C174.617 513.443 174.642 512.837 174.691 512.342C174.766 511.847 174.865 511.464 174.988 511.191C175.112 510.895 175.26 510.684 175.434 510.561C175.632 510.437 175.854 510.375 176.102 510.375H180.035V502.99C180.035 502.743 180.097 502.52 180.221 502.322C180.369 502.124 180.617 501.964 180.963 501.84C181.334 501.691 181.816 501.592 182.41 501.543C183.029 501.469 183.783 501.432 184.674 501.432C185.589 501.432 186.344 501.469 186.938 501.543C187.556 501.592 188.038 501.691 188.385 501.84C188.731 501.964 188.979 502.124 189.127 502.322C189.275 502.52 189.35 502.743 189.35 502.99V510.375H196.549C196.796 510.375 197.007 510.437 197.18 510.561C197.378 510.684 197.538 510.895 197.662 511.191C197.786 511.464 197.872 511.847 197.922 512.342C197.996 512.837 198.033 513.443 198.033 514.16C198.033 515.521 197.91 516.498 197.662 517.092C197.415 517.661 197.056 517.945 196.586 517.945H189.35V533.494C189.35 535.3 189.634 536.661 190.203 537.576C190.772 538.467 191.786 538.912 193.246 538.912C193.741 538.912 194.186 538.875 194.582 538.801C194.978 538.702 195.324 538.603 195.621 538.504C195.943 538.38 196.202 538.281 196.4 538.207C196.623 538.108 196.821 538.059 196.994 538.059C197.143 538.059 197.279 538.108 197.402 538.207C197.551 538.281 197.662 538.454 197.736 538.727C197.811 538.974 197.872 539.32 197.922 539.766C197.996 540.211 198.033 540.78 198.033 541.473ZM236.404 544.738C236.404 544.986 236.33 545.208 236.182 545.406C236.033 545.579 235.786 545.728 235.439 545.852C235.093 545.975 234.611 546.062 233.992 546.111C233.398 546.186 232.656 546.223 231.766 546.223C230.85 546.223 230.083 546.186 229.465 546.111C228.871 546.062 228.401 545.975 228.055 545.852C227.708 545.728 227.461 545.579 227.312 545.406C227.164 545.208 227.09 544.986 227.09 544.738V525.85C227.09 524.242 226.966 522.98 226.719 522.064C226.496 521.149 226.162 520.37 225.717 519.727C225.271 519.059 224.69 518.551 223.973 518.205C223.28 517.834 222.464 517.648 221.523 517.648C220.336 517.648 219.136 518.081 217.924 518.947C216.712 519.813 215.45 521.075 214.139 522.732V544.738C214.139 544.986 214.064 545.208 213.916 545.406C213.768 545.579 213.508 545.728 213.137 545.852C212.79 545.975 212.32 546.062 211.727 546.111C211.133 546.186 210.378 546.223 209.463 546.223C208.548 546.223 207.793 546.186 207.199 546.111C206.605 546.062 206.123 545.975 205.752 545.852C205.406 545.728 205.158 545.579 205.01 545.406C204.861 545.208 204.787 544.986 204.787 544.738V495.939C204.787 495.692 204.861 495.469 205.01 495.271C205.158 495.074 205.406 494.913 205.752 494.789C206.123 494.641 206.605 494.529 207.199 494.455C207.793 494.381 208.548 494.344 209.463 494.344C210.378 494.344 211.133 494.381 211.727 494.455C212.32 494.529 212.79 494.641 213.137 494.789C213.508 494.913 213.768 495.074 213.916 495.271C214.064 495.469 214.139 495.692 214.139 495.939V514.234C215.747 512.651 217.38 511.476 219.037 510.709C220.719 509.917 222.464 509.521 224.27 509.521C226.521 509.521 228.413 509.893 229.947 510.635C231.506 511.377 232.755 512.391 233.695 513.678C234.66 514.964 235.353 516.473 235.773 518.205C236.194 519.912 236.404 521.99 236.404 524.439V544.738ZM279.08 527.854C279.08 530.674 278.709 533.247 277.967 535.572C277.225 537.898 276.099 539.902 274.59 541.584C273.081 543.266 271.188 544.565 268.912 545.48C266.636 546.396 263.977 546.854 260.934 546.854C257.99 546.854 255.429 546.445 253.252 545.629C251.075 544.812 249.269 543.625 247.834 542.066C246.399 540.508 245.335 538.59 244.643 536.314C243.95 534.038 243.604 531.441 243.604 528.521C243.604 525.701 243.975 523.128 244.717 520.803C245.484 518.452 246.622 516.449 248.131 514.791C249.64 513.109 251.52 511.81 253.771 510.895C256.048 509.979 258.707 509.521 261.75 509.521C264.719 509.521 267.292 509.93 269.469 510.746C271.646 511.538 273.439 512.713 274.85 514.271C276.285 515.83 277.348 517.747 278.041 520.023C278.734 522.299 279.08 524.91 279.08 527.854ZM269.469 528.225C269.469 526.592 269.333 525.095 269.061 523.734C268.813 522.349 268.38 521.149 267.762 520.135C267.143 519.12 266.314 518.329 265.275 517.76C264.261 517.191 262.975 516.906 261.416 516.906C260.031 516.906 258.818 517.166 257.779 517.686C256.74 518.18 255.887 518.923 255.219 519.912C254.551 520.877 254.044 522.052 253.697 523.438C253.376 524.798 253.215 526.357 253.215 528.113C253.215 529.746 253.351 531.255 253.623 532.641C253.895 534.001 254.328 535.189 254.922 536.203C255.54 537.217 256.369 538.009 257.408 538.578C258.447 539.122 259.734 539.395 261.268 539.395C262.678 539.395 263.902 539.147 264.941 538.652C265.98 538.133 266.834 537.391 267.502 536.426C268.17 535.461 268.665 534.298 268.986 532.938C269.308 531.552 269.469 529.981 269.469 528.225ZM318.119 544.738C318.119 544.986 318.045 545.208 317.896 545.406C317.748 545.579 317.501 545.728 317.154 545.852C316.808 545.975 316.326 546.062 315.707 546.111C315.113 546.186 314.371 546.223 313.48 546.223C312.565 546.223 311.798 546.186 311.18 546.111C310.586 546.062 310.116 545.975 309.77 545.852C309.423 545.728 309.176 545.579 309.027 545.406C308.879 545.208 308.805 544.986 308.805 544.738V525.85C308.805 524.242 308.681 522.98 308.434 522.064C308.211 521.149 307.877 520.37 307.432 519.727C306.986 519.059 306.405 518.551 305.688 518.205C304.995 517.834 304.178 517.648 303.238 517.648C302.051 517.648 300.851 518.081 299.639 518.947C298.426 519.813 297.165 521.075 295.854 522.732V544.738C295.854 544.986 295.779 545.208 295.631 545.406C295.482 545.579 295.223 545.728 294.852 545.852C294.505 545.975 294.035 546.062 293.441 546.111C292.848 546.186 292.093 546.223 291.178 546.223C290.262 546.223 289.508 546.186 288.914 546.111C288.32 546.062 287.838 545.975 287.467 545.852C287.12 545.728 286.873 545.579 286.725 545.406C286.576 545.208 286.502 544.986 286.502 544.738V511.637C286.502 511.389 286.564 511.179 286.688 511.006C286.811 510.808 287.034 510.647 287.355 510.523C287.677 510.4 288.085 510.313 288.58 510.264C289.1 510.189 289.743 510.152 290.51 510.152C291.301 510.152 291.957 510.189 292.477 510.264C292.996 510.313 293.392 510.4 293.664 510.523C293.961 510.647 294.171 510.808 294.295 511.006C294.419 511.179 294.48 511.389 294.48 511.637V515.459C296.311 513.48 298.167 511.995 300.047 511.006C301.952 510.016 303.931 509.521 305.984 509.521C308.236 509.521 310.128 509.893 311.662 510.635C313.221 511.377 314.47 512.391 315.41 513.678C316.375 514.939 317.068 516.424 317.488 518.131C317.909 519.838 318.119 521.891 318.119 524.291V544.738Z" fill="#282C34"/>
</svg>
