<svg width="420" height="600" viewBox="0 0 420 600" fill="none" xmlns="http://www.w3.org/2000/svg">
<rect width="420" height="600" rx="40" fill="#FFB300"/>
<rect x="24" y="24" width="372" height="430" rx="24" fill="#282C34"/>
<path d="M157.556 342.788L203.444 369V109L92 173.332V229.033L157.556 191.191V342.788Z" fill="#FFA000"/>
<path d="M216.556 369L262.444 342.788V273.904L288.667 289.039V239.026L262.444 223.887V191.191L328 229.033V173.332L216.556 109V369Z" fill="#FFB300"/>
<path d="M78.75 504.463C78.75 505.124 78.7158 505.693 78.6475 506.172C78.6019 506.628 78.5221 507.004 78.4082 507.3C78.2943 507.573 78.1462 507.778 77.9639 507.915C77.8044 508.052 77.6221 508.12 77.417 508.12H66.3428V543.77C66.3428 543.997 66.263 544.202 66.1035 544.385C65.9668 544.567 65.7275 544.715 65.3857 544.829C65.0439 544.943 64.5768 545.034 63.9844 545.103C63.4147 545.171 62.6969 545.205 61.8311 545.205C60.9652 545.205 60.236 545.171 59.6436 545.103C59.0739 545.034 58.6182 544.943 58.2764 544.829C57.9346 544.715 57.6839 544.567 57.5244 544.385C57.3877 544.202 57.3193 543.997 57.3193 543.77V508.12H46.2451C46.0173 508.12 45.8236 508.052 45.6641 507.915C45.5046 507.778 45.3678 507.573 45.2539 507.3C45.14 507.004 45.0488 506.628 44.9805 506.172C44.9349 505.693 44.9121 505.124 44.9121 504.463C44.9121 503.779 44.9349 503.198 44.9805 502.72C45.0488 502.241 45.14 501.865 45.2539 501.592C45.3678 501.296 45.5046 501.09 45.6641 500.977C45.8236 500.84 46.0173 500.771 46.2451 500.771H77.417C77.6221 500.771 77.8044 500.84 77.9639 500.977C78.1462 501.09 78.2943 501.296 78.4082 501.592C78.5221 501.865 78.6019 502.241 78.6475 502.72C78.7158 503.198 78.75 503.779 78.75 504.463ZM105.547 527.705C105.547 528.753 105.308 529.528 104.829 530.029C104.373 530.531 103.735 530.781 102.915 530.781H84.3555C84.3555 532.08 84.5036 533.265 84.7998 534.336C85.1188 535.384 85.6087 536.284 86.2695 537.036C86.9531 537.765 87.819 538.324 88.8672 538.711C89.9382 539.098 91.2142 539.292 92.6953 539.292C94.1992 539.292 95.5208 539.189 96.6602 538.984C97.7995 538.757 98.7793 538.517 99.5996 538.267C100.443 537.993 101.138 537.754 101.685 537.549C102.231 537.321 102.676 537.207 103.018 537.207C103.223 537.207 103.394 537.253 103.53 537.344C103.667 537.412 103.781 537.549 103.872 537.754C103.963 537.959 104.02 538.255 104.043 538.643C104.089 539.007 104.111 539.474 104.111 540.044C104.111 540.545 104.1 540.978 104.077 541.343C104.054 541.685 104.02 541.981 103.975 542.231C103.929 542.482 103.861 542.699 103.77 542.881C103.678 543.04 103.553 543.2 103.394 543.359C103.257 543.519 102.858 543.735 102.197 544.009C101.536 544.282 100.693 544.556 99.668 544.829C98.6426 545.08 97.4691 545.296 96.1475 545.479C94.8258 545.684 93.4131 545.786 91.9092 545.786C89.1976 545.786 86.8164 545.444 84.7656 544.761C82.7376 544.077 81.04 543.04 79.6729 541.65C78.3057 540.26 77.2803 538.506 76.5967 536.387C75.9359 534.268 75.6055 531.784 75.6055 528.936C75.6055 526.224 75.9587 523.786 76.665 521.621C77.3714 519.434 78.3968 517.588 79.7412 516.084C81.0856 514.557 82.7148 513.395 84.6289 512.598C86.5658 511.8 88.7419 511.401 91.1572 511.401C93.7093 511.401 95.8854 511.777 97.6855 512.529C99.5085 513.281 101.001 514.329 102.163 515.674C103.325 516.995 104.18 518.568 104.727 520.391C105.273 522.214 105.547 524.196 105.547 526.338V527.705ZM97.207 525.244C97.2754 522.829 96.7855 520.938 95.7373 519.57C94.7119 518.18 93.1169 517.485 90.9521 517.485C89.8584 517.485 88.9014 517.69 88.0811 518.101C87.2835 518.511 86.6113 519.069 86.0645 519.775C85.5404 520.459 85.1302 521.279 84.834 522.236C84.5605 523.171 84.401 524.173 84.3555 525.244H97.207ZM141.777 543.838C141.777 544.066 141.709 544.271 141.572 544.453C141.436 544.613 141.208 544.749 140.889 544.863C140.57 544.977 140.125 545.057 139.556 545.103C139.009 545.171 138.325 545.205 137.505 545.205C136.662 545.205 135.955 545.171 135.386 545.103C134.839 545.057 134.406 544.977 134.087 544.863C133.768 544.749 133.54 544.613 133.403 544.453C133.267 544.271 133.198 544.066 133.198 543.838V526.44C133.198 524.959 133.084 523.797 132.856 522.954C132.651 522.111 132.344 521.393 131.934 520.801C131.523 520.186 130.988 519.718 130.327 519.399C129.689 519.058 128.937 518.887 128.071 518.887C126.978 518.887 125.872 519.285 124.756 520.083C123.639 520.881 122.477 522.043 121.27 523.569V543.838C121.27 544.066 121.201 544.271 121.064 544.453C120.928 544.613 120.688 544.749 120.347 544.863C120.028 544.977 119.595 545.057 119.048 545.103C118.501 545.171 117.806 545.205 116.963 545.205C116.12 545.205 115.425 545.171 114.878 545.103C114.331 545.057 113.887 544.977 113.545 544.863C113.226 544.749 112.998 544.613 112.861 544.453C112.725 544.271 112.656 544.066 112.656 543.838V513.35C112.656 513.122 112.713 512.928 112.827 512.769C112.941 512.586 113.146 512.438 113.442 512.324C113.739 512.21 114.115 512.131 114.57 512.085C115.049 512.017 115.641 511.982 116.348 511.982C117.077 511.982 117.681 512.017 118.159 512.085C118.638 512.131 119.002 512.21 119.253 512.324C119.526 512.438 119.72 512.586 119.834 512.769C119.948 512.928 120.005 513.122 120.005 513.35V516.87C121.691 515.047 123.4 513.68 125.132 512.769C126.886 511.857 128.709 511.401 130.601 511.401C132.674 511.401 134.417 511.743 135.83 512.427C137.266 513.11 138.416 514.045 139.282 515.229C140.171 516.392 140.809 517.759 141.196 519.331C141.584 520.903 141.777 522.795 141.777 525.005V543.838ZM171.719 535.225C171.719 536.956 171.388 538.483 170.728 539.805C170.09 541.126 169.178 542.231 167.993 543.12C166.808 544.009 165.407 544.67 163.789 545.103C162.171 545.558 160.417 545.786 158.525 545.786C157.386 545.786 156.292 545.695 155.244 545.513C154.219 545.353 153.296 545.148 152.476 544.897C151.655 544.624 150.972 544.351 150.425 544.077C149.878 543.804 149.479 543.553 149.229 543.325C148.978 543.075 148.784 542.699 148.647 542.197C148.511 541.673 148.442 540.91 148.442 539.907C148.442 539.246 148.465 538.722 148.511 538.335C148.556 537.925 148.625 537.606 148.716 537.378C148.807 537.127 148.921 536.968 149.058 536.899C149.194 536.808 149.365 536.763 149.57 536.763C149.821 536.763 150.186 536.911 150.664 537.207C151.165 537.48 151.781 537.788 152.51 538.13C153.239 538.472 154.082 538.791 155.039 539.087C156.019 539.383 157.124 539.531 158.354 539.531C159.129 539.531 159.813 539.451 160.405 539.292C161.021 539.132 161.545 538.905 161.978 538.608C162.433 538.312 162.775 537.936 163.003 537.48C163.231 537.025 163.345 536.501 163.345 535.908C163.345 535.225 163.128 534.644 162.695 534.165C162.285 533.664 161.727 533.231 161.021 532.866C160.337 532.502 159.551 532.16 158.662 531.841C157.796 531.522 156.896 531.169 155.962 530.781C155.05 530.394 154.15 529.95 153.262 529.448C152.396 528.947 151.61 528.332 150.903 527.603C150.22 526.873 149.661 525.996 149.229 524.971C148.818 523.945 148.613 522.715 148.613 521.279C148.613 519.821 148.898 518.488 149.468 517.28C150.037 516.05 150.858 515.002 151.929 514.136C153 513.27 154.299 512.598 155.825 512.119C157.375 511.641 159.106 511.401 161.021 511.401C161.978 511.401 162.9 511.47 163.789 511.606C164.701 511.743 165.521 511.914 166.25 512.119C166.979 512.324 167.594 512.552 168.096 512.803C168.597 513.031 168.95 513.236 169.155 513.418C169.383 513.577 169.543 513.748 169.634 513.931C169.725 514.09 169.793 514.295 169.839 514.546C169.884 514.774 169.919 515.07 169.941 515.435C169.987 515.776 170.01 516.209 170.01 516.733C170.01 517.349 169.987 517.85 169.941 518.237C169.919 518.625 169.862 518.932 169.771 519.16C169.702 519.388 169.6 519.548 169.463 519.639C169.326 519.707 169.167 519.741 168.984 519.741C168.779 519.741 168.46 519.627 168.027 519.399C167.594 519.149 167.048 518.887 166.387 518.613C165.749 518.34 164.997 518.089 164.131 517.861C163.288 517.611 162.319 517.485 161.226 517.485C160.451 517.485 159.779 517.565 159.209 517.725C158.639 517.884 158.172 518.112 157.808 518.408C157.443 518.704 157.17 519.058 156.987 519.468C156.805 519.855 156.714 520.277 156.714 520.732C156.714 521.439 156.93 522.031 157.363 522.51C157.796 522.988 158.366 523.41 159.072 523.774C159.779 524.139 160.576 524.481 161.465 524.8C162.376 525.119 163.288 525.472 164.199 525.859C165.133 526.224 166.045 526.657 166.934 527.158C167.845 527.66 168.654 528.275 169.36 529.004C170.067 529.733 170.636 530.61 171.069 531.636C171.502 532.638 171.719 533.835 171.719 535.225ZM209.043 528.286C209.043 530.884 208.701 533.254 208.018 535.396C207.334 537.537 206.297 539.383 204.907 540.933C203.517 542.482 201.774 543.678 199.678 544.521C197.581 545.365 195.132 545.786 192.329 545.786C189.618 545.786 187.259 545.41 185.254 544.658C183.249 543.906 181.585 542.812 180.264 541.377C178.942 539.941 177.962 538.175 177.324 536.079C176.686 533.983 176.367 531.59 176.367 528.901C176.367 526.304 176.709 523.934 177.393 521.792C178.099 519.627 179.147 517.782 180.537 516.255C181.927 514.705 183.659 513.509 185.732 512.666C187.829 511.823 190.278 511.401 193.081 511.401C195.815 511.401 198.185 511.777 200.19 512.529C202.196 513.258 203.848 514.341 205.146 515.776C206.468 517.212 207.448 518.978 208.086 521.074C208.724 523.171 209.043 525.575 209.043 528.286ZM200.19 528.628C200.19 527.124 200.065 525.745 199.814 524.492C199.587 523.216 199.188 522.111 198.618 521.177C198.049 520.243 197.285 519.513 196.328 518.989C195.394 518.465 194.209 518.203 192.773 518.203C191.497 518.203 190.381 518.442 189.424 518.921C188.467 519.377 187.681 520.06 187.065 520.972C186.45 521.86 185.983 522.943 185.664 524.219C185.368 525.472 185.22 526.908 185.22 528.525C185.22 530.029 185.345 531.419 185.596 532.695C185.846 533.949 186.245 535.042 186.792 535.977C187.362 536.911 188.125 537.64 189.082 538.164C190.039 538.665 191.224 538.916 192.637 538.916C193.936 538.916 195.063 538.688 196.021 538.232C196.978 537.754 197.764 537.07 198.379 536.182C198.994 535.293 199.45 534.222 199.746 532.969C200.042 531.693 200.19 530.246 200.19 528.628ZM235.464 516.187C235.464 517.007 235.441 517.679 235.396 518.203C235.35 518.727 235.282 519.137 235.19 519.434C235.099 519.73 234.974 519.935 234.814 520.049C234.678 520.163 234.495 520.22 234.268 520.22C234.085 520.22 233.88 520.186 233.652 520.117C233.424 520.026 233.162 519.935 232.866 519.844C232.593 519.753 232.285 519.673 231.943 519.604C231.602 519.513 231.226 519.468 230.815 519.468C230.337 519.468 229.858 519.57 229.38 519.775C228.901 519.958 228.4 520.254 227.876 520.664C227.375 521.074 226.839 521.621 226.27 522.305C225.723 522.988 225.13 523.831 224.492 524.834V543.838C224.492 544.066 224.424 544.271 224.287 544.453C224.15 544.613 223.911 544.749 223.569 544.863C223.25 544.977 222.817 545.057 222.271 545.103C221.724 545.171 221.029 545.205 220.186 545.205C219.342 545.205 218.647 545.171 218.101 545.103C217.554 545.057 217.109 544.977 216.768 544.863C216.449 544.749 216.221 544.613 216.084 544.453C215.947 544.271 215.879 544.066 215.879 543.838V513.35C215.879 513.122 215.936 512.928 216.05 512.769C216.164 512.586 216.369 512.438 216.665 512.324C216.961 512.21 217.337 512.131 217.793 512.085C218.271 512.017 218.864 511.982 219.57 511.982C220.299 511.982 220.903 512.017 221.382 512.085C221.86 512.131 222.225 512.21 222.476 512.324C222.749 512.438 222.943 512.586 223.057 512.769C223.171 512.928 223.228 513.122 223.228 513.35V517.144C224.025 516.004 224.777 515.07 225.483 514.341C226.19 513.589 226.862 512.996 227.5 512.563C228.138 512.131 228.776 511.834 229.414 511.675C230.052 511.493 230.69 511.401 231.328 511.401C231.624 511.401 231.943 511.424 232.285 511.47C232.627 511.493 232.98 511.549 233.345 511.641C233.709 511.709 234.028 511.8 234.302 511.914C234.575 512.005 234.769 512.108 234.883 512.222C235.02 512.336 235.111 512.461 235.156 512.598C235.225 512.734 235.282 512.928 235.327 513.179C235.373 513.407 235.407 513.76 235.43 514.238C235.452 514.717 235.464 515.366 235.464 516.187ZM266.089 504.463C266.089 505.146 266.055 505.728 265.986 506.206C265.941 506.662 265.85 507.026 265.713 507.3C265.599 507.573 265.462 507.778 265.303 507.915C265.143 508.052 264.961 508.12 264.756 508.12H250.298V520.015H263.867C264.072 520.015 264.255 520.072 264.414 520.186C264.574 520.299 264.71 520.493 264.824 520.767C264.961 521.04 265.052 521.405 265.098 521.86C265.166 522.316 265.2 522.886 265.2 523.569C265.2 524.253 265.166 524.823 265.098 525.278C265.052 525.734 264.961 526.11 264.824 526.406C264.71 526.702 264.574 526.919 264.414 527.056C264.255 527.17 264.072 527.227 263.867 527.227H250.298V543.701C250.298 543.952 250.229 544.168 250.093 544.351C249.956 544.533 249.705 544.692 249.341 544.829C248.999 544.943 248.543 545.034 247.974 545.103C247.404 545.171 246.675 545.205 245.786 545.205C244.92 545.205 244.191 545.171 243.599 545.103C243.029 545.034 242.573 544.943 242.231 544.829C241.89 544.692 241.639 544.533 241.479 544.351C241.343 544.168 241.274 543.952 241.274 543.701V503.608C241.274 502.606 241.525 501.888 242.026 501.455C242.55 500.999 243.188 500.771 243.94 500.771H264.756C264.961 500.771 265.143 500.84 265.303 500.977C265.462 501.09 265.599 501.296 265.713 501.592C265.85 501.865 265.941 502.241 265.986 502.72C266.055 503.198 266.089 503.779 266.089 504.463ZM281.504 543.838C281.504 544.066 281.436 544.271 281.299 544.453C281.162 544.613 280.923 544.749 280.581 544.863C280.262 544.977 279.829 545.057 279.282 545.103C278.735 545.171 278.04 545.205 277.197 545.205C276.354 545.205 275.659 545.171 275.112 545.103C274.565 545.057 274.121 544.977 273.779 544.863C273.46 544.749 273.232 544.613 273.096 544.453C272.959 544.271 272.891 544.066 272.891 543.838V498.892C272.891 498.664 272.959 498.459 273.096 498.276C273.232 498.094 273.46 497.946 273.779 497.832C274.121 497.695 274.565 497.593 275.112 497.524C275.659 497.456 276.354 497.422 277.197 497.422C278.04 497.422 278.735 497.456 279.282 497.524C279.829 497.593 280.262 497.695 280.581 497.832C280.923 497.946 281.162 498.094 281.299 498.276C281.436 498.459 281.504 498.664 281.504 498.892V543.838ZM320.947 528.286C320.947 530.884 320.605 533.254 319.922 535.396C319.238 537.537 318.201 539.383 316.812 540.933C315.422 542.482 313.678 543.678 311.582 544.521C309.486 545.365 307.036 545.786 304.233 545.786C301.522 545.786 299.163 545.41 297.158 544.658C295.153 543.906 293.49 542.812 292.168 541.377C290.846 539.941 289.867 538.175 289.229 536.079C288.59 533.983 288.271 531.59 288.271 528.901C288.271 526.304 288.613 523.934 289.297 521.792C290.003 519.627 291.051 517.782 292.441 516.255C293.831 514.705 295.563 513.509 297.637 512.666C299.733 511.823 302.183 511.401 304.985 511.401C307.72 511.401 310.09 511.777 312.095 512.529C314.1 513.258 315.752 514.341 317.051 515.776C318.372 517.212 319.352 518.978 319.99 521.074C320.628 523.171 320.947 525.575 320.947 528.286ZM312.095 528.628C312.095 527.124 311.969 525.745 311.719 524.492C311.491 523.216 311.092 522.111 310.522 521.177C309.953 520.243 309.189 519.513 308.232 518.989C307.298 518.465 306.113 518.203 304.678 518.203C303.402 518.203 302.285 518.442 301.328 518.921C300.371 519.377 299.585 520.06 298.97 520.972C298.354 521.86 297.887 522.943 297.568 524.219C297.272 525.472 297.124 526.908 297.124 528.525C297.124 530.029 297.249 531.419 297.5 532.695C297.751 533.949 298.149 535.042 298.696 535.977C299.266 536.911 300.029 537.64 300.986 538.164C301.943 538.665 303.128 538.916 304.541 538.916C305.84 538.916 306.968 538.688 307.925 538.232C308.882 537.754 309.668 537.07 310.283 536.182C310.898 535.293 311.354 534.222 311.65 532.969C311.947 531.693 312.095 530.246 312.095 528.628ZM374.302 513.281C374.302 513.532 374.268 513.84 374.199 514.204C374.131 514.569 374.006 515.093 373.823 515.776L365.688 543.359C365.575 543.747 365.426 544.066 365.244 544.316C365.062 544.544 364.777 544.727 364.39 544.863C364.025 545 363.49 545.091 362.783 545.137C362.1 545.182 361.2 545.205 360.083 545.205C358.966 545.205 358.055 545.171 357.349 545.103C356.642 545.057 356.084 544.966 355.674 544.829C355.286 544.692 355.002 544.51 354.819 544.282C354.637 544.032 354.5 543.724 354.409 543.359L349.282 524.834L349.214 524.526L349.146 524.834L344.429 543.359C344.338 543.747 344.201 544.066 344.019 544.316C343.859 544.544 343.574 544.727 343.164 544.863C342.754 545 342.196 545.091 341.489 545.137C340.783 545.182 339.871 545.205 338.755 545.205C337.616 545.205 336.693 545.171 335.986 545.103C335.303 545.057 334.756 544.966 334.346 544.829C333.958 544.692 333.674 544.51 333.491 544.282C333.309 544.032 333.172 543.724 333.081 543.359L325.015 515.776C324.81 515.116 324.673 514.603 324.604 514.238C324.559 513.851 324.536 513.532 324.536 513.281C324.536 513.053 324.593 512.86 324.707 512.7C324.844 512.518 325.072 512.381 325.391 512.29C325.732 512.176 326.177 512.096 326.724 512.051C327.293 512.005 328 511.982 328.843 511.982C329.754 511.982 330.495 512.005 331.064 512.051C331.634 512.096 332.078 512.176 332.397 512.29C332.716 512.404 332.933 512.563 333.047 512.769C333.184 512.951 333.286 513.179 333.354 513.452L339.404 535.84L339.473 536.25L339.541 535.84L345.215 513.452C345.283 513.179 345.386 512.951 345.522 512.769C345.682 512.563 345.91 512.404 346.206 512.29C346.502 512.176 346.912 512.096 347.437 512.051C347.983 512.005 348.678 511.982 349.521 511.982C350.365 511.982 351.048 512.017 351.572 512.085C352.096 512.131 352.507 512.21 352.803 512.324C353.122 512.415 353.338 512.552 353.452 512.734C353.589 512.894 353.691 513.088 353.76 513.315L359.844 535.874L359.946 536.25L360.015 535.84L365.825 513.452C365.871 513.179 365.962 512.951 366.099 512.769C366.235 512.563 366.463 512.404 366.782 512.29C367.101 512.176 367.534 512.096 368.081 512.051C368.628 512.005 369.323 511.982 370.166 511.982C371.009 511.982 371.693 512.005 372.217 512.051C372.764 512.096 373.185 512.176 373.481 512.29C373.8 512.381 374.017 512.518 374.131 512.7C374.245 512.86 374.302 513.053 374.302 513.281Z" fill="#282C34"/>
</svg>
