<svg width="420" height="600" viewBox="0 0 420 600" fill="none" xmlns="http://www.w3.org/2000/svg">
<path fill-rule="evenodd" clip-rule="evenodd" d="M40 0H380C402.091 0 420 17.9086 420 40V560C420 582.091 402.091 600 380 600H40C17.9086 600 0 582.091 0 560V40C0 17.9086 17.9086 0 40 0ZM372 24H48C34.7452 24 24 34.7452 24 48V430C24 443.255 34.7452 454 48 454H372C385.255 454 396 443.255 396 430V48C396 34.7452 385.255 24 372 24Z" fill="#FFB300"/>
<path d="M157.556 342.788L203.444 369V109L92 173.332V229.033L157.556 191.191V342.788Z" fill="#FFA000"/>
<path d="M216.556 369L262.444 342.788V273.904L288.667 289.039V239.026L262.444 223.887V191.191L328 229.033V173.332L216.556 109V369Z" fill="#FFB300"/>
<path d="M78.25 504.463C78.25 505.124 78.2158 505.693 78.1475 506.172C78.1019 506.628 78.0221 507.004 77.9082 507.3C77.7943 507.573 77.6462 507.778 77.4639 507.915C77.3044 508.052 77.1221 508.12 76.917 508.12H65.8428V543.77C65.8428 543.997 65.763 544.202 65.6035 544.385C65.4668 544.567 65.2275 544.715 64.8857 544.829C64.5439 544.943 64.0768 545.034 63.4844 545.103C62.9147 545.171 62.1969 545.205 61.3311 545.205C60.4652 545.205 59.736 545.171 59.1436 545.103C58.5739 545.034 58.1182 544.943 57.7764 544.829C57.4346 544.715 57.1839 544.567 57.0244 544.385C56.8877 544.202 56.8193 543.997 56.8193 543.77V508.12H45.7451C45.5173 508.12 45.3236 508.052 45.1641 507.915C45.0046 507.778 44.8678 507.573 44.7539 507.3C44.64 507.004 44.5488 506.628 44.4805 506.172C44.4349 505.693 44.4121 505.124 44.4121 504.463C44.4121 503.779 44.4349 503.198 44.4805 502.72C44.5488 502.241 44.64 501.865 44.7539 501.592C44.8678 501.296 45.0046 501.09 45.1641 500.977C45.3236 500.84 45.5173 500.771 45.7451 500.771H76.917C77.1221 500.771 77.3044 500.84 77.4639 500.977C77.6462 501.09 77.7943 501.296 77.9082 501.592C78.0221 501.865 78.1019 502.241 78.1475 502.72C78.2158 503.198 78.25 503.779 78.25 504.463ZM105.047 527.705C105.047 528.753 104.808 529.528 104.329 530.029C103.873 530.531 103.235 530.781 102.415 530.781H83.8555C83.8555 532.08 84.0036 533.265 84.2998 534.336C84.6188 535.384 85.1087 536.284 85.7695 537.036C86.4531 537.765 87.319 538.324 88.3672 538.711C89.4382 539.098 90.7142 539.292 92.1953 539.292C93.6992 539.292 95.0208 539.189 96.1602 538.984C97.2995 538.757 98.2793 538.517 99.0996 538.267C99.9427 537.993 100.638 537.754 101.185 537.549C101.731 537.321 102.176 537.207 102.518 537.207C102.723 537.207 102.894 537.253 103.03 537.344C103.167 537.412 103.281 537.549 103.372 537.754C103.463 537.959 103.52 538.255 103.543 538.643C103.589 539.007 103.611 539.474 103.611 540.044C103.611 540.545 103.6 540.978 103.577 541.343C103.554 541.685 103.52 541.981 103.475 542.231C103.429 542.482 103.361 542.699 103.27 542.881C103.178 543.04 103.053 543.2 102.894 543.359C102.757 543.519 102.358 543.735 101.697 544.009C101.036 544.282 100.193 544.556 99.168 544.829C98.1426 545.08 96.9691 545.296 95.6475 545.479C94.3258 545.684 92.9131 545.786 91.4092 545.786C88.6976 545.786 86.3164 545.444 84.2656 544.761C82.2376 544.077 80.54 543.04 79.1729 541.65C77.8057 540.26 76.7803 538.506 76.0967 536.387C75.4359 534.268 75.1055 531.784 75.1055 528.936C75.1055 526.224 75.4587 523.786 76.165 521.621C76.8714 519.434 77.8968 517.588 79.2412 516.084C80.5856 514.557 82.2148 513.395 84.1289 512.598C86.0658 511.8 88.2419 511.401 90.6572 511.401C93.2093 511.401 95.3854 511.777 97.1855 512.529C99.0085 513.281 100.501 514.329 101.663 515.674C102.825 516.995 103.68 518.568 104.227 520.391C104.773 522.214 105.047 524.196 105.047 526.338V527.705ZM96.707 525.244C96.7754 522.829 96.2855 520.938 95.2373 519.57C94.2119 518.18 92.6169 517.485 90.4521 517.485C89.3584 517.485 88.4014 517.69 87.5811 518.101C86.7835 518.511 86.1113 519.069 85.5645 519.775C85.0404 520.459 84.6302 521.279 84.334 522.236C84.0605 523.171 83.901 524.173 83.8555 525.244H96.707ZM141.277 543.838C141.277 544.066 141.209 544.271 141.072 544.453C140.936 544.613 140.708 544.749 140.389 544.863C140.07 544.977 139.625 545.057 139.056 545.103C138.509 545.171 137.825 545.205 137.005 545.205C136.162 545.205 135.455 545.171 134.886 545.103C134.339 545.057 133.906 544.977 133.587 544.863C133.268 544.749 133.04 544.613 132.903 544.453C132.767 544.271 132.698 544.066 132.698 543.838V526.44C132.698 524.959 132.584 523.797 132.356 522.954C132.151 522.111 131.844 521.393 131.434 520.801C131.023 520.186 130.488 519.718 129.827 519.399C129.189 519.058 128.437 518.887 127.571 518.887C126.478 518.887 125.372 519.285 124.256 520.083C123.139 520.881 121.977 522.043 120.77 523.569V543.838C120.77 544.066 120.701 544.271 120.564 544.453C120.428 544.613 120.188 544.749 119.847 544.863C119.528 544.977 119.095 545.057 118.548 545.103C118.001 545.171 117.306 545.205 116.463 545.205C115.62 545.205 114.925 545.171 114.378 545.103C113.831 545.057 113.387 544.977 113.045 544.863C112.726 544.749 112.498 544.613 112.361 544.453C112.225 544.271 112.156 544.066 112.156 543.838V513.35C112.156 513.122 112.213 512.928 112.327 512.769C112.441 512.586 112.646 512.438 112.942 512.324C113.239 512.21 113.615 512.131 114.07 512.085C114.549 512.017 115.141 511.982 115.848 511.982C116.577 511.982 117.181 512.017 117.659 512.085C118.138 512.131 118.502 512.21 118.753 512.324C119.026 512.438 119.22 512.586 119.334 512.769C119.448 512.928 119.505 513.122 119.505 513.35V516.87C121.191 515.047 122.9 513.68 124.632 512.769C126.386 511.857 128.209 511.401 130.101 511.401C132.174 511.401 133.917 511.743 135.33 512.427C136.766 513.11 137.916 514.045 138.782 515.229C139.671 516.392 140.309 517.759 140.696 519.331C141.084 520.903 141.277 522.795 141.277 525.005V543.838ZM171.219 535.225C171.219 536.956 170.888 538.483 170.228 539.805C169.59 541.126 168.678 542.231 167.493 543.12C166.308 544.009 164.907 544.67 163.289 545.103C161.671 545.558 159.917 545.786 158.025 545.786C156.886 545.786 155.792 545.695 154.744 545.513C153.719 545.353 152.796 545.148 151.976 544.897C151.155 544.624 150.472 544.351 149.925 544.077C149.378 543.804 148.979 543.553 148.729 543.325C148.478 543.075 148.284 542.699 148.147 542.197C148.011 541.673 147.942 540.91 147.942 539.907C147.942 539.246 147.965 538.722 148.011 538.335C148.056 537.925 148.125 537.606 148.216 537.378C148.307 537.127 148.421 536.968 148.558 536.899C148.694 536.808 148.865 536.763 149.07 536.763C149.321 536.763 149.686 536.911 150.164 537.207C150.665 537.48 151.281 537.788 152.01 538.13C152.739 538.472 153.582 538.791 154.539 539.087C155.519 539.383 156.624 539.531 157.854 539.531C158.629 539.531 159.313 539.451 159.905 539.292C160.521 539.132 161.045 538.905 161.478 538.608C161.933 538.312 162.275 537.936 162.503 537.48C162.731 537.025 162.845 536.501 162.845 535.908C162.845 535.225 162.628 534.644 162.195 534.165C161.785 533.664 161.227 533.231 160.521 532.866C159.837 532.502 159.051 532.16 158.162 531.841C157.296 531.522 156.396 531.169 155.462 530.781C154.55 530.394 153.65 529.95 152.762 529.448C151.896 528.947 151.11 528.332 150.403 527.603C149.72 526.873 149.161 525.996 148.729 524.971C148.318 523.945 148.113 522.715 148.113 521.279C148.113 519.821 148.398 518.488 148.968 517.28C149.537 516.05 150.358 515.002 151.429 514.136C152.5 513.27 153.799 512.598 155.325 512.119C156.875 511.641 158.606 511.401 160.521 511.401C161.478 511.401 162.4 511.47 163.289 511.606C164.201 511.743 165.021 511.914 165.75 512.119C166.479 512.324 167.094 512.552 167.596 512.803C168.097 513.031 168.45 513.236 168.655 513.418C168.883 513.577 169.043 513.748 169.134 513.931C169.225 514.09 169.293 514.295 169.339 514.546C169.384 514.774 169.419 515.07 169.441 515.435C169.487 515.776 169.51 516.209 169.51 516.733C169.51 517.349 169.487 517.85 169.441 518.237C169.419 518.625 169.362 518.932 169.271 519.16C169.202 519.388 169.1 519.548 168.963 519.639C168.826 519.707 168.667 519.741 168.484 519.741C168.279 519.741 167.96 519.627 167.527 519.399C167.094 519.149 166.548 518.887 165.887 518.613C165.249 518.34 164.497 518.089 163.631 517.861C162.788 517.611 161.819 517.485 160.726 517.485C159.951 517.485 159.279 517.565 158.709 517.725C158.139 517.884 157.672 518.112 157.308 518.408C156.943 518.704 156.67 519.058 156.487 519.468C156.305 519.855 156.214 520.277 156.214 520.732C156.214 521.439 156.43 522.031 156.863 522.51C157.296 522.988 157.866 523.41 158.572 523.774C159.279 524.139 160.076 524.481 160.965 524.8C161.876 525.119 162.788 525.472 163.699 525.859C164.633 526.224 165.545 526.657 166.434 527.158C167.345 527.66 168.154 528.275 168.86 529.004C169.567 529.733 170.136 530.61 170.569 531.636C171.002 532.638 171.219 533.835 171.219 535.225ZM208.543 528.286C208.543 530.884 208.201 533.254 207.518 535.396C206.834 537.537 205.797 539.383 204.407 540.933C203.017 542.482 201.274 543.678 199.178 544.521C197.081 545.365 194.632 545.786 191.829 545.786C189.118 545.786 186.759 545.41 184.754 544.658C182.749 543.906 181.085 542.812 179.764 541.377C178.442 539.941 177.462 538.175 176.824 536.079C176.186 533.983 175.867 531.59 175.867 528.901C175.867 526.304 176.209 523.934 176.893 521.792C177.599 519.627 178.647 517.782 180.037 516.255C181.427 514.705 183.159 513.509 185.232 512.666C187.329 511.823 189.778 511.401 192.581 511.401C195.315 511.401 197.685 511.777 199.69 512.529C201.696 513.258 203.348 514.341 204.646 515.776C205.968 517.212 206.948 518.978 207.586 521.074C208.224 523.171 208.543 525.575 208.543 528.286ZM199.69 528.628C199.69 527.124 199.565 525.745 199.314 524.492C199.087 523.216 198.688 522.111 198.118 521.177C197.549 520.243 196.785 519.513 195.828 518.989C194.894 518.465 193.709 518.203 192.273 518.203C190.997 518.203 189.881 518.442 188.924 518.921C187.967 519.377 187.181 520.06 186.565 520.972C185.95 521.86 185.483 522.943 185.164 524.219C184.868 525.472 184.72 526.908 184.72 528.525C184.72 530.029 184.845 531.419 185.096 532.695C185.346 533.949 185.745 535.042 186.292 535.977C186.862 536.911 187.625 537.64 188.582 538.164C189.539 538.665 190.724 538.916 192.137 538.916C193.436 538.916 194.563 538.688 195.521 538.232C196.478 537.754 197.264 537.07 197.879 536.182C198.494 535.293 198.95 534.222 199.246 532.969C199.542 531.693 199.69 530.246 199.69 528.628ZM234.964 516.187C234.964 517.007 234.941 517.679 234.896 518.203C234.85 518.727 234.782 519.137 234.69 519.434C234.599 519.73 234.474 519.935 234.314 520.049C234.178 520.163 233.995 520.22 233.768 520.22C233.585 520.22 233.38 520.186 233.152 520.117C232.924 520.026 232.662 519.935 232.366 519.844C232.093 519.753 231.785 519.673 231.443 519.604C231.102 519.513 230.726 519.468 230.315 519.468C229.837 519.468 229.358 519.57 228.88 519.775C228.401 519.958 227.9 520.254 227.376 520.664C226.875 521.074 226.339 521.621 225.77 522.305C225.223 522.988 224.63 523.831 223.992 524.834V543.838C223.992 544.066 223.924 544.271 223.787 544.453C223.65 544.613 223.411 544.749 223.069 544.863C222.75 544.977 222.317 545.057 221.771 545.103C221.224 545.171 220.529 545.205 219.686 545.205C218.842 545.205 218.147 545.171 217.601 545.103C217.054 545.057 216.609 544.977 216.268 544.863C215.949 544.749 215.721 544.613 215.584 544.453C215.447 544.271 215.379 544.066 215.379 543.838V513.35C215.379 513.122 215.436 512.928 215.55 512.769C215.664 512.586 215.869 512.438 216.165 512.324C216.461 512.21 216.837 512.131 217.293 512.085C217.771 512.017 218.364 511.982 219.07 511.982C219.799 511.982 220.403 512.017 220.882 512.085C221.36 512.131 221.725 512.21 221.976 512.324C222.249 512.438 222.443 512.586 222.557 512.769C222.671 512.928 222.728 513.122 222.728 513.35V517.144C223.525 516.004 224.277 515.07 224.983 514.341C225.69 513.589 226.362 512.996 227 512.563C227.638 512.131 228.276 511.834 228.914 511.675C229.552 511.493 230.19 511.401 230.828 511.401C231.124 511.401 231.443 511.424 231.785 511.47C232.127 511.493 232.48 511.549 232.845 511.641C233.209 511.709 233.528 511.8 233.802 511.914C234.075 512.005 234.269 512.108 234.383 512.222C234.52 512.336 234.611 512.461 234.656 512.598C234.725 512.734 234.782 512.928 234.827 513.179C234.873 513.407 234.907 513.76 234.93 514.238C234.952 514.717 234.964 515.366 234.964 516.187ZM265.589 504.463C265.589 505.146 265.555 505.728 265.486 506.206C265.441 506.662 265.35 507.026 265.213 507.3C265.099 507.573 264.962 507.778 264.803 507.915C264.643 508.052 264.461 508.12 264.256 508.12H249.798V520.015H263.367C263.572 520.015 263.755 520.072 263.914 520.186C264.074 520.299 264.21 520.493 264.324 520.767C264.461 521.04 264.552 521.405 264.598 521.86C264.666 522.316 264.7 522.886 264.7 523.569C264.7 524.253 264.666 524.823 264.598 525.278C264.552 525.734 264.461 526.11 264.324 526.406C264.21 526.702 264.074 526.919 263.914 527.056C263.755 527.17 263.572 527.227 263.367 527.227H249.798V543.701C249.798 543.952 249.729 544.168 249.593 544.351C249.456 544.533 249.205 544.692 248.841 544.829C248.499 544.943 248.043 545.034 247.474 545.103C246.904 545.171 246.175 545.205 245.286 545.205C244.42 545.205 243.691 545.171 243.099 545.103C242.529 545.034 242.073 544.943 241.731 544.829C241.39 544.692 241.139 544.533 240.979 544.351C240.843 544.168 240.774 543.952 240.774 543.701V503.608C240.774 502.606 241.025 501.888 241.526 501.455C242.05 500.999 242.688 500.771 243.44 500.771H264.256C264.461 500.771 264.643 500.84 264.803 500.977C264.962 501.09 265.099 501.296 265.213 501.592C265.35 501.865 265.441 502.241 265.486 502.72C265.555 503.198 265.589 503.779 265.589 504.463ZM281.004 543.838C281.004 544.066 280.936 544.271 280.799 544.453C280.662 544.613 280.423 544.749 280.081 544.863C279.762 544.977 279.329 545.057 278.782 545.103C278.235 545.171 277.54 545.205 276.697 545.205C275.854 545.205 275.159 545.171 274.612 545.103C274.065 545.057 273.621 544.977 273.279 544.863C272.96 544.749 272.732 544.613 272.596 544.453C272.459 544.271 272.391 544.066 272.391 543.838V498.892C272.391 498.664 272.459 498.459 272.596 498.276C272.732 498.094 272.96 497.946 273.279 497.832C273.621 497.695 274.065 497.593 274.612 497.524C275.159 497.456 275.854 497.422 276.697 497.422C277.54 497.422 278.235 497.456 278.782 497.524C279.329 497.593 279.762 497.695 280.081 497.832C280.423 497.946 280.662 498.094 280.799 498.276C280.936 498.459 281.004 498.664 281.004 498.892V543.838ZM320.447 528.286C320.447 530.884 320.105 533.254 319.422 535.396C318.738 537.537 317.701 539.383 316.312 540.933C314.922 542.482 313.178 543.678 311.082 544.521C308.986 545.365 306.536 545.786 303.733 545.786C301.022 545.786 298.663 545.41 296.658 544.658C294.653 543.906 292.99 542.812 291.668 541.377C290.346 539.941 289.367 538.175 288.729 536.079C288.09 533.983 287.771 531.59 287.771 528.901C287.771 526.304 288.113 523.934 288.797 521.792C289.503 519.627 290.551 517.782 291.941 516.255C293.331 514.705 295.063 513.509 297.137 512.666C299.233 511.823 301.683 511.401 304.485 511.401C307.22 511.401 309.59 511.777 311.595 512.529C313.6 513.258 315.252 514.341 316.551 515.776C317.872 517.212 318.852 518.978 319.49 521.074C320.128 523.171 320.447 525.575 320.447 528.286ZM311.595 528.628C311.595 527.124 311.469 525.745 311.219 524.492C310.991 523.216 310.592 522.111 310.022 521.177C309.453 520.243 308.689 519.513 307.732 518.989C306.798 518.465 305.613 518.203 304.178 518.203C302.902 518.203 301.785 518.442 300.828 518.921C299.871 519.377 299.085 520.06 298.47 520.972C297.854 521.86 297.387 522.943 297.068 524.219C296.772 525.472 296.624 526.908 296.624 528.525C296.624 530.029 296.749 531.419 297 532.695C297.251 533.949 297.649 535.042 298.196 535.977C298.766 536.911 299.529 537.64 300.486 538.164C301.443 538.665 302.628 538.916 304.041 538.916C305.34 538.916 306.468 538.688 307.425 538.232C308.382 537.754 309.168 537.07 309.783 536.182C310.398 535.293 310.854 534.222 311.15 532.969C311.447 531.693 311.595 530.246 311.595 528.628ZM373.802 513.281C373.802 513.532 373.768 513.84 373.699 514.204C373.631 514.569 373.506 515.093 373.323 515.776L365.188 543.359C365.075 543.747 364.926 544.066 364.744 544.316C364.562 544.544 364.277 544.727 363.89 544.863C363.525 545 362.99 545.091 362.283 545.137C361.6 545.182 360.7 545.205 359.583 545.205C358.466 545.205 357.555 545.171 356.849 545.103C356.142 545.057 355.584 544.966 355.174 544.829C354.786 544.692 354.502 544.51 354.319 544.282C354.137 544.032 354 543.724 353.909 543.359L348.782 524.834L348.714 524.526L348.646 524.834L343.929 543.359C343.838 543.747 343.701 544.066 343.519 544.316C343.359 544.544 343.074 544.727 342.664 544.863C342.254 545 341.696 545.091 340.989 545.137C340.283 545.182 339.371 545.205 338.255 545.205C337.116 545.205 336.193 545.171 335.486 545.103C334.803 545.057 334.256 544.966 333.846 544.829C333.458 544.692 333.174 544.51 332.991 544.282C332.809 544.032 332.672 543.724 332.581 543.359L324.515 515.776C324.31 515.116 324.173 514.603 324.104 514.238C324.059 513.851 324.036 513.532 324.036 513.281C324.036 513.053 324.093 512.86 324.207 512.7C324.344 512.518 324.572 512.381 324.891 512.29C325.232 512.176 325.677 512.096 326.224 512.051C326.793 512.005 327.5 511.982 328.343 511.982C329.254 511.982 329.995 512.005 330.564 512.051C331.134 512.096 331.578 512.176 331.897 512.29C332.216 512.404 332.433 512.563 332.547 512.769C332.684 512.951 332.786 513.179 332.854 513.452L338.904 535.84L338.973 536.25L339.041 535.84L344.715 513.452C344.783 513.179 344.886 512.951 345.022 512.769C345.182 512.563 345.41 512.404 345.706 512.29C346.002 512.176 346.412 512.096 346.937 512.051C347.483 512.005 348.178 511.982 349.021 511.982C349.865 511.982 350.548 512.017 351.072 512.085C351.596 512.131 352.007 512.21 352.303 512.324C352.622 512.415 352.838 512.552 352.952 512.734C353.089 512.894 353.191 513.088 353.26 513.315L359.344 535.874L359.446 536.25L359.515 535.84L365.325 513.452C365.371 513.179 365.462 512.951 365.599 512.769C365.735 512.563 365.963 512.404 366.282 512.29C366.601 512.176 367.034 512.096 367.581 512.051C368.128 512.005 368.823 511.982 369.666 511.982C370.509 511.982 371.193 512.005 371.717 512.051C372.264 512.096 372.685 512.176 372.981 512.29C373.3 512.381 373.517 512.518 373.631 512.7C373.745 512.86 373.802 513.053 373.802 513.281Z" fill="#282C34"/>
</svg>
